<?xml version="1.0" encoding="UTF-8"?>
<!DOCTYPE svg  PUBLIC '-//W3C//DTD SVG 1.1//EN'  'http://www.w3.org/Graphics/SVG/1.1/DTD/svg11.dtd'>
<svg enable-background="new 0 0 236.7 60.5" version="1.1" viewBox="0 0 236.7 60.5" xml:space="preserve" xmlns="http://www.w3.org/2000/svg">
				<path d="m29.7 4.1c-1.2-1.2-2.9-2.5-4.5-3.3-1-0.5-2-0.8-3-0.8-1.3 0-2.6 0.4-4.3 1.4-7.1 4-15 15.4-17.3 22.9-1.5 5-0.1 8.5 4.6 11.5 2.3 1.5 4.6 2.2 6.8 2.2h0.9c3.3-0.3 7.3-4 9.5-7.6 1.7-2.8 0.6-4.8 0.1-5.7-0.4-0.8-1-0.9-1.4-0.9-0.5 0-1.1 0.3-1.6 0.9-4.1 4.5-8.6 7.3-10.5 7.3-0.2 0-0.4 0-0.5-0.1-1.1-0.8-0.4-6.6 4.7-14.3 4.4-6.7 8.7-10.5 10-10.9-0.1 1.1-1.7 4.2-2.3 5.2-0.2 0.4-0.4 0.7-0.5 1-0.6 1.2-0.6 2.7 0 3.8 0.3 0.7 1.2 1.5 2.1 2.4 0.4 0.4 0.8 0.6 1.3 0.6 0.8 0 1.3-0.6 1.7-1 1.7-2.2 4-6 4.9-9.4 0.7-2.3 0.4-4-0.7-5.2z" fill="#fff"/>
					<path d="m50.9 32.9c-2-1.8-4.9-5.2-6.9-8.1 7.1-2.8 13.6-7.8 16.2-11.4 1.3-1.8 3.4-4.5-0.1-8.4-2.5-2.9-6.5-4.6-10.6-4.6-4.2 0-8.7 1-12.3 2.8-0.7 0.3-1.1 0.8-1.2 1.3s0.1 1.1 0.6 1.6c0.1 0.1 0.2 0.3 0.3 0.4 0.4 0.5 0.9 1 1.4 1.6-4.4 6.9-9.5 16.4-12.2 22.8-0.7 1.7-0.1 2.9 0.4 3.8 0.7 1.1 1.2 1.7 1.9 2.2 0.5 0.4 1 0.7 1.6 0.7s1.1-0.4 1.5-1.2c1.3-2.7 2.7-5.7 4.4-8.7 2.5 3.2 5.4 6.2 7.6 7.8 1.2 0.9 1.9 1.2 2.8 1.2 0.3 0 0.7 0 1.2-0.1 1.2-0.2 2.4-0.8 3.2-1.2 0.6-0.4 0.8-0.8 0.8-1.2 0.2-0.3 0-0.8-0.6-1.3zm3.7-25.1c-1 2.5-7.3 7.7-13 10.4 2.1-3.5 4.3-6.9 6.4-10.1 1.8-0.6 4.1-1 5.6-1 0.8 0 1.1 0.1 1.2 0.2-0.1 0.1-0.1 0.3-0.2 0.5z" fill="#fff"/>
					<path d="m86.2 7.3c0.4-1.3 0.9-2.6-1.2-4.1-1.6-1.1-2-1.4-3.8-2.4-0.7-0.4-1.3-0.5-1.8-0.5-1.1 0-1.7 0.7-2.2 1.3-6.7 7.5-17.5 22.1-21.8 28.9-1.2 1.9-1.3 3.3-0.4 4.8 0.4 0.7 0.8 1.2 1.3 1.8 0.4 0.4 0.8 0.9 1.4 0.9 0.7 0 1.2-0.6 1.7-1.3 0.9-1.4 1.9-2.9 3-4.4 3.6-0.9 7.2-1.5 10.7-1.9v0.2c-0.1 0.6-0.1 1.2-0.2 1.7-0.1 1.7 0.2 2.6 1.4 3.4 1.1 0.8 1.7 1.1 2.4 1.4 0.4 0.1 0.7 0.2 1 0.2 1.1 0 1.3-1.2 1.4-1.6 1.1-8 4.3-19.9 7-28.1l0.1-0.3zm-9.3 5.8c-0.9 3.3-1.9 7.2-2.6 10.8-1.9 0.2-3.9 0.4-6.4 0.7 2.9-3.7 6.1-7.9 9-11.5z" fill="#fff"/>
				<path d="m114.9 9.3c1.6-1.3 1.6-2.2 1.1-3.6-0.4-0.9-1.3-2.8-2.1-4-0.5-0.7-1-1.5-2.8-1.5h-0.2c-5.3 0.2-11.8 1.8-15.6 3.1-0.6 0.2-1 0.5-1.2 1s-0.1 1 0.3 1.5l0.2 0.3c0.4 0.6 0.9 1.3 1.5 1.8s1.5 0.8 2.7 0.8c0.4 0 0.9 0 1.3-0.1 0.5-0.1 1.1-0.2 1.8-0.3 0.8-0.1 1.9-0.3 3-0.4-7.6 5.9-15.9 14.3-21.4 21.5-1 1.3-1.4 2.4-0.3 3.8 1.1 1.5 2.7 2.9 3.7 3.7l0.2 0.1c0.5 0.4 1 0.8 1.9 0.8 0.4 0 0.8-0.1 1.3-0.2 4.2-1.4 9.3-2.4 12.8-3.1 0.6-0.1 1-0.4 1.2-0.8s0.1-0.9-0.3-1.5c-0.1-0.2-0.3-0.4-0.4-0.7-0.4-0.7-0.8-1.4-1.4-1.8-0.9-0.7-1.8-0.8-3-0.8-1.4 0-3.4 0.1-5.8 0.4 6.1-6.7 13.6-13.7 21.5-20z" fill="#fff"/>
				<path d="m144 0.2c-0.4 0-0.9 0.2-1.4 0.7-3.5 2.5-9.8 7.7-14.7 12.3-0.1-1.2-0.1-2.4-0.2-3.5-0.1-1.2-0.1-2.2-0.2-3.3s-0.3-2.5-1.5-3.4c-0.9-0.7-2.4-1.4-3.8-1.9-0.7-0.2-1.3-0.1-1.7 0.4-0.4 0.4-0.5 1-0.5 1.7-0.1 3.2-0.2 9.6 0.6 17.5-2 3.9-3.8 7.8-5 11-0.6 1.5-0.4 2.6 0.5 3.7 0.8 0.9 1.5 1.5 2.1 1.9l0.3 0.3c0.5 0.3 0.8 0.5 1.2 0.5 0.6 0 1.1-0.4 1.4-1.2 1.5-3.5 3.7-8 6.4-12.9 5.5-6.6 12.8-13.4 15.7-16 2.2-2 2.9-4 2.2-6.4-0.4-1.2-1-1.4-1.4-1.4z" fill="#fff"/>
				<path d="m170.8 12.8c-0.6 1.2-0.6 2.7 0 3.8 0.3 0.7 1.2 1.5 2.1 2.4 0.4 0.4 0.8 0.6 1.3 0.6 0.8 0 1.3-0.6 1.7-1 1.7-2.2 4-6 4.9-9.4 0.6-2.2 0.3-3.9-0.8-5.1-1.2-1.2-2.9-2.5-4.5-3.3-1-0.5-2-0.8-3-0.8-1.3 0-2.6 0.4-4.3 1.4-7.1 4-15 15.4-17.3 22.9-1.5 5-0.1 8.6 4.6 11.5 2.3 1.4 4.6 2.2 6.8 2.2h0.9c3.3-0.3 7.3-4 9.5-7.6 1.7-2.8 0.6-4.8 0.1-5.7-0.4-0.8-1-0.9-1.4-0.9-0.5 0-1.1 0.3-1.6 0.9-4.1 4.5-8.6 7.3-10.5 7.3-0.2 0-0.4 0-0.5-0.1-1.1-0.8-0.4-6.6 4.7-14.3 4.4-6.7 8.7-10.5 10-10.9-0.1 1.1-1.7 4.2-2.3 5.2-0.1 0.4-0.3 0.7-0.4 0.9z" fill="#fff"/>
					<path d="m207.1 7.3c0.4-1.3 0.9-2.6-1.3-4.1-1.6-1.1-2-1.4-3.8-2.4-0.7-0.4-1.3-0.5-1.8-0.5-1.1 0-1.7 0.7-2.2 1.3-6.7 7.5-17.5 22.1-21.8 28.9-1.2 1.9-1.3 3.3-0.4 4.8 0.4 0.7 0.8 1.2 1.3 1.8 0.4 0.4 0.8 0.9 1.4 0.9 0.7 0 1.2-0.6 1.7-1.3 0.9-1.4 1.9-2.9 3-4.4 3.6-0.9 7.2-1.5 10.7-1.9v0.2c-0.1 0.6-0.1 1.2-0.2 1.7-0.1 1.7 0.2 2.6 1.4 3.4 1.1 0.8 1.7 1.1 2.4 1.4 0.4 0.1 0.7 0.2 1 0.2 1.1 0 1.3-1.2 1.4-1.6 1.1-8 4.3-19.9 7-28.1l0.2-0.3zm-9.4 5.8c-0.9 3.3-1.9 7.2-2.6 10.8-1.9 0.2-3.9 0.4-6.4 0.7 3-3.7 6.2-7.9 9-11.5z" fill="#fff"/>
				<path d="m236 3.5c-1.5-1.9-4.4-3.2-7.2-3.3h-0.7c-4 0-11.1 0.8-16 2.2-0.7 0.2-1.2 0.7-1.4 1.3s0 1.2 0.5 1.8c2 2.1 3.7 2.9 6.6 2.9-4.8 7.9-9.4 16.9-11.8 23.2-0.5 1.4-0.4 2.5 0.5 3.7s1.7 1.8 2.3 2.2c0.5 0.3 0.9 0.5 1.2 0.5 0.9 0 1.3-0.9 1.4-1.2 3.4-8.2 10.3-20.5 16.2-28.6 0.1-0.2 0.3-0.4 0.4-0.6 0.7-0.1 1.4-0.2 2.1-0.2 1.8-0.2 3.6-0.4 4.8-0.6 0.9-0.2 1.5-0.5 1.7-1.1 0.2-0.7 0-1.4-0.6-2.2z" fill="#fff"/>
	<g fill="#F68933">
		<path d="m63.2 53.2c0-3.4 2.6-5.8 5.8-5.8 2.1 0 3.6 0.8 4.5 2.2l-1.4 1c-0.8-1-1.7-1.6-3.2-1.6-2.3 0-3.9 1.8-3.9 4.2 0 2.5 1.7 4.2 4 4.2 1.5 0 2.6-0.5 3.4-1.7l1.4 1c-1.2 1.6-2.6 2.3-4.8 2.3-3.3 0-5.8-2.4-5.8-5.8z"/>
		<path d="m80.8 47.5h2l3.2 5.9 3.2-5.9h1.8l-4.2 7.7v3.6h-1.8v-3.6l-4.2-7.7z"/>
		<path d="m97.7 53.2c0-3.4 2.6-5.8 5.8-5.8 2.1 0 3.6 0.8 4.5 2.2l-1.4 1c-0.8-1-1.7-1.6-3.2-1.6-2.3 0-3.9 1.8-3.9 4.2 0 2.5 1.7 4.2 4 4.2 1.5 0 2.6-0.5 3.4-1.7l1.4 1c-1.2 1.6-2.7 2.3-4.9 2.3-3.2 0-5.7-2.4-5.7-5.8z"/>
		<path d="M116.8,47.5h1.8v9.8h5v1.6h-6.8V47.5z"/>
		<path d="M132,47.5h7.2v1.6h-5.4v4.7h4.8v1.6h-4.8v1.9h5.7v1.6H132V47.5z"/>
		<path d="m156 58.9h-2.1l-1.9-2.8h-0.8-1.2v2.7h-1.8v-11.3h2.9c3.1 0 4.8 1.7 4.8 4.3 0 1.8-0.8 3.1-2.3 3.8l2.4 3.3zm-5-4.3c2.2 0 3.1-1 3.1-2.8 0-1.7-0.9-2.8-3.1-2.8h-1v5.5h1z"/>
		<path d="m163.3 47.5h2l3.2 5.9 3.2-5.9h1.9l-4.2 7.7v3.6h-1.8v-3.6l-4.3-7.7z"/>
	</g>
</svg>
