<?xml version="1.0" encoding="UTF-8" standalone="no"?> <svg xmlns:dc="http://purl.org/dc/elements/1.1/" xmlns:cc="http://creativecommons.org/ns#" xmlns:rdf="http://www.w3.org/1999/02/22-rdf-syntax-ns#" xmlns:svg="http://www.w3.org/2000/svg" xmlns="http://www.w3.org/2000/svg" id="svg8" version="1.1" viewBox="0 0 173.60555 34.176228" height="34.176228mm" width="173.60555mm"><defs id="defs2"><clipPath id="clipPath849"><path d="M 0,612 H 792 V 0 H 0 Z" id="path847"></path></clipPath></defs><metadata id="metadata5"></metadata><g transform="translate(117.51137,-77.058421)" id="layer1"><g id="g845" clip-path="url(#clipPath849)" transform="matrix(0.35277777,0,0,-0.35277777,-128.76344,230.76662)"><g style="fill:#ffffff;fill-opacity:1" id="g887" transform="translate(98.772228,411.74459)"><path d="m 0,0 h 26.841 c 0,-0.638 -0.002,-1.188 0,-1.737 0.034,-12.963 0.062,-25.925 0.115,-38.887 0.004,-0.981 0.126,-1.971 0.293,-2.94 0.406,-2.357 1.773,-3.939 4.229,-4.101 5.941,-0.392 11.9,-0.524 18.031,-0.769 v 1.972 c 0,14.98 0.017,31.604 -0.03,46.584 0,0 0.321,0.011 1.67,0 C 59.058,0.056 66.966,0.09 74.875,0.089 h 1.539 v -71.473 h -1.185 c -15.115,0.001 -30.229,-0.017 -45.343,0.015 -4.673,0.01 -9.289,0.562 -13.713,2.118 -8.99,3.162 -14.178,9.387 -15.253,18.673 -0.506,4.379 -0.836,8.8 -0.879,13.205 C -0.078,-25.442 0,-13.508 0,-1.576 Z" style="fill:#ffffff;fill-opacity:1;fill-rule:nonzero;stroke:none" id="path889"></path></g><g style="fill:#ffffff;fill-opacity:1" id="g891" transform="translate(180.45093,340.36079)"><path d="m 0,0 v 23.176 h 1.474 c 7.513,0.005 15.026,-0.032 22.539,0.041 2.052,0.02 4.14,0.188 6.144,0.601 4.629,0.956 7.652,5.551 7.082,10.329 -0.272,2.279 -1.186,4.274 -2.376,6.2 -3.221,5.217 -7.52,9.591 -11.541,14.188 -4.591,5.251 -9.329,10.404 -13.56,15.923 -5.596,7.298 -6.62,15.587 -4.227,24.328 0.044,0.159 0.146,0.304 0.22,0.456 h 27.352 c -0.139,-1.301 -0.288,-2.526 -0.398,-3.754 -0.282,-3.168 0.146,-6.193 2.215,-8.771 3.871,-4.826 7.77,-9.633 11.71,-14.405 4.215,-5.107 8.774,-9.96 12.212,-15.64 C 66.157,40.591 66.927,28.139 60.598,15.495 56.249,6.805 48.737,2.15 39.088,0.814 35.19,0.274 31.218,0.099 27.275,0.047 18.577,-0.066 9.876,0.004 1.177,0 Z" style="fill:#ffffff;fill-opacity:1;fill-rule:nonzero;stroke:none" id="path893"></path></g><g style="fill:#ffffff;fill-opacity:1" id="g895" transform="translate(381.04173,399.53359)"><path d="M 0,0 H 64.859 V -23.065 H 26.95 v -12.898 h 37.873 v -23.14 H 0 Z" style="fill:#ffffff;fill-opacity:1;fill-rule:nonzero;stroke:none" id="path897"></path></g><g style="fill:#ffffff;fill-opacity:1" id="g899" transform="translate(342.96463,363.52139)"><path d="M 0,0 H 33.222 V -23.06 H -26.831 V 72.053 H 0 Z" style="fill:#ffffff;fill-opacity:1;fill-rule:nonzero;stroke:none" id="path901"></path></g><g style="fill:#ffffff;fill-opacity:1" id="g903" transform="translate(91.632628,376.38859)"><path d="m 0,0 h -32.847 v -35.934 h -26.89 v 95.138 h 26.799 V 23.286 H 0 Z" style="fill:#ffffff;fill-opacity:1;fill-rule:nonzero;stroke:none" id="path905"></path></g><g style="fill:#ffffff;fill-opacity:1" id="g907" transform="translate(307.88993,363.53659)"><path d="m 0,0 v -23.067 c -0.331,-0.036 -0.662,-0.104 -0.992,-0.104 -7.514,0.004 -15.033,-0.141 -22.541,0.085 -4.413,0.132 -8.876,0.522 -13.195,1.38 -9.713,1.93 -15.154,8.143 -17.258,17.43 -1.293,5.703 -1.378,11.488 -1.411,17.278 -0.042,7.341 -0.012,14.683 -0.009,22.024 0,0.295 0.04,0.59 0.068,0.969 h 26.76 v -1.526 c 0,-7.427 -0.044,-14.854 0.029,-22.281 0.02,-2.045 0.22,-4.12 0.635,-6.123 0.784,-3.783 3.285,-5.738 7.245,-5.812 C -14.301,0.133 -7.93,0.081 -1.561,0.001 -1.084,-0.005 -0.608,0 0,0" style="fill:#ffffff;fill-opacity:1;fill-rule:nonzero;stroke:none" id="path909"></path></g><path d="m 445.89723,412.57329 h -64.87 v 23.025 h 64.87 z" style="fill:#ffffff;fill-opacity:1;fill-rule:nonzero;stroke:none" id="path911"></path><path d="m 310.51723,412.51829 h -62.519 v 23.068 h 62.519 z" style="fill:#ffffff;fill-opacity:1;fill-rule:nonzero;stroke:none" id="path913"></path><g style="fill:#3cb4e3;fill-opacity:1" id="g915" transform="translate(466.15553,342.20699)"><path d="m 0,0 c 0,3.059 0.067,5.977 -0.025,8.889 -0.059,1.853 -0.637,3.567 -2.391,4.626 -4.077,2.463 -8.985,-0.022 -9.17,-4.692 -0.109,-2.743 -0.041,-5.493 -0.042,-8.24 0,-0.196 0.083,-0.391 0.128,-0.583 z m 17.953,-0.007 c 0,3.641 0.162,7.164 -0.043,10.666 -0.236,4.037 -3.042,6.395 -7.244,6.471 C 6.605,17.203 3.577,14.891 3.202,11.017 2.881,7.697 2.992,4.337 2.922,0.995 2.915,0.669 2.979,0.342 3.012,-0.007 Z M 1.351,14.05 c 2.795,8.515 13.363,7.778 17.11,3.346 1.603,-1.897 2.509,-4.084 2.577,-6.47 0.136,-4.709 0.04,-9.425 0.04,-14.228 h -35.816 c 0,1.534 -0.03,3.064 0.006,4.592 0.074,3.21 -0.129,6.464 0.345,9.619 0.801,5.32 6.406,8.336 11.448,6.252 1.601,-0.661 2.882,-2.063 4.29,-3.111" style="fill:#3cb4e3;fill-opacity:1;fill-rule:nonzero;stroke:none" id="path917"></path></g><g style="fill:#3cb4e3;fill-opacity:1" id="g919" transform="translate(503.82543,392.71479)"><path d="m 0,0 c 0,2.762 0.178,5.469 -0.049,8.143 -0.243,2.886 -2.067,4.236 -5.215,4.328 -2.858,0.084 -4.945,-1.247 -5.26,-3.967 C -10.847,5.725 -10.596,2.882 -10.596,0 Z m 16.698,-0.004 c 0,0.564 0.004,1.066 0,1.568 -0.021,2.575 0.152,5.168 -0.114,7.718 -0.367,3.519 -2.723,5.421 -6.401,5.588 C 6.542,15.035 3.603,13.265 3.129,10.029 2.649,6.751 2.782,3.388 2.644,-0.004 Z M 1.349,12.211 c -0.162,-0.124 -0.06,-0.086 -0.037,-0.023 1.475,4.174 5.67,6.399 10.898,5.477 3.973,-0.701 6.91,-3.556 7.227,-7.769 0.318,-4.214 0.07,-8.468 0.07,-12.783 h -33.154 v 1.59 c 10e-4,2.96 -0.082,5.922 0.02,8.88 0.243,7.048 6.482,8.884 10.898,7.34 1.441,-0.504 2.623,-1.716 4.078,-2.712" style="fill:#3cb4e3;fill-opacity:1;fill-rule:nonzero;stroke:none" id="path921"></path></g><g style="fill:#3cb4e3;fill-opacity:1" id="g923" transform="translate(451.51593,433.55709)"><path d="m 0,0 h 2.945 v -17.62 h 17.833 v 15.731 h 3.076 v -15.753 h 8.788 v 18.39 h 3.004 V -20.991 H 0 Z" style="fill:#3cb4e3;fill-opacity:1;fill-rule:nonzero;stroke:none" id="path925"></path></g><g style="fill:#3cb4e3;fill-opacity:1" id="g927" transform="translate(451.46903,382.17479)"><path d="m 0,0 v 3.19 h 20.545 c -0.627,0.524 -0.948,0.813 -1.29,1.077 -6.001,4.622 -11.989,9.262 -18.026,13.841 -0.954,0.725 -1.517,1.438 -1.316,2.66 0.103,0.619 0.019,1.267 0.019,2.21 5.805,-4.453 11.407,-8.749 17.046,-13.073 6.235,4.826 12.416,9.609 18.817,14.564 0,-1.411 0.068,-2.557 -0.038,-3.687 -0.035,-0.374 -0.463,-0.778 -0.81,-1.049 C 30.177,16.01 25.39,12.309 20.608,8.599 20.301,8.36 20.008,8.103 19.548,7.72 21.427,6.242 23.236,4.787 25.094,3.393 25.356,3.196 25.854,3.266 26.242,3.265 29.359,3.255 32.477,3.259 35.696,3.259 V 0 Z" style="fill:#3cb4e3;fill-opacity:1;fill-rule:nonzero;stroke:none" id="path929"></path></g><g style="fill:#3cb4e3;fill-opacity:1" id="g931" transform="translate(514.66623,378.03069)"><path d="M 0,0 C -6.026,-2.213 -11.952,-4.389 -18.188,-6.68 -11.961,-8.997 -6.02,-11.207 0,-13.447 Z M -25.248,-6.551 C -14.002,-2.303 -2.756,1.946 8.726,6.284 8.726,5.316 8.801,4.52 8.688,3.749 8.644,3.444 8.23,3.079 7.899,2.946 6.524,2.392 5.095,1.962 3.734,1.378 3.376,1.225 2.966,0.686 2.962,0.319 c -0.052,-4.675 -0.053,-9.352 0,-14.027 0.004,-0.368 0.419,-0.899 0.781,-1.064 1.187,-0.542 2.414,-1.033 3.672,-1.385 1.076,-0.301 1.485,-0.85 1.325,-1.91 -0.069,-0.46 -0.011,-0.937 -0.011,-1.577 -11.41,4.294 -22.696,8.543 -33.983,12.791 z" style="fill:#3cb4e3;fill-opacity:1;fill-rule:nonzero;stroke:none" id="path933"></path></g><g style="fill:#3cb4e3;fill-opacity:1" id="g935" transform="translate(517.17803,413.75239)"><path d="m 0,0 c -0.48,0.815 -0.935,1.586 -1.416,2.403 0.526,0.336 1.005,0.623 1.465,0.935 3.415,2.322 4.755,6.753 3.181,10.507 -1.465,3.497 -6.288,4.565 -9.24,1.918 -1.069,-0.959 -1.87,-2.254 -2.619,-3.495 -1.333,-2.211 -2.414,-4.573 -3.817,-6.737 -2.032,-3.134 -5.138,-4.211 -8.783,-3.573 -4.537,0.794 -7.079,4.854 -6.205,9.635 0.55,3.011 2.031,5.055 4.811,6.526 0.505,-0.695 1.019,-1.404 1.567,-2.159 -0.444,-0.328 -0.795,-0.575 -1.132,-0.836 -2.295,-1.768 -2.894,-4.151 -2.34,-6.799 0.401,-1.922 1.733,-3.12 3.754,-3.512 2.01,-0.39 3.817,0.01 5.082,1.624 0.925,1.18 1.618,2.538 2.373,3.84 1.099,1.899 2.026,3.908 3.269,5.71 2.5,3.624 6.427,4.989 10.719,3.816 3.59,-0.982 5.266,-3.575 5.93,-6.995 C 7.579,7.764 5.363,2.902 0.879,0.415 0.619,0.271 0.341,0.16 0,0" style="fill:#3cb4e3;fill-opacity:1;fill-rule:nonzero;stroke:none" id="path937"></path></g><g style="fill:#3cb4e3;fill-opacity:1" id="g939" transform="translate(520.49053,355.98679)"><path d="m 0,0 c 0.983,-0.363 1.764,-0.613 2.502,-0.951 0.199,-0.091 0.383,-0.45 0.384,-0.687 0.021,-5.143 0.016,-10.287 0.016,-15.518 h -33.151 v 2.739 H 0 Z" style="fill:#3cb4e3;fill-opacity:1;fill-rule:nonzero;stroke:none" id="path941"></path></g><path d="m 487.22323,369.75629 h -35.729 v 3.222 h 35.729 z" style="fill:#3cb4e3;fill-opacity:1;fill-rule:nonzero;stroke:none" id="path943"></path><path d="M 125.61323,411.78329 H 98.772228 v 23.819 h 26.841002 z" style="fill:#3cb4e3;fill-opacity:1;fill-rule:nonzero;stroke:none" id="path945"></path><path d="m 175.21623,411.88929 h -26.963 v 23.819 h 26.963 z" style="fill:#3cb4e3;fill-opacity:1;fill-rule:nonzero;stroke:none" id="path947"></path><g id="g1075" transform="translate(493.50513,395.26419)"></g></g></g></svg> 