<?xml version="1.0" encoding="UTF-8"?>
<svg data-name="Layer 3" viewBox="0 0 566.93 566.93" xmlns="http://www.w3.org/2000/svg">
<defs>
<style>.cls-1{fill:#fff;}</style>
</defs>
<title>white Logo</title>
<path class="cls-1" d="M208.68,247.36a21.86,21.86,0,1,0,21.86,21.85A21.87,21.87,0,0,0,208.68,247.36Zm0,41.12a19.26,19.26,0,1,1,19.26-19.27A19.26,19.26,0,0,1,208.68,288.48Zm24.41-41a4.89,4.89,0,0,1,.41,2,5,5,0,0,1-5,5,4.94,4.94,0,0,1-2.34-.58,23.07,23.07,0,0,1,5.74,13.82,5.06,5.06,0,0,1,4.8-3.5,5,5,0,0,1,4.67,3.21A32.55,32.55,0,0,0,233.09,247.44Zm8.26,23.6a5,5,0,0,1-9.47-.3,23,23,0,0,1-5.76,13.84A5,5,0,0,1,233.5,289a4.89,4.89,0,0,1-.41,2A32.56,32.56,0,0,0,241.35,271Zm-30.81-34.49a5,5,0,0,1-.34,9.46A23.17,23.17,0,0,1,224,251.76a4.85,4.85,0,0,1-.58-2.33,5,5,0,0,1,5-5,5,5,0,0,1,2,.4A32.59,32.59,0,0,0,210.54,236.55Zm0,65.34a32.53,32.53,0,0,0,19.94-8.25,5,5,0,0,1-2,.4,5,5,0,0,1-5-5,4.91,4.91,0,0,1,.59-2.35,23.21,23.21,0,0,1-13.86,5.76,5,5,0,0,1,.33,9.47Zm-1.83-54.53a21.86,21.86,0,1,0,21.86,21.85A21.87,21.87,0,0,0,208.68,247.36Zm0,41.12a19.26,19.26,0,1,1,19.26-19.27A19.26,19.26,0,0,1,208.68,288.48Zm-5,8.73a5,5,0,0,1,3.52-4.79,23.18,23.18,0,0,1-13.86-5.76,4.91,4.91,0,0,1,.59,2.35,5,5,0,0,1-5,5,5.11,5.11,0,0,1-2-.39,32.52,32.52,0,0,0,19.93,8.24A5,5,0,0,1,203.66,297.21Zm3.5-51.2a5,5,0,0,1-.33-9.46,32.51,32.51,0,0,0-19.9,8.24,5.11,5.11,0,0,1,2-.39,5,5,0,0,1,5,5,4.91,4.91,0,0,1-.59,2.35A23.08,23.08,0,0,1,207.16,246Zm-18.27,8.44a5,5,0,0,1-5-5,5.08,5.08,0,0,1,.39-2,32.51,32.51,0,0,0-8.23,19.9,5,5,0,0,1,9.47.34,23,23,0,0,1,5.75-13.85A5,5,0,0,1,188.89,254.45Zm-3.4,16.27a5,5,0,0,1-9.47.35,32.54,32.54,0,0,0,8.23,19.9,5.11,5.11,0,0,1-.39-2,5,5,0,0,1,7.38-4.43A23.11,23.11,0,0,1,185.49,270.72Zm23.19-23.36a21.86,21.86,0,1,0,21.86,21.85A21.87,21.87,0,0,0,208.68,247.36Zm0,41.12a19.26,19.26,0,1,1,19.26-19.27A19.26,19.26,0,0,1,208.68,288.48Zm24.41-41a4.89,4.89,0,0,1,.41,2,5,5,0,0,1-5,5,4.94,4.94,0,0,1-2.34-.58,23.07,23.07,0,0,1,5.74,13.82,5.06,5.06,0,0,1,4.8-3.5,5,5,0,0,1,4.67,3.21A32.55,32.55,0,0,0,233.09,247.44Zm8.26,23.6a5,5,0,0,1-9.47-.3,23,23,0,0,1-5.76,13.84A5,5,0,0,1,233.5,289a4.89,4.89,0,0,1-.41,2A32.56,32.56,0,0,0,241.35,271Zm-30.81-34.49a5,5,0,0,1-.34,9.46A23.17,23.17,0,0,1,224,251.76a4.85,4.85,0,0,1-.58-2.33,5,5,0,0,1,5-5,5,5,0,0,1,2,.4A32.59,32.59,0,0,0,210.54,236.55Zm0,65.34a32.53,32.53,0,0,0,19.94-8.25,5,5,0,0,1-2,.4,5,5,0,0,1-5-5,4.91,4.91,0,0,1,.59-2.35,23.21,23.21,0,0,1-13.86,5.76,5,5,0,0,1,.33,9.47Zm-1.83-54.53a21.86,21.86,0,1,0,21.86,21.85A21.87,21.87,0,0,0,208.68,247.36Zm0,41.12a19.26,19.26,0,1,1,19.26-19.27A19.26,19.26,0,0,1,208.68,288.48Zm-5,8.73a5,5,0,0,1,3.52-4.79,23.18,23.18,0,0,1-13.86-5.76,4.91,4.91,0,0,1,.59,2.35,5,5,0,0,1-5,5,5.11,5.11,0,0,1-2-.39,32.52,32.52,0,0,0,19.93,8.24A5,5,0,0,1,203.66,297.21Zm3.5-51.2a5,5,0,0,1-.33-9.46,32.51,32.51,0,0,0-19.9,8.24,5.11,5.11,0,0,1,2-.39,5,5,0,0,1,5,5,4.91,4.91,0,0,1-.59,2.35A23.08,23.08,0,0,1,207.16,246Zm-18.27,8.44a5,5,0,0,1-5-5,5.08,5.08,0,0,1,.39-2,32.51,32.51,0,0,0-8.23,19.9,5,5,0,0,1,9.47.34,23,23,0,0,1,5.75-13.85A5,5,0,0,1,188.89,254.45Zm-3.4,16.27a5,5,0,0,1-9.47.35,32.54,32.54,0,0,0,8.23,19.9,5.11,5.11,0,0,1-.39-2,5,5,0,0,1,7.38-4.43A23.11,23.11,0,0,1,185.49,270.72Zm23.19-23.36a21.86,21.86,0,1,0,21.86,21.85A21.87,21.87,0,0,0,208.68,247.36Zm0,41.12a19.26,19.26,0,1,1,19.26-19.27A19.26,19.26,0,0,1,208.68,288.48Zm24.41-41a4.89,4.89,0,0,1,.41,2,5,5,0,0,1-5,5,4.94,4.94,0,0,1-2.34-.58,23.07,23.07,0,0,1,5.74,13.82,5.06,5.06,0,0,1,4.8-3.5,5,5,0,0,1,4.67,3.21A32.55,32.55,0,0,0,233.09,247.44Zm8.26,23.6a5,5,0,0,1-9.47-.3,23,23,0,0,1-5.76,13.84A5,5,0,0,1,233.5,289a4.89,4.89,0,0,1-.41,2A32.56,32.56,0,0,0,241.35,271Zm-30.81-34.49a5,5,0,0,1-.34,9.46A23.17,23.17,0,0,1,224,251.76a4.85,4.85,0,0,1-.58-2.33,5,5,0,0,1,5-5,5,5,0,0,1,2,.4A32.59,32.59,0,0,0,210.54,236.55Zm0,65.34a32.53,32.53,0,0,0,19.94-8.25,5,5,0,0,1-2,.4,5,5,0,0,1-5-5,4.91,4.91,0,0,1,.59-2.35,23.21,23.21,0,0,1-13.86,5.76,5,5,0,0,1,.33,9.47Zm-1.83-54.53a21.86,21.86,0,1,0,21.86,21.85A21.87,21.87,0,0,0,208.68,247.36Zm0,41.12a19.26,19.26,0,1,1,19.26-19.27A19.26,19.26,0,0,1,208.68,288.48Zm-5,8.73a5,5,0,0,1,3.52-4.79,23.18,23.18,0,0,1-13.86-5.76,4.91,4.91,0,0,1,.59,2.35,5,5,0,0,1-5,5,5.11,5.11,0,0,1-2-.39,32.52,32.52,0,0,0,19.93,8.24A5,5,0,0,1,203.66,297.21Zm3.5-51.2a5,5,0,0,1-.33-9.46,32.51,32.51,0,0,0-19.9,8.24,5.11,5.11,0,0,1,2-.39,5,5,0,0,1,5,5,4.91,4.91,0,0,1-.59,2.35A23.08,23.08,0,0,1,207.16,246Zm-18.27,8.44a5,5,0,0,1-5-5,5.08,5.08,0,0,1,.39-2,32.51,32.51,0,0,0-8.23,19.9,5,5,0,0,1,9.47.34,23,23,0,0,1,5.75-13.85A5,5,0,0,1,188.89,254.45Zm-3.4,16.27a5,5,0,0,1-9.47.35,32.54,32.54,0,0,0,8.23,19.9,5.11,5.11,0,0,1-.39-2,5,5,0,0,1,7.38-4.43A23.11,23.11,0,0,1,185.49,270.72Zm23.19-23.36a21.86,21.86,0,1,0,21.86,21.85A21.87,21.87,0,0,0,208.68,247.36Zm0,41.12a19.26,19.26,0,1,1,19.26-19.27A19.26,19.26,0,0,1,208.68,288.48Zm24.41-41a4.89,4.89,0,0,1,.41,2,5,5,0,0,1-5,5,4.94,4.94,0,0,1-2.34-.58,23.07,23.07,0,0,1,5.74,13.82,5.06,5.06,0,0,1,4.8-3.5,5,5,0,0,1,4.67,3.21A32.55,32.55,0,0,0,233.09,247.44Zm8.26,23.6a5,5,0,0,1-9.47-.3,23,23,0,0,1-5.76,13.84A5,5,0,0,1,233.5,289a4.89,4.89,0,0,1-.41,2A32.56,32.56,0,0,0,241.35,271Zm-30.81-34.49a5,5,0,0,1-.34,9.46A23.17,23.17,0,0,1,224,251.76a4.85,4.85,0,0,1-.58-2.33,5,5,0,0,1,5-5,5,5,0,0,1,2,.4A32.59,32.59,0,0,0,210.54,236.55Zm0,65.34a32.53,32.53,0,0,0,19.94-8.25,5,5,0,0,1-2,.4,5,5,0,0,1-5-5,4.91,4.91,0,0,1,.59-2.35,23.21,23.21,0,0,1-13.86,5.76,5,5,0,0,1,.33,9.47Zm-1.83-54.53a21.86,21.86,0,1,0,21.86,21.85A21.87,21.87,0,0,0,208.68,247.36Zm0,41.12a19.26,19.26,0,1,1,19.26-19.27A19.26,19.26,0,0,1,208.68,288.48Zm-5,8.73a5,5,0,0,1,3.52-4.79,23.18,23.18,0,0,1-13.86-5.76,4.91,4.91,0,0,1,.59,2.35,5,5,0,0,1-5,5,5.11,5.11,0,0,1-2-.39,32.52,32.52,0,0,0,19.93,8.24A5,5,0,0,1,203.66,297.21Zm3.5-51.2a5,5,0,0,1-.33-9.46,32.51,32.51,0,0,0-19.9,8.24,5.11,5.11,0,0,1,2-.39,5,5,0,0,1,5,5,4.91,4.91,0,0,1-.59,2.35A23.08,23.08,0,0,1,207.16,246Zm-18.27,8.44a5,5,0,0,1-5-5,5.08,5.08,0,0,1,.39-2,32.51,32.51,0,0,0-8.23,19.9,5,5,0,0,1,9.47.34,23,23,0,0,1,5.75-13.85A5,5,0,0,1,188.89,254.45Zm-3.4,16.27a5,5,0,0,1-9.47.35,32.54,32.54,0,0,0,8.23,19.9,5.11,5.11,0,0,1-.39-2,5,5,0,0,1,7.38-4.43A23.11,23.11,0,0,1,185.49,270.72Zm23.19-23.36a21.86,21.86,0,1,0,21.86,21.85A21.87,21.87,0,0,0,208.68,247.36Zm0,41.12a19.26,19.26,0,1,1,19.26-19.27A19.26,19.26,0,0,1,208.68,288.48Zm24.41-41a4.89,4.89,0,0,1,.41,2,5,5,0,0,1-5,5,4.94,4.94,0,0,1-2.34-.58,23.07,23.07,0,0,1,5.74,13.82,5.06,5.06,0,0,1,4.8-3.5,5,5,0,0,1,4.67,3.21A32.55,32.55,0,0,0,233.09,247.44Zm8.26,23.6a5,5,0,0,1-9.47-.3,23,23,0,0,1-5.76,13.84A5,5,0,0,1,233.5,289a4.89,4.89,0,0,1-.41,2A32.56,32.56,0,0,0,241.35,271Zm-30.81-34.49a5,5,0,0,1-.34,9.46A23.17,23.17,0,0,1,224,251.76a4.85,4.85,0,0,1-.58-2.33,5,5,0,0,1,5-5,5,5,0,0,1,2,.4A32.59,32.59,0,0,0,210.54,236.55Zm0,65.34a32.53,32.53,0,0,0,19.94-8.25,5,5,0,0,1-2,.4,5,5,0,0,1-5-5,4.91,4.91,0,0,1,.59-2.35,23.21,23.21,0,0,1-13.86,5.76,5,5,0,0,1,.33,9.47Zm-1.83-54.53a21.86,21.86,0,1,0,21.86,21.85A21.87,21.87,0,0,0,208.68,247.36Zm0,41.12a19.26,19.26,0,1,1,19.26-19.27A19.26,19.26,0,0,1,208.68,288.48Zm-5,8.73a5,5,0,0,1,3.52-4.79,23.18,23.18,0,0,1-13.86-5.76,4.91,4.91,0,0,1,.59,2.35,5,5,0,0,1-5,5,5.11,5.11,0,0,1-2-.39,32.52,32.52,0,0,0,19.93,8.24A5,5,0,0,1,203.66,297.21Zm3.5-51.2a5,5,0,0,1-.33-9.46,32.51,32.51,0,0,0-19.9,8.24,5.11,5.11,0,0,1,2-.39,5,5,0,0,1,5,5,4.91,4.91,0,0,1-.59,2.35A23.08,23.08,0,0,1,207.16,246Zm-18.27,8.44a5,5,0,0,1-5-5,5.08,5.08,0,0,1,.39-2,32.51,32.51,0,0,0-8.23,19.9,5,5,0,0,1,9.47.34,23,23,0,0,1,5.75-13.85A5,5,0,0,1,188.89,254.45Zm-3.4,16.27a5,5,0,0,1-9.47.35,32.54,32.54,0,0,0,8.23,19.9,5.11,5.11,0,0,1-.39-2,5,5,0,0,1,7.38-4.43A23.11,23.11,0,0,1,185.49,270.72Zm23.19-23.36a21.86,21.86,0,1,0,21.86,21.85A21.87,21.87,0,0,0,208.68,247.36Zm0,41.12a19.26,19.26,0,1,1,19.26-19.27A19.26,19.26,0,0,1,208.68,288.48Zm24.41-41a4.89,4.89,0,0,1,.41,2,5,5,0,0,1-5,5,4.94,4.94,0,0,1-2.34-.58,23.07,23.07,0,0,1,5.74,13.82,5.06,5.06,0,0,1,4.8-3.5,5,5,0,0,1,4.67,3.21A32.55,32.55,0,0,0,233.09,247.44Zm8.26,23.6a5,5,0,0,1-9.47-.3,23,23,0,0,1-5.76,13.84A5,5,0,0,1,233.5,289a4.89,4.89,0,0,1-.41,2A32.56,32.56,0,0,0,241.35,271Zm-30.81-34.49a5,5,0,0,1-.34,9.46A23.17,23.17,0,0,1,224,251.76a4.85,4.85,0,0,1-.58-2.33,5,5,0,0,1,5-5,5,5,0,0,1,2,.4A32.59,32.59,0,0,0,210.54,236.55Zm0,65.34a32.53,32.53,0,0,0,19.94-8.25,5,5,0,0,1-2,.4,5,5,0,0,1-5-5,4.91,4.91,0,0,1,.59-2.35,23.21,23.21,0,0,1-13.86,5.76,5,5,0,0,1,.33,9.47Zm-1.83-54.53a21.86,21.86,0,1,0,21.86,21.85A21.87,21.87,0,0,0,208.68,247.36Zm0,41.12a19.26,19.26,0,1,1,19.26-19.27A19.26,19.26,0,0,1,208.68,288.48Zm-5,8.73a5,5,0,0,1,3.52-4.79,23.18,23.18,0,0,1-13.86-5.76,4.91,4.91,0,0,1,.59,2.35,5,5,0,0,1-5,5,5.11,5.11,0,0,1-2-.39,32.52,32.52,0,0,0,19.93,8.24A5,5,0,0,1,203.66,297.21Zm3.5-51.2a5,5,0,0,1-.33-9.46,32.51,32.51,0,0,0-19.9,8.24,5.11,5.11,0,0,1,2-.39,5,5,0,0,1,5,5,4.91,4.91,0,0,1-.59,2.35A23.08,23.08,0,0,1,207.16,246Zm-18.27,8.44a5,5,0,0,1-5-5,5.08,5.08,0,0,1,.39-2,32.51,32.51,0,0,0-8.23,19.9,5,5,0,0,1,9.47.34,23,23,0,0,1,5.75-13.85A5,5,0,0,1,188.89,254.45Zm-3.4,16.27a5,5,0,0,1-9.47.35,32.54,32.54,0,0,0,8.23,19.9,5.11,5.11,0,0,1-.39-2,5,5,0,0,1,7.38-4.43A23.11,23.11,0,0,1,185.49,270.72Zm0,0a5,5,0,0,1-9.47.35,32.54,32.54,0,0,0,8.23,19.9,5.11,5.11,0,0,1-.39-2,5,5,0,0,1,7.38-4.43A23.11,23.11,0,0,1,185.49,270.72Zm3.4-16.27a5,5,0,0,1-5-5,5.08,5.08,0,0,1,.39-2,32.51,32.51,0,0,0-8.23,19.9,5,5,0,0,1,9.47.34,23,23,0,0,1,5.75-13.85A5,5,0,0,1,188.89,254.45ZM207.16,246a5,5,0,0,1-.33-9.46,32.51,32.51,0,0,0-19.9,8.24,5.11,5.11,0,0,1,2-.39,5,5,0,0,1,5,5,4.91,4.91,0,0,1-.59,2.35A23.08,23.08,0,0,1,207.16,246Zm-3.5,51.2a5,5,0,0,1,3.52-4.79,23.18,23.18,0,0,1-13.86-5.76,4.91,4.91,0,0,1,.59,2.35,5,5,0,0,1-5,5,5.11,5.11,0,0,1-2-.39,32.52,32.52,0,0,0,19.93,8.24A5,5,0,0,1,203.66,297.21Zm5-49.85a21.86,21.86,0,1,0,21.86,21.85A21.87,21.87,0,0,0,208.68,247.36Zm0,41.12a19.26,19.26,0,1,1,19.26-19.27A19.26,19.26,0,0,1,208.68,288.48Zm1.83,13.41a32.53,32.53,0,0,0,19.94-8.25,5,5,0,0,1-2,.4,5,5,0,0,1-5-5,4.91,4.91,0,0,1,.59-2.35,23.21,23.21,0,0,1-13.86,5.76,5,5,0,0,1,.33,9.47Zm0-65.34a5,5,0,0,1-.34,9.46A23.17,23.17,0,0,1,224,251.76a4.85,4.85,0,0,1-.58-2.33,5,5,0,0,1,5-5,5,5,0,0,1,2,.4A32.59,32.59,0,0,0,210.54,236.55ZM241.35,271a5,5,0,0,1-9.47-.3,23,23,0,0,1-5.76,13.84A5,5,0,0,1,233.5,289a4.89,4.89,0,0,1-.41,2A32.56,32.56,0,0,0,241.35,271Zm-8.26-23.6a4.89,4.89,0,0,1,.41,2,5,5,0,0,1-5,5,4.94,4.94,0,0,1-2.34-.58,23.07,23.07,0,0,1,5.74,13.82,5.06,5.06,0,0,1,4.8-3.5,5,5,0,0,1,4.67,3.21A32.55,32.55,0,0,0,233.09,247.44Zm0,0a4.89,4.89,0,0,1,.41,2,5,5,0,0,1-5,5,4.94,4.94,0,0,1-2.34-.58,23.07,23.07,0,0,1,5.74,13.82,5.06,5.06,0,0,1,4.8-3.5,5,5,0,0,1,4.67,3.21A32.55,32.55,0,0,0,233.09,247.44Zm8.26,23.6a5,5,0,0,1-9.47-.3,23,23,0,0,1-5.76,13.84A5,5,0,0,1,233.5,289a4.89,4.89,0,0,1-.41,2A32.56,32.56,0,0,0,241.35,271Zm-30.81-34.49a5,5,0,0,1-.34,9.46A23.17,23.17,0,0,1,224,251.76a4.85,4.85,0,0,1-.58-2.33,5,5,0,0,1,5-5,5,5,0,0,1,2,.4A32.59,32.59,0,0,0,210.54,236.55Zm0,65.34a32.53,32.53,0,0,0,19.94-8.25,5,5,0,0,1-2,.4,5,5,0,0,1-5-5,4.91,4.91,0,0,1,.59-2.35,23.21,23.21,0,0,1-13.86,5.76,5,5,0,0,1,.33,9.47Zm-1.83-54.53a21.86,21.86,0,1,0,21.86,21.85A21.87,21.87,0,0,0,208.68,247.36Zm0,41.12a19.26,19.26,0,1,1,19.26-19.27A19.26,19.26,0,0,1,208.68,288.48Zm-5,8.73a5,5,0,0,1,3.52-4.79,23.18,23.18,0,0,1-13.86-5.76,4.91,4.91,0,0,1,.59,2.35,5,5,0,0,1-5,5,5.11,5.11,0,0,1-2-.39,32.52,32.52,0,0,0,19.93,8.24A5,5,0,0,1,203.66,297.21Zm3.5-51.2a5,5,0,0,1-.33-9.46,32.51,32.51,0,0,0-19.9,8.24,5.11,5.11,0,0,1,2-.39,5,5,0,0,1,5,5,4.91,4.91,0,0,1-.59,2.35A23.08,23.08,0,0,1,207.16,246Zm-18.27,8.44a5,5,0,0,1-5-5,5.08,5.08,0,0,1,.39-2,32.51,32.51,0,0,0-8.23,19.9,5,5,0,0,1,9.47.34,23,23,0,0,1,5.75-13.85A5,5,0,0,1,188.89,254.45Zm-3.4,16.27a5,5,0,0,1-9.47.35,32.54,32.54,0,0,0,8.23,19.9,5.11,5.11,0,0,1-.39-2,5,5,0,0,1,7.38-4.43A23.11,23.11,0,0,1,185.49,270.72Zm0,0a5,5,0,0,1-9.47.35,32.54,32.54,0,0,0,8.23,19.9,5.11,5.11,0,0,1-.39-2,5,5,0,0,1,7.38-4.43A23.11,23.11,0,0,1,185.49,270.72Zm3.4-16.27a5,5,0,0,1-5-5,5.08,5.08,0,0,1,.39-2,32.51,32.51,0,0,0-8.23,19.9,5,5,0,0,1,9.47.34,23,23,0,0,1,5.75-13.85A5,5,0,0,1,188.89,254.45ZM207.16,246a5,5,0,0,1-.33-9.46,32.51,32.51,0,0,0-19.9,8.24,5.11,5.11,0,0,1,2-.39,5,5,0,0,1,5,5,4.91,4.91,0,0,1-.59,2.35A23.08,23.08,0,0,1,207.16,246Zm-3.5,51.2a5,5,0,0,1,3.52-4.79,23.18,23.18,0,0,1-13.86-5.76,4.91,4.91,0,0,1,.59,2.35,5,5,0,0,1-5,5,5.11,5.11,0,0,1-2-.39,32.52,32.52,0,0,0,19.93,8.24A5,5,0,0,1,203.66,297.21Zm5-49.85a21.86,21.86,0,1,0,21.86,21.85A21.87,21.87,0,0,0,208.68,247.36Zm0,41.12a19.26,19.26,0,1,1,19.26-19.27A19.26,19.26,0,0,1,208.68,288.48Zm1.83,13.41a32.53,32.53,0,0,0,19.94-8.25,5,5,0,0,1-2,.4,5,5,0,0,1-5-5,4.91,4.91,0,0,1,.59-2.35,23.21,23.21,0,0,1-13.86,5.76,5,5,0,0,1,.33,9.47Zm0-65.34a5,5,0,0,1-.34,9.46A23.17,23.17,0,0,1,224,251.76a4.85,4.85,0,0,1-.58-2.33,5,5,0,0,1,5-5,5,5,0,0,1,2,.4A32.59,32.59,0,0,0,210.54,236.55ZM241.35,271a5,5,0,0,1-9.47-.3,23,23,0,0,1-5.76,13.84A5,5,0,0,1,233.5,289a4.89,4.89,0,0,1-.41,2A32.56,32.56,0,0,0,241.35,271Zm-8.26-23.6a4.89,4.89,0,0,1,.41,2,5,5,0,0,1-5,5,4.94,4.94,0,0,1-2.34-.58,23.07,23.07,0,0,1,5.74,13.82,5.06,5.06,0,0,1,4.8-3.5,5,5,0,0,1,4.67,3.21A32.55,32.55,0,0,0,233.09,247.44Zm0,0a4.89,4.89,0,0,1,.41,2,5,5,0,0,1-5,5,4.94,4.94,0,0,1-2.34-.58,23.07,23.07,0,0,1,5.74,13.82,5.06,5.06,0,0,1,4.8-3.5,5,5,0,0,1,4.67,3.21A32.55,32.55,0,0,0,233.09,247.44Zm8.26,23.6a5,5,0,0,1-9.47-.3,23,23,0,0,1-5.76,13.84A5,5,0,0,1,233.5,289a4.89,4.89,0,0,1-.41,2A32.56,32.56,0,0,0,241.35,271Zm-30.81-34.49a5,5,0,0,1-.34,9.46A23.17,23.17,0,0,1,224,251.76a4.85,4.85,0,0,1-.58-2.33,5,5,0,0,1,5-5,5,5,0,0,1,2,.4A32.59,32.59,0,0,0,210.54,236.55Zm0,65.34a32.53,32.53,0,0,0,19.94-8.25,5,5,0,0,1-2,.4,5,5,0,0,1-5-5,4.91,4.91,0,0,1,.59-2.35,23.21,23.21,0,0,1-13.86,5.76,5,5,0,0,1,.33,9.47Zm-1.83-54.53a21.86,21.86,0,1,0,21.86,21.85A21.87,21.87,0,0,0,208.68,247.36Zm0,41.12a19.26,19.26,0,1,1,19.26-19.27A19.26,19.26,0,0,1,208.68,288.48Zm-5,8.73a5,5,0,0,1,3.52-4.79,23.18,23.18,0,0,1-13.86-5.76,4.91,4.91,0,0,1,.59,2.35,5,5,0,0,1-5,5,5.11,5.11,0,0,1-2-.39,32.52,32.52,0,0,0,19.93,8.24A5,5,0,0,1,203.66,297.21Zm3.5-51.2a5,5,0,0,1-.33-9.46,32.51,32.51,0,0,0-19.9,8.24,5.11,5.11,0,0,1,2-.39,5,5,0,0,1,5,5,4.91,4.91,0,0,1-.59,2.35A23.08,23.08,0,0,1,207.16,246Zm-18.27,8.44a5,5,0,0,1-5-5,5.08,5.08,0,0,1,.39-2,32.51,32.51,0,0,0-8.23,19.9,5,5,0,0,1,9.47.34,23,23,0,0,1,5.75-13.85A5,5,0,0,1,188.89,254.45Zm-3.4,16.27a5,5,0,0,1-9.47.35,32.54,32.54,0,0,0,8.23,19.9,5.11,5.11,0,0,1-.39-2,5,5,0,0,1,7.38-4.43A23.11,23.11,0,0,1,185.49,270.72Zm0,0a5,5,0,0,1-9.47.35,32.54,32.54,0,0,0,8.23,19.9,5.11,5.11,0,0,1-.39-2,5,5,0,0,1,7.38-4.43A23.11,23.11,0,0,1,185.49,270.72Zm3.4-16.27a5,5,0,0,1-5-5,5.08,5.08,0,0,1,.39-2,32.51,32.51,0,0,0-8.23,19.9,5,5,0,0,1,9.47.34,23,23,0,0,1,5.75-13.85A5,5,0,0,1,188.89,254.45ZM207.16,246a5,5,0,0,1-.33-9.46,32.51,32.51,0,0,0-19.9,8.24,5.11,5.11,0,0,1,2-.39,5,5,0,0,1,5,5,4.91,4.91,0,0,1-.59,2.35A23.08,23.08,0,0,1,207.16,246Zm-3.5,51.2a5,5,0,0,1,3.52-4.79,23.18,23.18,0,0,1-13.86-5.76,4.91,4.91,0,0,1,.59,2.35,5,5,0,0,1-5,5,5.11,5.11,0,0,1-2-.39,32.52,32.52,0,0,0,19.93,8.24A5,5,0,0,1,203.66,297.21Zm5-49.85a21.86,21.86,0,1,0,21.86,21.85A21.87,21.87,0,0,0,208.68,247.36Zm0,41.12a19.26,19.26,0,1,1,19.26-19.27A19.26,19.26,0,0,1,208.68,288.48Zm1.83,13.41a32.53,32.53,0,0,0,19.94-8.25,5,5,0,0,1-2,.4,5,5,0,0,1-5-5,4.91,4.91,0,0,1,.59-2.35,23.21,23.21,0,0,1-13.86,5.76,5,5,0,0,1,.33,9.47Zm0-65.34a5,5,0,0,1-.34,9.46A23.17,23.17,0,0,1,224,251.76a4.85,4.85,0,0,1-.58-2.33,5,5,0,0,1,5-5,5,5,0,0,1,2,.4A32.59,32.59,0,0,0,210.54,236.55ZM241.35,271a5,5,0,0,1-9.47-.3,23,23,0,0,1-5.76,13.84A5,5,0,0,1,233.5,289a4.89,4.89,0,0,1-.41,2A32.56,32.56,0,0,0,241.35,271Zm-8.26-23.6a4.89,4.89,0,0,1,.41,2,5,5,0,0,1-5,5,4.94,4.94,0,0,1-2.34-.58,23.07,23.07,0,0,1,5.74,13.82,5.06,5.06,0,0,1,4.8-3.5,5,5,0,0,1,4.67,3.21A32.55,32.55,0,0,0,233.09,247.44Zm0,0a4.89,4.89,0,0,1,.41,2,5,5,0,0,1-5,5,4.94,4.94,0,0,1-2.34-.58,23.07,23.07,0,0,1,5.74,13.82,5.06,5.06,0,0,1,4.8-3.5,5,5,0,0,1,4.67,3.21A32.55,32.55,0,0,0,233.09,247.44Zm8.26,23.6a5,5,0,0,1-9.47-.3,23,23,0,0,1-5.76,13.84A5,5,0,0,1,233.5,289a4.89,4.89,0,0,1-.41,2A32.56,32.56,0,0,0,241.35,271Zm-30.81-34.49a5,5,0,0,1-.34,9.46A23.17,23.17,0,0,1,224,251.76a4.85,4.85,0,0,1-.58-2.33,5,5,0,0,1,5-5,5,5,0,0,1,2,.4A32.59,32.59,0,0,0,210.54,236.55Zm0,65.34a32.53,32.53,0,0,0,19.94-8.25,5,5,0,0,1-2,.4,5,5,0,0,1-5-5,4.91,4.91,0,0,1,.59-2.35,23.21,23.21,0,0,1-13.86,5.76,5,5,0,0,1,.33,9.47Zm-1.83-54.53a21.86,21.86,0,1,0,21.86,21.85A21.87,21.87,0,0,0,208.68,247.36Zm0,41.12a19.26,19.26,0,1,1,19.26-19.27A19.26,19.26,0,0,1,208.68,288.48Zm-5,8.73a5,5,0,0,1,3.52-4.79,23.18,23.18,0,0,1-13.86-5.76,4.91,4.91,0,0,1,.59,2.35,5,5,0,0,1-5,5,5.11,5.11,0,0,1-2-.39,32.52,32.52,0,0,0,19.93,8.24A5,5,0,0,1,203.66,297.21Zm3.5-51.2a5,5,0,0,1-.33-9.46,32.51,32.51,0,0,0-19.9,8.24,5.11,5.11,0,0,1,2-.39,5,5,0,0,1,5,5,4.91,4.91,0,0,1-.59,2.35A23.08,23.08,0,0,1,207.16,246Zm-18.27,8.44a5,5,0,0,1-5-5,5.08,5.08,0,0,1,.39-2,32.51,32.51,0,0,0-8.23,19.9,5,5,0,0,1,9.47.34,23,23,0,0,1,5.75-13.85A5,5,0,0,1,188.89,254.45Zm-3.4,16.27a5,5,0,0,1-9.47.35,32.54,32.54,0,0,0,8.23,19.9,5.11,5.11,0,0,1-.39-2,5,5,0,0,1,7.38-4.43A23.11,23.11,0,0,1,185.49,270.72Zm0,0a5,5,0,0,1-9.47.35,32.54,32.54,0,0,0,8.23,19.9,5.11,5.11,0,0,1-.39-2,5,5,0,0,1,7.38-4.43A23.11,23.11,0,0,1,185.49,270.72Zm3.4-16.27a5,5,0,0,1-5-5,5.08,5.08,0,0,1,.39-2,32.51,32.51,0,0,0-8.23,19.9,5,5,0,0,1,9.47.34,23,23,0,0,1,5.75-13.85A5,5,0,0,1,188.89,254.45ZM207.16,246a5,5,0,0,1-.33-9.46,32.51,32.51,0,0,0-19.9,8.24,5.11,5.11,0,0,1,2-.39,5,5,0,0,1,5,5,4.91,4.91,0,0,1-.59,2.35A23.08,23.08,0,0,1,207.16,246Zm-3.5,51.2a5,5,0,0,1,3.52-4.79,23.18,23.18,0,0,1-13.86-5.76,4.91,4.91,0,0,1,.59,2.35,5,5,0,0,1-5,5,5.11,5.11,0,0,1-2-.39,32.52,32.52,0,0,0,19.93,8.24A5,5,0,0,1,203.66,297.21Zm5-49.85a21.86,21.86,0,1,0,21.86,21.85A21.87,21.87,0,0,0,208.68,247.36Zm0,41.12a19.26,19.26,0,1,1,19.26-19.27A19.26,19.26,0,0,1,208.68,288.48Zm1.83,13.41a32.53,32.53,0,0,0,19.94-8.25,5,5,0,0,1-2,.4,5,5,0,0,1-5-5,4.91,4.91,0,0,1,.59-2.35,23.21,23.21,0,0,1-13.86,5.76,5,5,0,0,1,.33,9.47Zm0-65.34a5,5,0,0,1-.34,9.46A23.17,23.17,0,0,1,224,251.76a4.85,4.85,0,0,1-.58-2.33,5,5,0,0,1,5-5,5,5,0,0,1,2,.4A32.59,32.59,0,0,0,210.54,236.55ZM241.35,271a5,5,0,0,1-9.47-.3,23,23,0,0,1-5.76,13.84A5,5,0,0,1,233.5,289a4.89,4.89,0,0,1-.41,2A32.56,32.56,0,0,0,241.35,271Zm-8.26-23.6a4.89,4.89,0,0,1,.41,2,5,5,0,0,1-5,5,4.94,4.94,0,0,1-2.34-.58,23.07,23.07,0,0,1,5.74,13.82,5.06,5.06,0,0,1,4.8-3.5,5,5,0,0,1,4.67,3.21A32.55,32.55,0,0,0,233.09,247.44Zm-4.61,7a4.94,4.94,0,0,1-2.34-.58,23.07,23.07,0,0,1,5.74,13.82,5.06,5.06,0,0,1,4.8-3.5,5,5,0,0,1,4.67,3.21,32.55,32.55,0,0,0-8.26-20,4.89,4.89,0,0,1,.41,2A5,5,0,0,1,228.48,254.45Zm8.2,19.79a5,5,0,0,1-4.8-3.5,23,23,0,0,1-5.76,13.84A5,5,0,0,1,233.5,289a4.89,4.89,0,0,1-.41,2,32.56,32.56,0,0,0,8.26-20A5,5,0,0,1,236.68,274.24ZM210.2,246A23.17,23.17,0,0,1,224,251.76a4.85,4.85,0,0,1-.58-2.33,5,5,0,0,1,5-5,5,5,0,0,1,2,.4,32.59,32.59,0,0,0-19.91-8.25,5,5,0,0,1-.34,9.46Zm13.25,43a4.91,4.91,0,0,1,.59-2.35,23.21,23.21,0,0,1-13.86,5.76,5,5,0,0,1,.33,9.47,32.53,32.53,0,0,0,19.94-8.25,5,5,0,0,1-2,.4A5,5,0,0,1,223.45,289Zm7.09-19.8a21.86,21.86,0,1,0-21.86,21.86A21.88,21.88,0,0,0,230.54,269.21Zm-21.86,19.27a19.26,19.26,0,1,1,19.26-19.27A19.26,19.26,0,0,1,208.68,288.48Zm-1.5,3.94a23.18,23.18,0,0,1-13.86-5.76,4.91,4.91,0,0,1,.59,2.35,5,5,0,0,1-5,5,5.11,5.11,0,0,1-2-.39,32.52,32.52,0,0,0,19.93,8.24,5,5,0,0,1,.32-9.47Zm-13.27-43a4.91,4.91,0,0,1-.59,2.35A23.08,23.08,0,0,1,207.16,246a5,5,0,0,1-.33-9.46,32.51,32.51,0,0,0-19.9,8.24,5.11,5.11,0,0,1,2-.39A5,5,0,0,1,193.91,249.43Zm-13.22,14.76a5.06,5.06,0,0,1,4.8,3.52,23,23,0,0,1,5.75-13.85,5,5,0,0,1-7.38-4.43,5.08,5.08,0,0,1,.39-2,32.51,32.51,0,0,0-8.23,19.9A5,5,0,0,1,180.69,264.19Zm8.2,19.8a5,5,0,0,1,2.35.59,23.11,23.11,0,0,1-5.75-13.86,5,5,0,0,1-9.47.35,32.54,32.54,0,0,0,8.23,19.9,5.11,5.11,0,0,1-.39-2A5,5,0,0,1,188.89,284Zm56.51-15.72v-.18a36.69,36.69,0,1,0-.05,3.41v-.22c.05-.69.07-1.37.07-2.07C245.42,268.9,245.41,268.59,245.4,268.27Zm-36.72,35.07a34.12,34.12,0,1,1,34.13-34.12A34.16,34.16,0,0,1,208.68,303.34Zm19.8-48.89a4.94,4.94,0,0,1-2.34-.58,23.07,23.07,0,0,1,5.74,13.82,5.06,5.06,0,0,1,4.8-3.5,5,5,0,0,1,4.67,3.21,32.55,32.55,0,0,0-8.26-20,4.89,4.89,0,0,1,.41,2A5,5,0,0,1,228.48,254.45Zm8.2,19.79a5,5,0,0,1-4.8-3.5,23,23,0,0,1-5.76,13.84A5,5,0,0,1,233.5,289a4.89,4.89,0,0,1-.41,2,32.56,32.56,0,0,0,8.26-20A5,5,0,0,1,236.68,274.24ZM210.2,246A23.17,23.17,0,0,1,224,251.76a4.85,4.85,0,0,1-.58-2.33,5,5,0,0,1,5-5,5,5,0,0,1,2,.4,32.59,32.59,0,0,0-19.91-8.25,5,5,0,0,1-.34,9.46Zm13.25,43a4.91,4.91,0,0,1,.59-2.35,23.21,23.21,0,0,1-13.86,5.76,5,5,0,0,1,.33,9.47,32.53,32.53,0,0,0,19.94-8.25,5,5,0,0,1-2,.4A5,5,0,0,1,223.45,289Zm7.09-19.8a21.86,21.86,0,1,0-21.86,21.86A21.88,21.88,0,0,0,230.54,269.21Zm-21.86,19.27a19.26,19.26,0,1,1,19.26-19.27A19.26,19.26,0,0,1,208.68,288.48Zm-1.5,3.94a23.18,23.18,0,0,1-13.86-5.76,4.91,4.91,0,0,1,.59,2.35,5,5,0,0,1-5,5,5.11,5.11,0,0,1-2-.39,32.52,32.52,0,0,0,19.93,8.24,5,5,0,0,1,.32-9.47Zm-13.27-43a4.91,4.91,0,0,1-.59,2.35A23.08,23.08,0,0,1,207.16,246a5,5,0,0,1-.33-9.46,32.51,32.51,0,0,0-19.9,8.24,5.11,5.11,0,0,1,2-.39A5,5,0,0,1,193.91,249.43Zm-13.22,14.76a5.06,5.06,0,0,1,4.8,3.52,23,23,0,0,1,5.75-13.85,5,5,0,0,1-7.38-4.43,5.08,5.08,0,0,1,.39-2,32.51,32.51,0,0,0-8.23,19.9A5,5,0,0,1,180.69,264.19Zm10.55,20.39a23.11,23.11,0,0,1-5.75-13.86,5,5,0,0,1-9.47.35,32.54,32.54,0,0,0,8.23,19.9,5.11,5.11,0,0,1-.39-2,5,5,0,0,1,7.38-4.43Zm-5.75-13.86a5,5,0,0,1-9.47.35,32.54,32.54,0,0,0,8.23,19.9,5.11,5.11,0,0,1-.39-2,5,5,0,0,1,7.38-4.43A23.11,23.11,0,0,1,185.49,270.72Zm3.4-16.27a5,5,0,0,1-5-5,5.08,5.08,0,0,1,.39-2,32.51,32.51,0,0,0-8.23,19.9,5,5,0,0,1,9.47.34,23,23,0,0,1,5.75-13.85A5,5,0,0,1,188.89,254.45ZM207.16,246a5,5,0,0,1-.33-9.46,32.51,32.51,0,0,0-19.9,8.24,5.11,5.11,0,0,1,2-.39,5,5,0,0,1,5,5,4.91,4.91,0,0,1-.59,2.35A23.08,23.08,0,0,1,207.16,246Zm-3.5,51.2a5,5,0,0,1,3.52-4.79,23.18,23.18,0,0,1-13.86-5.76,4.91,4.91,0,0,1,.59,2.35,5,5,0,0,1-5,5,5.11,5.11,0,0,1-2-.39,32.52,32.52,0,0,0,19.93,8.24A5,5,0,0,1,203.66,297.21Zm5-49.85a21.86,21.86,0,1,0,21.86,21.85A21.87,21.87,0,0,0,208.68,247.36Zm0,41.12a19.26,19.26,0,1,1,19.26-19.27A19.26,19.26,0,0,1,208.68,288.48Zm1.83,13.41a32.53,32.53,0,0,0,19.94-8.25,5,5,0,0,1-2,.4,5,5,0,0,1-5-5,4.91,4.91,0,0,1,.59-2.35,23.21,23.21,0,0,1-13.86,5.76,5,5,0,0,1,.33,9.47Zm0-65.34a5,5,0,0,1-.34,9.46A23.17,23.17,0,0,1,224,251.76a4.85,4.85,0,0,1-.58-2.33,5,5,0,0,1,5-5,5,5,0,0,1,2,.4A32.59,32.59,0,0,0,210.54,236.55ZM241.35,271a5,5,0,0,1-9.47-.3,23,23,0,0,1-5.76,13.84A5,5,0,0,1,233.5,289a4.89,4.89,0,0,1-.41,2A32.56,32.56,0,0,0,241.35,271Zm-8.26-23.6a4.89,4.89,0,0,1,.41,2,5,5,0,0,1-5,5,4.94,4.94,0,0,1-2.34-.58,23.07,23.07,0,0,1,5.74,13.82,5.06,5.06,0,0,1,4.8-3.5,5,5,0,0,1,4.67,3.21A32.55,32.55,0,0,0,233.09,247.44Zm0,0a4.89,4.89,0,0,1,.41,2,5,5,0,0,1-5,5,4.94,4.94,0,0,1-2.34-.58,23.07,23.07,0,0,1,5.74,13.82,5.06,5.06,0,0,1,4.8-3.5,5,5,0,0,1,4.67,3.21A32.55,32.55,0,0,0,233.09,247.44Zm8.26,23.6a5,5,0,0,1-9.47-.3,23,23,0,0,1-5.76,13.84A5,5,0,0,1,233.5,289a4.89,4.89,0,0,1-.41,2A32.56,32.56,0,0,0,241.35,271Zm-30.81-34.49a5,5,0,0,1-.34,9.46A23.17,23.17,0,0,1,224,251.76a4.85,4.85,0,0,1-.58-2.33,5,5,0,0,1,5-5,5,5,0,0,1,2,.4A32.59,32.59,0,0,0,210.54,236.55Zm0,65.34a32.53,32.53,0,0,0,19.94-8.25,5,5,0,0,1-2,.4,5,5,0,0,1-5-5,4.91,4.91,0,0,1,.59-2.35,23.21,23.21,0,0,1-13.86,5.76,5,5,0,0,1,.33,9.47Zm-1.83-54.53a21.86,21.86,0,1,0,21.86,21.85A21.87,21.87,0,0,0,208.68,247.36Zm0,41.12a19.26,19.26,0,1,1,19.26-19.27A19.26,19.26,0,0,1,208.68,288.48Zm-5,8.73a5,5,0,0,1,3.52-4.79,23.18,23.18,0,0,1-13.86-5.76,4.91,4.91,0,0,1,.59,2.35,5,5,0,0,1-5,5,5.11,5.11,0,0,1-2-.39,32.52,32.52,0,0,0,19.93,8.24A5,5,0,0,1,203.66,297.21Zm3.5-51.2a5,5,0,0,1-.33-9.46,32.51,32.51,0,0,0-19.9,8.24,5.11,5.11,0,0,1,2-.39,5,5,0,0,1,5,5,4.91,4.91,0,0,1-.59,2.35A23.08,23.08,0,0,1,207.16,246Zm-18.27,8.44a5,5,0,0,1-5-5,5.08,5.08,0,0,1,.39-2,32.51,32.51,0,0,0-8.23,19.9,5,5,0,0,1,9.47.34,23,23,0,0,1,5.75-13.85A5,5,0,0,1,188.89,254.45Zm-3.4,16.27a5,5,0,0,1-9.47.35,32.54,32.54,0,0,0,8.23,19.9,5.11,5.11,0,0,1-.39-2,5,5,0,0,1,7.38-4.43A23.11,23.11,0,0,1,185.49,270.72Zm0,0a5,5,0,0,1-9.47.35,32.54,32.54,0,0,0,8.23,19.9,5.11,5.11,0,0,1-.39-2,5,5,0,0,1,7.38-4.43A23.11,23.11,0,0,1,185.49,270.72Zm3.4-16.27a5,5,0,0,1-5-5,5.08,5.08,0,0,1,.39-2,32.51,32.51,0,0,0-8.23,19.9,5,5,0,0,1,9.47.34,23,23,0,0,1,5.75-13.85A5,5,0,0,1,188.89,254.45ZM207.16,246a5,5,0,0,1-.33-9.46,32.51,32.51,0,0,0-19.9,8.24,5.11,5.11,0,0,1,2-.39,5,5,0,0,1,5,5,4.91,4.91,0,0,1-.59,2.35A23.08,23.08,0,0,1,207.16,246Zm-3.5,51.2a5,5,0,0,1,3.52-4.79,23.18,23.18,0,0,1-13.86-5.76,4.91,4.91,0,0,1,.59,2.35,5,5,0,0,1-5,5,5.11,5.11,0,0,1-2-.39,32.52,32.52,0,0,0,19.93,8.24A5,5,0,0,1,203.66,297.21Zm5-49.85a21.86,21.86,0,1,0,21.86,21.85A21.87,21.87,0,0,0,208.68,247.36Zm0,41.12a19.26,19.26,0,1,1,19.26-19.27A19.26,19.26,0,0,1,208.68,288.48Zm1.83,13.41a32.53,32.53,0,0,0,19.94-8.25,5,5,0,0,1-2,.4,5,5,0,0,1-5-5,4.91,4.91,0,0,1,.59-2.35,23.21,23.21,0,0,1-13.86,5.76,5,5,0,0,1,.33,9.47Zm0-65.34a5,5,0,0,1-.34,9.46A23.17,23.17,0,0,1,224,251.76a4.85,4.85,0,0,1-.58-2.33,5,5,0,0,1,5-5,5,5,0,0,1,2,.4A32.59,32.59,0,0,0,210.54,236.55ZM241.35,271a5,5,0,0,1-9.47-.3,23,23,0,0,1-5.76,13.84A5,5,0,0,1,233.5,289a4.89,4.89,0,0,1-.41,2A32.56,32.56,0,0,0,241.35,271Zm-8.26-23.6a4.89,4.89,0,0,1,.41,2,5,5,0,0,1-5,5,4.94,4.94,0,0,1-2.34-.58,23.07,23.07,0,0,1,5.74,13.82,5.06,5.06,0,0,1,4.8-3.5,5,5,0,0,1,4.67,3.21A32.55,32.55,0,0,0,233.09,247.44Zm0,0a4.89,4.89,0,0,1,.41,2,5,5,0,0,1-5,5,4.94,4.94,0,0,1-2.34-.58,23.07,23.07,0,0,1,5.74,13.82,5.06,5.06,0,0,1,4.8-3.5,5,5,0,0,1,4.67,3.21A32.55,32.55,0,0,0,233.09,247.44Zm8.26,23.6a5,5,0,0,1-9.47-.3,23,23,0,0,1-5.76,13.84A5,5,0,0,1,233.5,289a4.89,4.89,0,0,1-.41,2A32.56,32.56,0,0,0,241.35,271Zm-30.81-34.49a5,5,0,0,1-.34,9.46A23.17,23.17,0,0,1,224,251.76a4.85,4.85,0,0,1-.58-2.33,5,5,0,0,1,5-5,5,5,0,0,1,2,.4A32.59,32.59,0,0,0,210.54,236.55Zm0,65.34a32.53,32.53,0,0,0,19.94-8.25,5,5,0,0,1-2,.4,5,5,0,0,1-5-5,4.91,4.91,0,0,1,.59-2.35,23.21,23.21,0,0,1-13.86,5.76,5,5,0,0,1,.33,9.47Zm-1.83-54.53a21.86,21.86,0,1,0,21.86,21.85A21.87,21.87,0,0,0,208.68,247.36Zm0,41.12a19.26,19.26,0,1,1,19.26-19.27A19.26,19.26,0,0,1,208.68,288.48Zm-5,8.73a5,5,0,0,1,3.52-4.79,23.18,23.18,0,0,1-13.86-5.76,4.91,4.91,0,0,1,.59,2.35,5,5,0,0,1-5,5,5.11,5.11,0,0,1-2-.39,32.52,32.52,0,0,0,19.93,8.24A5,5,0,0,1,203.66,297.21Zm3.5-51.2a5,5,0,0,1-.33-9.46,32.51,32.51,0,0,0-19.9,8.24,5.11,5.11,0,0,1,2-.39,5,5,0,0,1,5,5,4.91,4.91,0,0,1-.59,2.35A23.08,23.08,0,0,1,207.16,246Zm-18.27,8.44a5,5,0,0,1-5-5,5.08,5.08,0,0,1,.39-2,32.51,32.51,0,0,0-8.23,19.9,5,5,0,0,1,9.47.34,23,23,0,0,1,5.75-13.85A5,5,0,0,1,188.89,254.45Zm-3.4,16.27a5,5,0,0,1-9.47.35,32.54,32.54,0,0,0,8.23,19.9,5.11,5.11,0,0,1-.39-2,5,5,0,0,1,7.38-4.43A23.11,23.11,0,0,1,185.49,270.72Zm0,0a5,5,0,0,1-9.47.35,32.54,32.54,0,0,0,8.23,19.9,5.11,5.11,0,0,1-.39-2,5,5,0,0,1,7.38-4.43A23.11,23.11,0,0,1,185.49,270.72Zm3.4-16.27a5,5,0,0,1-5-5,5.08,5.08,0,0,1,.39-2,32.51,32.51,0,0,0-8.23,19.9,5,5,0,0,1,9.47.34,23,23,0,0,1,5.75-13.85A5,5,0,0,1,188.89,254.45ZM207.16,246a5,5,0,0,1-.33-9.46,32.51,32.51,0,0,0-19.9,8.24,5.11,5.11,0,0,1,2-.39,5,5,0,0,1,5,5,4.91,4.91,0,0,1-.59,2.35A23.08,23.08,0,0,1,207.16,246Zm-3.5,51.2a5,5,0,0,1,3.52-4.79,23.18,23.18,0,0,1-13.86-5.76,4.91,4.91,0,0,1,.59,2.35,5,5,0,0,1-5,5,5.11,5.11,0,0,1-2-.39,32.52,32.52,0,0,0,19.93,8.24A5,5,0,0,1,203.66,297.21Zm5-49.85a21.86,21.86,0,1,0,21.86,21.85A21.87,21.87,0,0,0,208.68,247.36Zm0,41.12a19.26,19.26,0,1,1,19.26-19.27A19.26,19.26,0,0,1,208.68,288.48Zm1.83,13.41a32.53,32.53,0,0,0,19.94-8.25,5,5,0,0,1-2,.4,5,5,0,0,1-5-5,4.91,4.91,0,0,1,.59-2.35,23.21,23.21,0,0,1-13.86,5.76,5,5,0,0,1,.33,9.47Zm0-65.34a5,5,0,0,1-.34,9.46A23.17,23.17,0,0,1,224,251.76a4.85,4.85,0,0,1-.58-2.33,5,5,0,0,1,5-5,5,5,0,0,1,2,.4A32.59,32.59,0,0,0,210.54,236.55ZM241.35,271a5,5,0,0,1-9.47-.3,23,23,0,0,1-5.76,13.84A5,5,0,0,1,233.5,289a4.89,4.89,0,0,1-.41,2A32.56,32.56,0,0,0,241.35,271Zm-8.26-23.6a4.89,4.89,0,0,1,.41,2,5,5,0,0,1-5,5,4.94,4.94,0,0,1-2.34-.58,23.07,23.07,0,0,1,5.74,13.82,5.06,5.06,0,0,1,4.8-3.5,5,5,0,0,1,4.67,3.21A32.55,32.55,0,0,0,233.09,247.44Zm0,0a4.89,4.89,0,0,1,.41,2,5,5,0,0,1-5,5,4.94,4.94,0,0,1-2.34-.58,23.07,23.07,0,0,1,5.74,13.82,5.06,5.06,0,0,1,4.8-3.5,5,5,0,0,1,4.67,3.21A32.55,32.55,0,0,0,233.09,247.44Zm8.26,23.6a5,5,0,0,1-9.47-.3,23,23,0,0,1-5.76,13.84A5,5,0,0,1,233.5,289a4.89,4.89,0,0,1-.41,2A32.56,32.56,0,0,0,241.35,271Zm-30.81-34.49a5,5,0,0,1-.34,9.46A23.17,23.17,0,0,1,224,251.76a4.85,4.85,0,0,1-.58-2.33,5,5,0,0,1,5-5,5,5,0,0,1,2,.4A32.59,32.59,0,0,0,210.54,236.55Zm0,65.34a32.53,32.53,0,0,0,19.94-8.25,5,5,0,0,1-2,.4,5,5,0,0,1-5-5,4.91,4.91,0,0,1,.59-2.35,23.21,23.21,0,0,1-13.86,5.76,5,5,0,0,1,.33,9.47Zm-1.83-54.53a21.86,21.86,0,1,0,21.86,21.85A21.87,21.87,0,0,0,208.68,247.36Zm0,41.12a19.26,19.26,0,1,1,19.26-19.27A19.26,19.26,0,0,1,208.68,288.48Zm-5,8.73a5,5,0,0,1,3.52-4.79,23.18,23.18,0,0,1-13.86-5.76,4.91,4.91,0,0,1,.59,2.35,5,5,0,0,1-5,5,5.11,5.11,0,0,1-2-.39,32.52,32.52,0,0,0,19.93,8.24A5,5,0,0,1,203.66,297.21Zm3.5-51.2a5,5,0,0,1-.33-9.46,32.51,32.51,0,0,0-19.9,8.24,5.11,5.11,0,0,1,2-.39,5,5,0,0,1,5,5,4.91,4.91,0,0,1-.59,2.35A23.08,23.08,0,0,1,207.16,246Zm-18.27,8.44a5,5,0,0,1-5-5,5.08,5.08,0,0,1,.39-2,32.51,32.51,0,0,0-8.23,19.9,5,5,0,0,1,9.47.34,23,23,0,0,1,5.75-13.85A5,5,0,0,1,188.89,254.45Zm-3.4,16.27a5,5,0,0,1-9.47.35,32.54,32.54,0,0,0,8.23,19.9,5.11,5.11,0,0,1-.39-2,5,5,0,0,1,7.38-4.43A23.11,23.11,0,0,1,185.49,270.72Zm0,0a5,5,0,0,1-9.47.35,32.54,32.54,0,0,0,8.23,19.9,5.11,5.11,0,0,1-.39-2,5,5,0,0,1,7.38-4.43A23.11,23.11,0,0,1,185.49,270.72Zm3.4-16.27a5,5,0,0,1-5-5,5.08,5.08,0,0,1,.39-2,32.51,32.51,0,0,0-8.23,19.9,5,5,0,0,1,9.47.34,23,23,0,0,1,5.75-13.85A5,5,0,0,1,188.89,254.45ZM207.16,246a5,5,0,0,1-.33-9.46,32.51,32.51,0,0,0-19.9,8.24,5.11,5.11,0,0,1,2-.39,5,5,0,0,1,5,5,4.91,4.91,0,0,1-.59,2.35A23.08,23.08,0,0,1,207.16,246Zm-3.5,51.2a5,5,0,0,1,3.52-4.79,23.18,23.18,0,0,1-13.86-5.76,4.91,4.91,0,0,1,.59,2.35,5,5,0,0,1-5,5,5.11,5.11,0,0,1-2-.39,32.52,32.52,0,0,0,19.93,8.24A5,5,0,0,1,203.66,297.21Zm5-49.85a21.86,21.86,0,1,0,21.86,21.85A21.87,21.87,0,0,0,208.68,247.36Zm0,41.12a19.26,19.26,0,1,1,19.26-19.27A19.26,19.26,0,0,1,208.68,288.48Zm1.83,13.41a32.53,32.53,0,0,0,19.94-8.25,5,5,0,0,1-2,.4,5,5,0,0,1-5-5,4.91,4.91,0,0,1,.59-2.35,23.21,23.21,0,0,1-13.86,5.76,5,5,0,0,1,.33,9.47Zm0-65.34a5,5,0,0,1-.34,9.46A23.17,23.17,0,0,1,224,251.76a4.85,4.85,0,0,1-.58-2.33,5,5,0,0,1,5-5,5,5,0,0,1,2,.4A32.59,32.59,0,0,0,210.54,236.55ZM241.35,271a5,5,0,0,1-9.47-.3,23,23,0,0,1-5.76,13.84A5,5,0,0,1,233.5,289a4.89,4.89,0,0,1-.41,2A32.56,32.56,0,0,0,241.35,271Zm-8.26-23.6a4.89,4.89,0,0,1,.41,2,5,5,0,0,1-5,5,4.94,4.94,0,0,1-2.34-.58,23.07,23.07,0,0,1,5.74,13.82,5.06,5.06,0,0,1,4.8-3.5,5,5,0,0,1,4.67,3.21A32.55,32.55,0,0,0,233.09,247.44Zm-24.41-.08a21.86,21.86,0,1,0,21.86,21.85A21.87,21.87,0,0,0,208.68,247.36Zm0,41.12a19.26,19.26,0,1,1,19.26-19.27A19.26,19.26,0,0,1,208.68,288.48Zm24.41-41a4.89,4.89,0,0,1,.41,2,5,5,0,0,1-5,5,4.94,4.94,0,0,1-2.34-.58,23.07,23.07,0,0,1,5.74,13.82,5.06,5.06,0,0,1,4.8-3.5,5,5,0,0,1,4.67,3.21A32.55,32.55,0,0,0,233.09,247.44Zm8.26,23.6a5,5,0,0,1-9.47-.3,23,23,0,0,1-5.76,13.84A5,5,0,0,1,233.5,289a4.89,4.89,0,0,1-.41,2A32.56,32.56,0,0,0,241.35,271Zm-30.81-34.49a5,5,0,0,1-.34,9.46A23.17,23.17,0,0,1,224,251.76a4.85,4.85,0,0,1-.58-2.33,5,5,0,0,1,5-5,5,5,0,0,1,2,.4A32.59,32.59,0,0,0,210.54,236.55Zm0,65.34a32.53,32.53,0,0,0,19.94-8.25,5,5,0,0,1-2,.4,5,5,0,0,1-5-5,4.91,4.91,0,0,1,.59-2.35,23.21,23.21,0,0,1-13.86,5.76,5,5,0,0,1,.33,9.47Zm-1.83-54.53a21.86,21.86,0,1,0,21.86,21.85A21.87,21.87,0,0,0,208.68,247.36Zm0,41.12a19.26,19.26,0,1,1,19.26-19.27A19.26,19.26,0,0,1,208.68,288.48Zm-5,8.73a5,5,0,0,1,3.52-4.79,23.18,23.18,0,0,1-13.86-5.76,4.91,4.91,0,0,1,.59,2.35,5,5,0,0,1-5,5,5.11,5.11,0,0,1-2-.39,32.52,32.52,0,0,0,19.93,8.24A5,5,0,0,1,203.66,297.21Zm3.5-51.2a5,5,0,0,1-.33-9.46,32.51,32.51,0,0,0-19.9,8.24,5.11,5.11,0,0,1,2-.39,5,5,0,0,1,5,5,4.91,4.91,0,0,1-.59,2.35A23.08,23.08,0,0,1,207.16,246Zm-18.27,8.44a5,5,0,0,1-5-5,5.08,5.08,0,0,1,.39-2,32.51,32.51,0,0,0-8.23,19.9,5,5,0,0,1,9.47.34,23,23,0,0,1,5.75-13.85A5,5,0,0,1,188.89,254.45Zm-3.4,16.27a5,5,0,0,1-9.47.35,32.54,32.54,0,0,0,8.23,19.9,5.11,5.11,0,0,1-.39-2,5,5,0,0,1,7.38-4.43A23.11,23.11,0,0,1,185.49,270.72Zm23.19-23.36a21.86,21.86,0,1,0,21.86,21.85A21.87,21.87,0,0,0,208.68,247.36Zm0,41.12a19.26,19.26,0,1,1,19.26-19.27A19.26,19.26,0,0,1,208.68,288.48Zm24.41-41a4.89,4.89,0,0,1,.41,2,5,5,0,0,1-5,5,4.94,4.94,0,0,1-2.34-.58,23.07,23.07,0,0,1,5.74,13.82,5.06,5.06,0,0,1,4.8-3.5,5,5,0,0,1,4.67,3.21A32.55,32.55,0,0,0,233.09,247.44Zm8.26,23.6a5,5,0,0,1-9.47-.3,23,23,0,0,1-5.76,13.84A5,5,0,0,1,233.5,289a4.89,4.89,0,0,1-.41,2A32.56,32.56,0,0,0,241.35,271Zm-30.81-34.49a5,5,0,0,1-.34,9.46A23.17,23.17,0,0,1,224,251.76a4.85,4.85,0,0,1-.58-2.33,5,5,0,0,1,5-5,5,5,0,0,1,2,.4A32.59,32.59,0,0,0,210.54,236.55Zm0,65.34a32.53,32.53,0,0,0,19.94-8.25,5,5,0,0,1-2,.4,5,5,0,0,1-5-5,4.91,4.91,0,0,1,.59-2.35,23.21,23.21,0,0,1-13.86,5.76,5,5,0,0,1,.33,9.47Zm-1.83-54.53a21.86,21.86,0,1,0,21.86,21.85A21.87,21.87,0,0,0,208.68,247.36Zm0,41.12a19.26,19.26,0,1,1,19.26-19.27A19.26,19.26,0,0,1,208.68,288.48Zm-5,8.73a5,5,0,0,1,3.52-4.79,23.18,23.18,0,0,1-13.86-5.76,4.91,4.91,0,0,1,.59,2.35,5,5,0,0,1-5,5,5.11,5.11,0,0,1-2-.39,32.52,32.52,0,0,0,19.93,8.24A5,5,0,0,1,203.66,297.21Zm3.5-51.2a5,5,0,0,1-.33-9.46,32.51,32.51,0,0,0-19.9,8.24,5.11,5.11,0,0,1,2-.39,5,5,0,0,1,5,5,4.91,4.91,0,0,1-.59,2.35A23.08,23.08,0,0,1,207.16,246Zm-18.27,8.44a5,5,0,0,1-5-5,5.08,5.08,0,0,1,.39-2,32.51,32.51,0,0,0-8.23,19.9,5,5,0,0,1,9.47.34,23,23,0,0,1,5.75-13.85A5,5,0,0,1,188.89,254.45Zm-3.4,16.27a5,5,0,0,1-9.47.35,32.54,32.54,0,0,0,8.23,19.9,5.11,5.11,0,0,1-.39-2,5,5,0,0,1,7.38-4.43A23.11,23.11,0,0,1,185.49,270.72Zm23.19-23.36a21.86,21.86,0,1,0,21.86,21.85A21.87,21.87,0,0,0,208.68,247.36Zm0,41.12a19.26,19.26,0,1,1,19.26-19.27A19.26,19.26,0,0,1,208.68,288.48Zm24.41-41a4.89,4.89,0,0,1,.41,2,5,5,0,0,1-5,5,4.94,4.94,0,0,1-2.34-.58,23.07,23.07,0,0,1,5.74,13.82,5.06,5.06,0,0,1,4.8-3.5,5,5,0,0,1,4.67,3.21A32.55,32.55,0,0,0,233.09,247.44Zm8.26,23.6a5,5,0,0,1-9.47-.3,23,23,0,0,1-5.76,13.84A5,5,0,0,1,233.5,289a4.89,4.89,0,0,1-.41,2A32.56,32.56,0,0,0,241.35,271Zm-30.81-34.49a5,5,0,0,1-.34,9.46A23.17,23.17,0,0,1,224,251.76a4.85,4.85,0,0,1-.58-2.33,5,5,0,0,1,5-5,5,5,0,0,1,2,.4A32.59,32.59,0,0,0,210.54,236.55Zm0,65.34a32.53,32.53,0,0,0,19.94-8.25,5,5,0,0,1-2,.4,5,5,0,0,1-5-5,4.91,4.91,0,0,1,.59-2.35,23.21,23.21,0,0,1-13.86,5.76,5,5,0,0,1,.33,9.47Zm-1.83-54.53a21.86,21.86,0,1,0,21.86,21.85A21.87,21.87,0,0,0,208.68,247.36Zm0,41.12a19.26,19.26,0,1,1,19.26-19.27A19.26,19.26,0,0,1,208.68,288.48Zm-5,8.73a5,5,0,0,1,3.52-4.79,23.18,23.18,0,0,1-13.86-5.76,4.91,4.91,0,0,1,.59,2.35,5,5,0,0,1-5,5,5.11,5.11,0,0,1-2-.39,32.52,32.52,0,0,0,19.93,8.24A5,5,0,0,1,203.66,297.21Zm3.5-51.2a5,5,0,0,1-.33-9.46,32.51,32.51,0,0,0-19.9,8.24,5.11,5.11,0,0,1,2-.39,5,5,0,0,1,5,5,4.91,4.91,0,0,1-.59,2.35A23.08,23.08,0,0,1,207.16,246Zm-18.27,8.44a5,5,0,0,1-5-5,5.08,5.08,0,0,1,.39-2,32.51,32.51,0,0,0-8.23,19.9,5,5,0,0,1,9.47.34,23,23,0,0,1,5.75-13.85A5,5,0,0,1,188.89,254.45Zm-3.4,16.27a5,5,0,0,1-9.47.35,32.54,32.54,0,0,0,8.23,19.9,5.11,5.11,0,0,1-.39-2,5,5,0,0,1,7.38-4.43A23.11,23.11,0,0,1,185.49,270.72Zm23.19-23.36a21.86,21.86,0,1,0,21.86,21.85A21.87,21.87,0,0,0,208.68,247.36Zm0,41.12a19.26,19.26,0,1,1,19.26-19.27A19.26,19.26,0,0,1,208.68,288.48Zm24.41-41a4.89,4.89,0,0,1,.41,2,5,5,0,0,1-5,5,4.94,4.94,0,0,1-2.34-.58,23.07,23.07,0,0,1,5.74,13.82,5.06,5.06,0,0,1,4.8-3.5,5,5,0,0,1,4.67,3.21A32.55,32.55,0,0,0,233.09,247.44Zm8.26,23.6a5,5,0,0,1-9.47-.3,23,23,0,0,1-5.76,13.84A5,5,0,0,1,233.5,289a4.89,4.89,0,0,1-.41,2A32.56,32.56,0,0,0,241.35,271Zm-30.81-34.49a5,5,0,0,1-.34,9.46A23.17,23.17,0,0,1,224,251.76a4.85,4.85,0,0,1-.58-2.33,5,5,0,0,1,5-5,5,5,0,0,1,2,.4A32.59,32.59,0,0,0,210.54,236.55Zm0,65.34a32.53,32.53,0,0,0,19.94-8.25,5,5,0,0,1-2,.4,5,5,0,0,1-5-5,4.91,4.91,0,0,1,.59-2.35,23.21,23.21,0,0,1-13.86,5.76,5,5,0,0,1,.33,9.47Zm-1.83-54.53a21.86,21.86,0,1,0,21.86,21.85A21.87,21.87,0,0,0,208.68,247.36Zm0,41.12a19.26,19.26,0,1,1,19.26-19.27A19.26,19.26,0,0,1,208.68,288.48Zm-5,8.73a5,5,0,0,1,3.52-4.79,23.18,23.18,0,0,1-13.86-5.76,4.91,4.91,0,0,1,.59,2.35,5,5,0,0,1-5,5,5.11,5.11,0,0,1-2-.39,32.52,32.52,0,0,0,19.93,8.24A5,5,0,0,1,203.66,297.21Zm3.5-51.2a5,5,0,0,1-.33-9.46,32.51,32.51,0,0,0-19.9,8.24,5.11,5.11,0,0,1,2-.39,5,5,0,0,1,5,5,4.91,4.91,0,0,1-.59,2.35A23.08,23.08,0,0,1,207.16,246Zm-18.27,8.44a5,5,0,0,1-5-5,5.08,5.08,0,0,1,.39-2,32.51,32.51,0,0,0-8.23,19.9,5,5,0,0,1,9.47.34,23,23,0,0,1,5.75-13.85A5,5,0,0,1,188.89,254.45Zm-3.4,16.27a5,5,0,0,1-9.47.35,32.54,32.54,0,0,0,8.23,19.9,5.11,5.11,0,0,1-.39-2,5,5,0,0,1,7.38-4.43A23.11,23.11,0,0,1,185.49,270.72Zm23.19-23.36a21.86,21.86,0,1,0,21.86,21.85A21.87,21.87,0,0,0,208.68,247.36Zm0,41.12a19.26,19.26,0,1,1,19.26-19.27A19.26,19.26,0,0,1,208.68,288.48Zm24.41-41a4.89,4.89,0,0,1,.41,2,5,5,0,0,1-5,5,4.94,4.94,0,0,1-2.34-.58,23.07,23.07,0,0,1,5.74,13.82,5.06,5.06,0,0,1,4.8-3.5,5,5,0,0,1,4.67,3.21A32.55,32.55,0,0,0,233.09,247.44Zm8.26,23.6a5,5,0,0,1-9.47-.3,23,23,0,0,1-5.76,13.84A5,5,0,0,1,233.5,289a4.89,4.89,0,0,1-.41,2A32.56,32.56,0,0,0,241.35,271Zm-30.81-34.49a5,5,0,0,1-.34,9.46A23.17,23.17,0,0,1,224,251.76a4.85,4.85,0,0,1-.58-2.33,5,5,0,0,1,5-5,5,5,0,0,1,2,.4A32.59,32.59,0,0,0,210.54,236.55Zm0,65.34a32.53,32.53,0,0,0,19.94-8.25,5,5,0,0,1-2,.4,5,5,0,0,1-5-5,4.91,4.91,0,0,1,.59-2.35,23.21,23.21,0,0,1-13.86,5.76,5,5,0,0,1,.33,9.47Zm-1.83-54.53a21.86,21.86,0,1,0,21.86,21.85A21.87,21.87,0,0,0,208.68,247.36Zm0,41.12a19.26,19.26,0,1,1,19.26-19.27A19.26,19.26,0,0,1,208.68,288.48Zm-5,8.73a5,5,0,0,1,3.52-4.79,23.18,23.18,0,0,1-13.86-5.76,4.91,4.91,0,0,1,.59,2.35,5,5,0,0,1-5,5,5.11,5.11,0,0,1-2-.39,32.52,32.52,0,0,0,19.93,8.24A5,5,0,0,1,203.66,297.21Zm3.5-51.2a5,5,0,0,1-.33-9.46,32.51,32.51,0,0,0-19.9,8.24,5.11,5.11,0,0,1,2-.39,5,5,0,0,1,5,5,4.91,4.91,0,0,1-.59,2.35A23.08,23.08,0,0,1,207.16,246Zm-18.27,8.44a5,5,0,0,1-5-5,5.08,5.08,0,0,1,.39-2,32.51,32.51,0,0,0-8.23,19.9,5,5,0,0,1,9.47.34,23,23,0,0,1,5.75-13.85A5,5,0,0,1,188.89,254.45Zm-3.4,16.27a5,5,0,0,1-9.47.35,32.54,32.54,0,0,0,8.23,19.9,5.11,5.11,0,0,1-.39-2,5,5,0,0,1,7.38-4.43A23.11,23.11,0,0,1,185.49,270.72Zm23.19-23.36a21.86,21.86,0,1,0,21.86,21.85A21.87,21.87,0,0,0,208.68,247.36Zm0,41.12a19.26,19.26,0,1,1,19.26-19.27A19.26,19.26,0,0,1,208.68,288.48Zm24.41-41a4.89,4.89,0,0,1,.41,2,5,5,0,0,1-5,5,4.94,4.94,0,0,1-2.34-.58,23.07,23.07,0,0,1,5.74,13.82,5.06,5.06,0,0,1,4.8-3.5,5,5,0,0,1,4.67,3.21A32.55,32.55,0,0,0,233.09,247.44Zm8.26,23.6a5,5,0,0,1-9.47-.3,23,23,0,0,1-5.76,13.84A5,5,0,0,1,233.5,289a4.89,4.89,0,0,1-.41,2A32.56,32.56,0,0,0,241.35,271Zm-30.81-34.49a5,5,0,0,1-.34,9.46A23.17,23.17,0,0,1,224,251.76a4.85,4.85,0,0,1-.58-2.33,5,5,0,0,1,5-5,5,5,0,0,1,2,.4A32.59,32.59,0,0,0,210.54,236.55Zm0,65.34a32.53,32.53,0,0,0,19.94-8.25,5,5,0,0,1-2,.4,5,5,0,0,1-5-5,4.91,4.91,0,0,1,.59-2.35,23.21,23.21,0,0,1-13.86,5.76,5,5,0,0,1,.33,9.47Zm-1.83-54.53a21.86,21.86,0,1,0,21.86,21.85A21.87,21.87,0,0,0,208.68,247.36Zm0,41.12a19.26,19.26,0,1,1,19.26-19.27A19.26,19.26,0,0,1,208.68,288.48Zm-5,8.73a5,5,0,0,1,3.52-4.79,23.18,23.18,0,0,1-13.86-5.76,4.91,4.91,0,0,1,.59,2.35,5,5,0,0,1-5,5,5.11,5.11,0,0,1-2-.39,32.52,32.52,0,0,0,19.93,8.24A5,5,0,0,1,203.66,297.21Zm3.5-51.2a5,5,0,0,1-.33-9.46,32.51,32.51,0,0,0-19.9,8.24,5.11,5.11,0,0,1,2-.39,5,5,0,0,1,5,5,4.91,4.91,0,0,1-.59,2.35A23.08,23.08,0,0,1,207.16,246Zm-18.27,8.44a5,5,0,0,1-5-5,5.08,5.08,0,0,1,.39-2,32.51,32.51,0,0,0-8.23,19.9,5,5,0,0,1,9.47.34,23,23,0,0,1,5.75-13.85A5,5,0,0,1,188.89,254.45Zm-3.4,16.27a5,5,0,0,1-9.47.35,32.54,32.54,0,0,0,8.23,19.9,5.11,5.11,0,0,1-.39-2,5,5,0,0,1,7.38-4.43A23.11,23.11,0,0,1,185.49,270.72Zm23.19-23.36a21.86,21.86,0,1,0,21.86,21.85A21.87,21.87,0,0,0,208.68,247.36Zm0,41.12a19.26,19.26,0,1,1,19.26-19.27A19.26,19.26,0,0,1,208.68,288.48Zm24.41-41a4.89,4.89,0,0,1,.41,2,5,5,0,0,1-5,5,4.94,4.94,0,0,1-2.34-.58,23.07,23.07,0,0,1,5.74,13.82,5.06,5.06,0,0,1,4.8-3.5,5,5,0,0,1,4.67,3.21A32.55,32.55,0,0,0,233.09,247.44Zm8.26,23.6a5,5,0,0,1-9.47-.3,23,23,0,0,1-5.76,13.84A5,5,0,0,1,233.5,289a4.89,4.89,0,0,1-.41,2A32.56,32.56,0,0,0,241.35,271Zm-30.81-34.49a5,5,0,0,1-.34,9.46A23.17,23.17,0,0,1,224,251.76a4.85,4.85,0,0,1-.58-2.33,5,5,0,0,1,5-5,5,5,0,0,1,2,.4A32.59,32.59,0,0,0,210.54,236.55Zm0,65.34a32.53,32.53,0,0,0,19.94-8.25,5,5,0,0,1-2,.4,5,5,0,0,1-5-5,4.91,4.91,0,0,1,.59-2.35,23.21,23.21,0,0,1-13.86,5.76,5,5,0,0,1,.33,9.47Zm-1.83-54.53a21.86,21.86,0,1,0,21.86,21.85A21.87,21.87,0,0,0,208.68,247.36Zm0,41.12a19.26,19.26,0,1,1,19.26-19.27A19.26,19.26,0,0,1,208.68,288.48Zm-5,8.73a5,5,0,0,1,3.52-4.79,23.18,23.18,0,0,1-13.86-5.76,4.91,4.91,0,0,1,.59,2.35,5,5,0,0,1-5,5,5.11,5.11,0,0,1-2-.39,32.52,32.52,0,0,0,19.93,8.24A5,5,0,0,1,203.66,297.21Zm3.5-51.2a5,5,0,0,1-.33-9.46,32.51,32.51,0,0,0-19.9,8.24,5.11,5.11,0,0,1,2-.39,5,5,0,0,1,5,5,4.91,4.91,0,0,1-.59,2.35A23.08,23.08,0,0,1,207.16,246Zm-18.27,8.44a5,5,0,0,1-5-5,5.08,5.08,0,0,1,.39-2,32.51,32.51,0,0,0-8.23,19.9,5,5,0,0,1,9.47.34,23,23,0,0,1,5.75-13.85A5,5,0,0,1,188.89,254.45Zm-3.4,16.27a5,5,0,0,1-9.47.35,32.54,32.54,0,0,0,8.23,19.9,5.11,5.11,0,0,1-.39-2,5,5,0,0,1,7.38-4.43A23.11,23.11,0,0,1,185.49,270.72Z"/>
<polygon class="cls-1" points="409.6 288.48 409.6 249.78 409.6 240.93 409.6 232.48 392.12 232.48 392.12 240.93 392.12 249.78 392.12 288.48 392.12 305.95 398.56 305.95 405.3 305.95 409.6 305.95 439.37 305.95 439.37 288.48"/>
<polygon class="cls-1" points="127.57 232.48 127.57 240.93 127.57 249.78 127.57 305.95 145.04 305.95 145.04 249.78 145.04 240.93 145.04 232.48"/>
<polygon class="cls-1" points="185.13 232.48 165.41 232.48 145.12 269.22 165.41 305.95 185.13 305.95 164.84 269.22"/>
<path class="cls-1" d="M282.08,233.59a36.73,36.73,0,1,0,35.7,28.09H274.84V279h24.43a19.28,19.28,0,1,1-4.92-23.45l17.07-7.28A36.66,36.66,0,0,0,282.08,233.59Z"/>
<path class="cls-1" d="m392.12 266.7a36.74 36.74 0 0 0 -73.38 1.3v0.11 1.11c0 0.76 0 1.5 0.07 2.24v0.05s0 0 0 0a36.73 36.73 0 0 0 66 19.73l-17.07-7.24a19.22 19.22 0 0 1 -29.49 -6.17h52.92a36.85 36.85 0 0 0 0.95 -6.18c0.05-0.81 0.08-1.64 0.08-2.47s-0.03-1.65-0.08-2.48zm-53.87-6.12a19.25 19.25 0 0 1 34.41 0z"/>
<path class="cls-1" d="M219.94,323.77a10.73,10.73,0,0,0-21.46,0,10.59,10.59,0,0,0,10.73,10.68,10.75,10.75,0,0,0,5.84-1.82l1.76,1.82h3.1l-3.18-3.13A10.37,10.37,0,0,0,219.94,323.77ZM215,329.5l-3.23-3.2h-3.18l4.7,4.59a8,8,0,0,1-4.08,1.17,8.23,8.23,0,0,1-8.18-8.29,8.18,8.18,0,1,1,14,5.73Z"/>
<path class="cls-1" d="m234.49 313.53v12.09c0 3.34-1 6.44-4.94 6.44s-5-3.1-5-6.44v-12.09h-2.54v13c0 4.5 2.79 8 7.49 8s7.5-3.46 7.5-8v-13z"/>
<path class="cls-1" d="m246.72 312.66-9.78 21.34h2.74l2.33-5.14h9.4l2.34 5.14h2.74zm-3.64 13.88 3.64-8.28 3.63 8.28z"/>
<path class="cls-1" d="M260.93,331.68V313.53h-2.54V334h9.68v-2.34Z"/>
<path class="cls-1" d="M270.41,313.53V334H273V313.53Z"/>
<path class="cls-1" d="M275.44,313.53v2.34h4.86V334h2.56V315.87h4.86v-2.34Z"/>
<path class="cls-1" d="M301.87,313.53l-5,8.75-5-8.75h-2.93l6.68,11.58V334h2.56v-8.91l6.68-11.58Z"/>
<path class="cls-1" d="m322.73 323.09a4.42 4.42 0 0 0 2.2 -3.88c0-4.62-4.37-5.63-8.22-5.63h-2.5v20.42h5.51c3.61 0 7.12-1.64 7.12-5.74a5.28 5.28 0 0 0 -4.11 -5.17zm-6-7.27h1.45c2.39 0 4.34 0.48 4.34 3.36s-2 3.43-4.4 3.43h-1.39zm2.7 15.91h-2.7v-7.09h2.32c2.27 0 5.21 0.6 5.21 3.48s-2.45 3.61-4.81 3.61z"/>
<path class="cls-1" d="M340,315.87v-2.34H329V334h11v-2.34H331.5v-7.75h8.21V321.6H331.5v-5.73Z"/>
<path class="cls-1" d="M351.63,312.66,341.84,334h2.74l2.34-5.14h9.4l2.34,5.14h2.74ZM348,326.54l3.65-8.28,3.64,8.28Z"/>
<path class="cls-1" d="M370.12,325.11a5.58,5.58,0,0,0,4.91-5.74,5.7,5.7,0,0,0-2.68-4.89,10.91,10.91,0,0,0-5.41-1h-3.83V334h2.56v-8.67h1.79l6,8.67h3.09Zm-2.91-1.88h-1.54v-7.41h1.41c2.52,0,5.57.45,5.57,3.66S369.82,323.23,367.21,323.23Z"/>
<path class="cls-1" d="M378.88,313.53V334h2.55V313.53Z"/>
<path class="cls-1" d="M400.21,313.53v14.28l-15.38-14.43V334h2.55V319.58L402.75,334V313.53Z"/>
<path class="cls-1" d="M411.72,323.69V326h10.51c-.11,3.34-3.53,6.08-6.71,6.08-4.43,0-8-4.07-8-8.36a8.08,8.08,0,0,1,14.62-5l1.79-1.7a10.66,10.66,0,0,0-19,6.76,10.6,10.6,0,0,0,10.35,10.62c5.73,0,9.69-4.32,9.69-9.94v-.82Z"/>
<path class="cls-1" d="M157.74,323.69V326h10.51c-.11,3.34-3.53,6.08-6.71,6.08-4.42,0-8-4.07-8-8.36a8.07,8.07,0,0,1,14.61-5l1.8-1.7a10.67,10.67,0,0,0-19,6.76,10.61,10.61,0,0,0,10.36,10.62c5.73,0,9.69-4.32,9.69-9.94v-.82Z"/>
<path class="cls-1" d="M434.29,321.9l-1.47-.57c-1.28-.49-2.85-1.34-2.85-2.93,0-1.8,1.79-2.91,3.42-2.91a3.48,3.48,0,0,1,3.28,1.93l2-1.22a5.83,5.83,0,0,0-5.26-3.1c-3.1,0-6,2-6,5.3,0,2.85,2.12,4.18,4.46,5.19l1.41.59c1.76.73,3.53,1.68,3.53,3.88a3.87,3.87,0,1,1-7.74.12l-2.58.54a6.39,6.39,0,0,0,6.33,5.73,6.31,6.31,0,0,0,6.54-6.39C439.36,324.64,437.19,323,434.29,321.9Z"/>
<path class="cls-1" d="M139.86,313.53v8.26h-9.74v-8.26h-2.56V334h2.56v-9.84h9.74V334h2.56V313.53Z"/>
<path class="cls-1" d="M145.84,313.53V334h2.56V313.53Z"/>
<path class="cls-1" d="M185.68,313.53v8.26h-9.75v-8.26h-2.55V334h2.55v-9.84h9.75V334h2.56V313.53Z"/>
</svg>
