<?xml version="1.0" encoding="UTF-8"?>
<svg version="1.1" viewBox="0 0 800 600" xmlns="http://www.w3.org/2000/svg">
<defs>
<filter id="b" x="-.013768" y="-.010635" width="1.0275" height="1.0213" color-interpolation-filters="sRGB">
<feGaussianBlur stdDeviation="1.0424892"/>
</filter>
<filter id="a" x="-.011072" y="-.039341" width="1.0221" height="1.0787" color-interpolation-filters="sRGB">
<feGaussianBlur stdDeviation="0.69405725"/>
</filter>
</defs>
<path d="m277.75 222.46-35.868 38.605-2.8038 0.11683-15.846-13.699-22.802 27.217-12.228 36.508s-2.9882 78.699 0.63379 88.673c3.6221 9.9742 9.3482 14.082 9.3482 14.082s61.574 38.02 70.337 41.54c8.763 3.5203 14.371 2.2295 17.409 0.46933 3.0378-1.7601 78.167-45.294 78.167-45.294 4.7904-12.204 4.0895-13.965 4.0895-13.965l0.58364-84.605-12.619-29.336-12.852-12.79-8.7626-17.601-7.0731 7.9953c-1.9518-17.324-14.026-22.788-23.086-23.674-7.2628-0.44415-10.46-0.38127-14.035 1.6631z" fill="#fff" filter="url(#b)" style="paint-order:markers stroke fill"/>
<ellipse cx="300.26" cy="266.14" rx="25.068" ry="25.951" fill="#fff" stroke="#000" stroke-linejoin="round" stroke-width="3.2" style="paint-order:normal"/>
<path d="m224.29 251.8-22.206 26.39-11.907 35.401s-2.9092 76.311 0.61801 85.983c3.5272 9.6714 9.1025 13.654 9.1025 13.654s59.963 36.865 68.497 40.279 13.995 2.1618 16.953 0.45513c2.9583-1.7067 76.12-43.92 76.12-43.92 4.665-11.833 3.9824-13.54 3.9824-13.54l0.56891-82.037-12.288-28.445-12.516-12.402-8.5336-17.067-14.336 12.744-8.3061-0.68269-32.655-41.075-34.931 37.434-2.7308 0.11378z"/>
<path d="m215.48 303.77h14.109l9.3301 58.939 9.7852-58.711h14.109v74.186h-7.9647v-62.352l-10.695 62.125h-10.24l-9.3301-62.808v63.718h-9.1025z" fill="#009bb4"/>
<path d="m280.34 303.54h12.061l12.288 74.641h-10.013l-2.9583-19.343h-10.468l-3.4134 19.343h-8.875z" fill="#009bb4"/>
<path d="m282.84 350.65h8.875l-5.0064-35.955z"/>
<path d="m331.08 326.52h10.24s3.8686-22.984-13.881-23.439c-17.75-0.45512-17.978 10.013-18.66 14.109s-2.2756 13.654 11.833 25.942c14.109 12.288 14.119 27.613 5.234 27.08-11.378-0.68269-7.282-15.019-7.282-15.019l-10.24 0.45513s-2.7308 24.804 14.792 24.349c17.522-0.45513 21.163-17.978 16.84-27.99-4.3237-10.013-18.888-19.115-20.253-24.122-1.3654-5.0064-3.3699-15.569 3.641-16.385 9.7852-1.1378 7.7372 15.019 7.7372 15.019z" fill="#009bb4"/>
<text transform="scale(.83743 1.1941)" x="280.86969" y="353.82343" fill="#ffffff" font-family="Impact" font-size="36.585px" stroke-width=".91463" style="font-variant-caps:normal;font-variant-east-asian:normal;font-variant-ligatures:normal;font-variant-numeric:normal;line-height:1.25" xml:space="preserve"><tspan x="280.86969" y="353.82343" stroke-width=".91463">El Paso</tspan></text>
<path d="m203.21 408.53s33.952 18.183 43.446 23.171c9.4938 4.9883 19.309 15.448 30.412 14.643 11.103-0.80456 42.963-20.275 45.538-21.884 2.5746-1.6091 31.056-16.735 31.056-16.735s-61.307 43.446-76.594 42.32c-15.287-1.1264-19.953-10.137-35.401-18.344-15.448-8.2065-38.458-23.171-38.458-23.171z" fill="#fff" filter="url(#a)"/>
<path d="m224.77 255.66-0.32182 10.137-7.5628 13.999-0.96547 10.137 18.827-19.148v-3.701l-1.77-0.48274 2.5746-2.0918z" fill="#fff"/>
<path d="m212.7 300.88 44.894-45.055-17.861 22.849-6.4365 12.229-0.80456-5.3101-11.264 11.264z" fill="#fff"/>
<path d="m274.17 235.06-7.0801 7.5628 1.77 2.5746-2.4137 2.7355 2.4137 8.0456-1.9309 1.9309-1.2873-1.77-4.1837 4.9883 22.528 30.251s3.3791 0 1.4482-3.2182-1.9309-5.1492-1.9309-5.1492-0.16091 0-1.1264-2.0918 0-4.1837-0.80456-5.6319c-0.80455-1.4482 1.9309 3.701 1.9309 4.6664s3.0573 4.1837 2.5746 5.471c-0.48273 1.2873 1.2873 0.32183 1.1264-0.16091-0.16091-0.48273 1.1264 3.701 0.64365 5.3101-0.48274 1.6091 4.8274-3.3792 4.8274-3.3792l0.64364-9.8156s1.4482-4.6664 0.80456-8.0456c-0.64364-3.3792-0.16091-4.1837 0.64365-5.3101 0.80456-1.1264-0.32182 4.6664 0.80456 5.3101 1.1264 0.64364 5.471-2.2528 5.471-2.2528l8.2065 6.9192-20.275-26.39-11.264-13.195 0.80456 4.5055z" fill="#fff"/>
<path d="m334.83 283.82 3.5401 1.6091 9.172 12.712-1.1264-4.8274-4.9883-8.5283 2.0918-3.8619-11.505-21.804-8.3674 10.298-4.1032 0.96547 2.2528 4.6664z" fill="#fff"/>
</svg>
