<?xml version="1.0" encoding="UTF-8"?>
<svg viewBox="0 0 1183.79 2268.3" xmlns="http://www.w3.org/2000/svg">
<defs>
<style>.cls-1{fill:none;}.cls-2,.cls-4{fill:#fff;}.cls-3{fill:#111010;}.cls-4,.cls-5,.cls-6,.cls-7,.cls-8{stroke:#231f20;stroke-miterlimit:10;stroke-width:4px;}.cls-5{fill:#1d1d1b;}.cls-6{fill:#fad1c1;}.cls-7{fill:#e42521;}.cls-8{fill:#e43131;}</style>
</defs>
<title>LOGO_ORIGINAL</title>
<g data-name="Layer 2">
<g data-name="Layer 1">
<rect class="cls-1" x="338.83" y="1329.7" width="29" height="273.72"/>
<rect class="cls-1" x="109.25" y="1329.7" width="22.6" height="152"/>
<rect class="cls-1" x="1058.2" y="1329.7" width="29" height="273.72"/>
<path class="cls-2" d="M22.13,1683.5H99.82V1566.91h31.62c31.44,0,54.13-6.76,67.45-20.08S219,1511,219,1480V1331.4c0-31-6.55-53.4-19.46-66.52s-35-20-65.54-20.37H18.45l-8,75.77H22.13Zm77.69-363.22h41.46v170.86H99.82Z"/>
<path class="cls-2" d="M104.53,1486.43h32V1325h-32Zm4.72-156.72h22.6v152h-22.6Z"/>
<path class="cls-2" d="M12.69,1692.93h96.56V1576.34h22.19c34,0,59-7.68,74.12-22.84s22.85-39.88,22.85-73.48V1331.4c0-33.58-7.46-58.19-22.18-73.14s-39-22.74-72.16-23.19H10L0,1329.71H12.69ZM5.24,1325l9-85.2H134q48,.64,68.87,21.78t20.82,69.83V1480q0,48.69-21.46,70.15t-70.79,21.46H104.53v116.59H17.41V1325Z"/>
<path class="cls-2" d="M141.28,1320.28H99.82v170.86h41.46Zm-4.71,166.15h-32V1325h32Z"/>
<path class="cls-2" d="M17.41,1688.22h87.12V1571.63h26.91q49.32,0,70.79-21.46T223.69,1480V1331.4q0-48.68-20.82-69.83T134,1239.79H14.21l-9,85.2H17.41Zm-6.93-367.94,8-75.77H134c30.58.41,52.63,7.26,65.54,20.37S219,1300.38,219,1331.4V1480c0,31-6.75,53.49-20.08,66.81s-36,20.08-67.45,20.08H99.82V1683.5H22.13V1320.28Z"/>
<path class="cls-2" d="m339.23 1688.6h28.19c31.43 0 54.13-6.76 67.45-20.08s20.08-35.8 20.08-66.81v-270.34c0-31.42-6.75-54-20.05-67.11s-36-19.78-67.48-19.78h-28.19c-31.45 0-54.15 6.65-67.47 19.78s-20.06 35.71-20.06 67.11v270.34c0 31 6.76 53.49 20.08 66.8s36.01 20.09 67.45 20.09zm-9.84-368.35h47.87v292.58h-47.87z"/>
<path class="cls-2" d="M334.11,1608.14h38.43V1325H334.11Zm4.72-278.43h29v273.72h-29Z"/>
<path class="cls-2" d="m339.23 1698.1h28.19c34 0 59-7.68 74.12-22.84s22.85-39.88 22.85-73.48v-270.34c0-34-7.7-58.88-22.87-73.83s-40.1-22.5-74.1-22.5h-28.19c-34 0-58.94 7.57-74.09 22.5s-22.87 39.78-22.87 73.83v270.34c0 33.61 7.68 58.33 22.84 73.48s40.09 22.84 74.12 22.84zm-92.23-366.66q0-49.32 21.47-70.47t70.78-21.14h28.19q49.32 0 70.79 21.14t21.46 70.47v270.34q0 48.69-21.46 70.14t-70.79 21.46h-28.21q-49.34 0-70.78-21.46t-21.45-70.14z"/>
<path class="cls-2" d="M377.26,1320.28H329.39v292.58h47.87Zm-4.72,287.86H334.11V1325h38.43Z"/>
<path class="cls-2" d="M339.23,1693.34h28.19q49.32,0,70.79-21.46t21.46-70.14V1331.4q0-49.32-21.46-70.47t-70.79-21.14H339.23q-49.34,0-70.78,21.14T247,1331.4v270.34q0,48.69,21.47,70.14T339.23,1693.34ZM251.7,1331.4c0-31.43,6.75-54,20.06-67.11s36-19.78,67.47-19.78h28.19c31.44,0,54.14,6.65,67.48,19.78S455,1300,455,1331.4v270.34c0,31-6.75,53.48-20.08,66.81s-36,20.08-67.45,20.08H339.23c-31.44,0-54.13-6.76-67.45-20.09s-20.08-35.79-20.08-66.8Z"/>
<polygon class="cls-2" points="488.86 1698.1 700.39 1698.1 705.33 1607.7 590.78 1607.7 590.78 1244.5 484.88 1244.5 476.24 1320.3 488.86 1320.3"/>
<polygon class="cls-2" points="729.81 1698.1 941.34 1698.1 946.28 1607.7 831.73 1607.7 831.73 1244.5 725.83 1244.5 717.18 1320.3 729.81 1320.3"/>
<path class="cls-2" d="m1086.8 1244.5h-28.19c-31.44 0-54.15 6.65-67.47 19.78s-20.06 35.71-20.06 67.11v270.34c0 31 6.76 53.49 20.08 66.8s36 20.09 67.45 20.09h28.19c31.44 0 54.13-6.76 67.45-20.08s20.08-35.8 20.08-66.81v-270.34c0-31.42-6.74-54-20-67.11s-36.09-19.78-67.53-19.78zm9.84 368.35h-47.87v-292.58h47.87z"/>
<path class="cls-2" d="M1092,1325h-38.44v283.15H1092Zm-4.72,278.44h-29V1329.71h29Z"/>
<path class="cls-2" d="m1160.9 1257.6c-15.16-14.93-40.09-22.5-74.1-22.5h-28.19c-34 0-58.94 7.57-74.09 22.5s-22.87 39.78-22.87 73.83v270.34c0 33.61 7.69 58.33 22.84 73.48s40.09 22.84 74.12 22.84h28.19c34 0 59-7.68 74.12-22.84s22.85-39.88 22.85-73.48v-270.34c0-34.04-7.7-58.88-22.87-73.83zm18.15 344.17q0 48.69-21.46 70.14t-70.79 21.46h-28.19q-49.34 0-70.78-21.46t-21.46-70.14v-270.34q0-49.32 21.46-70.47t70.78-21.14h28.19q49.32 0 70.79 21.14t21.46 70.47z"/>
<path class="cls-2" d="m1048.8 1612.9h47.87v-292.58h-47.87zm4.72-287.87h38.49v283.15h-38.44z"/>
<path class="cls-2" d="m1086.8 1239.8h-28.19q-49.34 0-70.78 21.14t-21.46 70.47v270.34q0 48.69 21.46 70.14t70.78 21.46h28.19q49.32 0 70.79-21.46t21.46-70.14v-270.34q0-49.32-21.46-70.47t-70.79-21.14zm87.53 362c0 31-6.75 53.48-20.08 66.81s-36 20.08-67.45 20.08h-28.19c-31.44 0-54.13-6.76-67.45-20.09s-20.08-35.79-20.08-66.8v-270.39c0-31.43 6.75-54 20.06-67.11s36-19.78 67.47-19.78h28.19c31.44 0 54.14 6.65 67.48 19.78s20 35.69 20 67.11z"/>
<polygon class="cls-2" points="26.32 1818.2 26.32 2255 121.66 2255 121.66 2036.2 210.53 2036.2 216.13 1943.2 121.66 1943.2 121.66 1818.2 227.48 1818.2 233.08 1725.2 22 1725.2 12.21 1818.2"/>
<path class="cls-2" d="M1.73,1827.64H16.89v436.81H131.1V2045.66h88.32l6.73-111.89H131.1V1827.64H236.37l6.73-111.9H13.51Zm236.36-107.18-6.17,102.46H126.38v115.56h94.76L215,2040.94H126.38v218.8H21.6V1822.92H7l10.78-102.46Z"/>
<path class="cls-2" d="M21.6,1822.92v436.82H126.38v-218.8H215l6.17-102.46H126.38V1822.92H231.92l6.17-102.46H17.75L7,1822.92Zm.4-97.75H233.08l-5.6,93H121.66v125h94.47l-5.6,93H121.66V2255H26.32V1818.21H12.21Z"/>
<polygon class="cls-2" points="482.2 1818.2 487.79 1725.2 276.71 1725.2 266.92 1818.2 281.04 1818.2 281.04 2255 482.2 2255 487.79 2162 376.38 2162 376.38 2036.2 465.25 2036.2 470.85 1943.2 376.38 1943.2 376.38 1818.2"/>
<path class="cls-2" d="M491.08,1827.64l6.73-111.9H268.22l-11.78,111.9H271.6v436.81H491.08l6.73-111.89h-112v-106.9h88.32l6.73-111.89H385.81V1827.64Zm-15.23,110.84-6.16,102.46h-88.6v116.34H492.8l-6.16,102.46H276.32V1822.92H261.68l10.79-102.46H492.8l-6.16,102.46H381.09v115.56Z"/>
<path class="cls-2" d="M486.64,1822.92l6.16-102.46H272.47l-10.79,102.46h14.64v436.82H486.64l6.16-102.46H381.09V2040.94h88.6l6.16-102.46H381.09V1822.92ZM470.85,1943.2l-5.6,93H376.38V2162H487.79l-5.59,93H281V1818.21H266.92l9.79-93H487.79l-5.59,93H376.38v125Z"/>
<polygon class="cls-2" points="637.12 1725.2 537.45 1725.2 527.66 1818.2 541.78 1818.2 541.78 2255 778.38 2255 783.97 2162 637.12 2162"/>
<path class="cls-2" d="M646.55,1715.74H529l-11.78,111.9h15.16v436.81H787.26L794,2152.56H646.55ZM789,2157.28l-6.16,102.46H537.06V1822.92H522.42l10.79-102.46H641.83v436.82Z"/>
<path class="cls-2" d="M641.83,1720.46H533.21l-10.79,102.46h14.64v436.82H782.82L789,2157.28H641.83ZM784,2162l-5.6,93H541.78V1818.21H527.66l9.79-93h99.67V2162Z"/>
<polygon class="cls-2" points="816.27 1818.2 816.27 2255 911.61 2255 911.61 1725.2 811.94 1725.2 802.15 1818.2"/>
<path class="cls-2" d="M791.67,1827.64h15.16v436.81H921V1715.74H803.45Zm124.65-107.18v539.28H811.55V1822.92H796.91l10.79-102.46Z"/>
<path class="cls-2" d="M811.55,1822.92v436.82H916.32V1720.46H807.7l-10.79,102.46Zm.39-97.75h99.67V2255H816.27V1818.21H802.15Z"/>
<path class="cls-2" d="M1010.15,2007.93c-8.2,20.48-16.22,41.31-23.88,62s-15.67,42.26-23.88,64.34a51,51,0,0,0-2.16,6.42l-.1.36-.77,2.31c-4.42,15.74-6.69,30.08-6.69,42.42v73.09h221.68v-93H1045.92l70.95-189.72c8.23-20.59,16.25-41.42,23.88-62q11.55-31.21,23.88-64.34a50.59,50.59,0,0,0,2.16-6.44l.1-.33.77-2.32c4.42-15.73,6.69-30.07,6.69-42.42v-73.1H952.67v93h128.42Z"/>
<path class="cls-2" d="M943.23,1827.64H1067.5l-66.15,176.89c-8.18,20.45-16.23,41.36-23.93,62.13s-15.67,42.24-23.83,64.21a58.46,58.46,0,0,0-2.47,7.37l-.78,2.35c-4.72,16.78-7.11,32-7.11,45.19v82.52h240.56V2156.41H1059.52l66.15-176.89c8.22-20.56,16.27-41.47,23.93-62.13s15.66-42.23,23.84-64.22a62.07,62.07,0,0,0,2.46-7.35l.78-2.36c4.71-16.78,7.11-32,7.11-45.19v-82.53H943.23ZM948,1720.46h231.12v77.81q0,19.26-6.93,43.91l-.77,2.31a54.62,54.62,0,0,1-2.32,6.93q-12.33,33.13-23.88,64.34t-23.88,62l-68.57,183.36h126.35v102.46H948v-77.81q0-19.25,6.93-43.91l.77-2.31a52.57,52.57,0,0,1,2.32-6.93q12.3-33.14,23.88-64.33t23.88-62l68.57-183.36H948Z"/>
<path class="cls-2" d="M1005.73,2006.28q-12.33,30.83-23.88,62T958,2132.63a52.57,52.57,0,0,0-2.32,6.93l-.77,2.31q-6.93,24.66-6.93,43.91v77.81h231.12V2161.13H1052.72l68.57-183.36q12.32-30.8,23.88-62t23.88-64.34a54.62,54.62,0,0,0,2.32-6.93l.77-2.31q6.93-24.65,6.93-43.91v-77.81H948v102.46H1074.3Zm-53.06-188.07v-93h221.68v73.1c0,12.35-2.27,26.69-6.69,42.42l-.77,2.32-.1.33a50.59,50.59,0,0,1-2.16,6.44q-12.33,33.13-23.88,64.34c-7.63,20.58-15.65,41.41-23.88,62l-70.95,189.72h128.43v93H952.67v-73.09c0-12.34,2.27-26.68,6.69-42.42l.77-2.31.1-.36a51,51,0,0,1,2.16-6.42q12.32-33.12,23.88-64.34c7.66-20.69,15.68-41.52,23.88-62l70.94-189.72Z"/>
<path class="cls-3" d="M387.52,604.85S356,551,377.05,495c0,0-36.4-22.43-37.39-68,0,0-2.16-47.1,48.08-50.09,0,0,9.49-78.5,64.82-111.4,0,0-5.23-32.89,12.71-47.1,0,0-59.64,15.14-67.2-46.35,0,0-15.79-74,94.12-77.76,0,0,46.39-3,83,31.4,0,0-29.91-35.14-31.4-66.54,0,0-2.89-59.81,66.59-59.06,0,0,77.71-1.5,105.37,85.23,0,0,0,11.21,7.48,3.74s41.86-44.11,77-44.11c0,0,74.76,5.23,70.27,79.25,0,0,3,16.38-12.7,60.55,0,0-4.49,8.23,2.24,9h21.86s40.94-3.74,46.17,42.61c0,0,7,27.67-25.42,70.28,0,0-12.71,13.46,1.5,32.9,0,0,17.2,15.7,17.2,37.38,0,0,5.45,37.38-52.34,62.8l70.28,175.21s92,2.73,151,142.54c0,0,46.38,89.72,12,355.88,0,0-2,11.22,1.59,31.4,0,0,21.55,74.77-41.92,137.57,0,0-52.27,44.86-137.18,47.11,0,0-42.3,3-111.08-30.3s-272.2-105-336.47-68.39c0,0,6.76-18.7,13.49-29.91,0,0-54.12,58.06-164.26,58.06,0,0-209.56,5.17-283.58-155.35,0,0-12-24.66-13.46-95.65,0,0-1.49-136.78,150.28-283.31,0,0,94.76-94.16,207.85-119.63"/>
<path class="cls-4" d="M410.69,779.8s10.94-12,33.13-12.71c0,0,51.36-3.74,56.59,65,0,0-1.5,42.62-20.19,64.3L438.35,899s-12.15-1.72-12.05,7.9c0,0-2.15,8.32,9.06,9l26.92.26s84.11,5,92.52,59.56c0,0,.19,47.1-50.65,46,0,0-12-1.83-29.91-7.85,0,0-8.6-4-8.6,4.85,0,0-2.24,12,4.86,10.1,0,0,56.08-13.83,64.67,39.63,0,0,4.12,58.69-64.67,58.69,0,0-9,.37-24.3-4.49,0,0-5.6-4.7-7.47,4.75,0,0-3.37,11,.74,12.07,0,0,1.87,0,4.87-3.74,0,0,4.86-5.23,9-4.86,0,0,23.61,3,26.54,29.53,0,0,7.85,74.77-180.93,75.89,0,0-232.15,1.89-239.62-225.41,0,0-6.73-120.41,100.18-233.27,0,0,110.65-131.59,236.26-154A85.93,85.93,0,0,0,418.92,649l12-8.19s6.73,11.54,11.21,18.75c0,0,32.08-31.49,72.53-42.7,0,0,6,33.29-6,54.58s-16.44,31.69-16.44,47.24c0,0-1.5,38.92,47.1,42.47,0,0,32.9,1.49,53.83-19.44a202.6,202.6,0,0,0,35.14,2.91s52.33,4.57,53.82-93.37c0,0-1.49-47.1-18.68-92,0,0,51.58-21.68,51.58-68,0,0,.75-10.47-7.47-28.41,0,0-17.27,15.7-38.13,16.45,0,0-41.12,3.73-86-53.08,0,0-36.64-53.37-82.24-52.85,0,0-11.22-2.48-35.14,6.49,0,0,12-14.21,5.23-44.86,0,0-10.46-5.23-29.91,11.22l12.71,12.71-15.7,7.47a37.47,37.47,0,0,0,4.49,25.42l-8.22,4.49s-13.46-3.44-10.47-32.9c0,0,6.07-52.78,43-41.12,0,0-8.65-6.72-14.63-6,0,0-28.41,2.24-34.39,42.62,0,0-4.49,24.67,8.22,40.37,0,0-6.73,6-14.95,6.73s-10.55,2.24-12,10.47-.75,17.19-4.49,23.17c0,0-6.73-3.74-9.72-18.69,0,0,.38-4.11-2.24-4.11,0,0-4.86,0-4.49,8.22,0,0,.14,11.59,9.35,26.17a187,187,0,0,1-3.74,23.18s-21.68-11.22-21.68-44.11c0,0,1.87-44.12,47.85-42.62,0,0-7.85-59.81,41.12-97.94,0,0,29.53,62.8,103.17,56.07,0,0-4.86-12-4.86-38.88,0,0-.42-45.79,37.18-67.94,0,0,20.77-15.05,70.86-15.42,0,0,93.83-16,158.88,145.05L916.1,616.82S811.06,605.6,755,716.25c0,0-1.12,2.62-2.61,2.62,0,0-.75.75-.37-3.37s1.12-20.18,4.85-34c0,0,.75-3.74-.75-4.49,0,0-3-.94-6.72,2.71,0,0-37.76,41-58,71.68,0,0-6.21,9,.63,15.7,0,0,5.73,6,11.7-2.61l31-55s1.13-2.24,1.88-2.24c0,0,.74,0,.37,3.36s-2.12,34.23-4.86,60.19c0,0-1.12,9.35,7.85,13.08,0,0,7.85,2.62,11.21-9.72,0,0,33.65-142.42,158.51-136.07,0,0,116.26-4.86,159.62,167.85,0,0,45.86,141.31-4.48,320.74,0,0,11.21,26.92,11.21,50.09,0,0,3.73,86.4-102.43,119.62,0,0-64.85,20.19-140.09-15.69s-229-86.73-316.72-77c0,0,71.77-124.2,271.39-117.8,0,0-29.9-29.11-23.92-104.07,0,0,4.79-110.84,46.88-149,0,0,9.19-7.1,2.84-15.69,0,0-5.66-7.86-16.85,2.24,0,0-24.64,22.42-36.61,64.3a6.78,6.78,0,0,1-6,5.23s-1.91,1.12-4.14-6c0,0-3-9.72-6-34,0,0,0-3.74-2.62-3.74,0,0-3.37,1.12-3,5.61,0,0-2.62,17.81,8.22,54.95a36.05,36.05,0,0,1,2.25,13.08c0,7.86-11.08,59.82,5.23,143.55,0,0,1.49,3-2.24,3.37,0,0-160.75,0-244.86,109.9,0,0-1.87,1.87-3.36,1.5,0,0-1.12,0-1.5-3v-20.56s0-9-5.61-12.71c0,0-1.12-.75-1.12-1.5,0,0-.37-1.49,2.24-1.49,0,0,56.45-8.23,56.83-63.55,0,0-1.06-23.88-10.85-38.11a3.59,3.59,0,0,1-1.12-3.39s0-1.49,2.25-3c0,0,28.58-24.3,28.58-53.08,0,0,2.07-44.11-61.1-70.28,0,0-3-.37-2.62-2.25,0,0-.75,1.78,1.87-5.28s13.83-37,13.08-65.74c0,0,3-83-76.26-84.11,0,0-22.06,0-58.69,15,0,0-2.24.75-2.24,4.11,0,0,.74,10.09,1.5,20.94s4.1,63.55-16.45,92.33c0,0-25.8,37-66.17,35.14,0,0-19.44-.37-31.4-6,0,0-1.87,0-1.87-4.48,0,0-1.49-37.38,43-90.47,0,0,51.58-61.17,88.22-77.31,0,0,1.87-.85.75-3.81,0,0-1.87-3-6-.37,0,0-13.13,6-19.44,9.34,0,0-3.36.75-4.49-1.12a5.67,5.67,0,0,1,1.5-7.48s10.46-10.46,21.31-17a2.1,2.1,0,0,0,.37-2.81s-.75-1.87-5.24,0c0,0-72.89,29.45-149.9,178.69,0,0-3.36,5.79-9,1.5l-8.6-6s-4.11-5.61-10.84,1.68c0,0-5.23,6.1-1.87,9.54,0,0,41.12,41.12,102.8,38.13,0,0,103.18,9,94.58-158.88"/>
<path class="cls-5" d="M727.32,490.46s-.75,1.89,0,2.24c0,0,1.5,1.69,2.62-2.34a81.25,81.25,0,0,0,4.48-17.84s1.87-26.54-26.16-28c0,0-12.71-.74-15,11.22,0,0-1.49,6.73,6,5.23,0,0,13.23-6.35,22,5.23a34.85,34.85,0,0,1,6.05,24.3"/>
<path class="cls-5" d="M719.47,435.14s-2.1-9.44,19.32-9.35c0,0,45.35,2.25,54.32,47.48,0,0,3.83,34.46-27.29,56.33,0,0-1.49,1.24-.75-.63,0,0,17.95-21.31,16.83-46S768.07,440.75,743,440a74.29,74.29,0,0,0-15.32,1.12s-8.54,3.1-8.23-6"/>
<path class="cls-5" d="M623.4,415.7h28.8L635,395.89s7.1-20.94,38.12-20.19c0,0-8.59-24.67-34-25.05,0,0-36.26-2.34-44.12,45.61,0,0-1.49,7.85,1.13,27.29,0,0,.75,2.62,0,3.74,0,0-1.5,1.72-3.74-1.76,0,0-6.73-9.83-7.1-33.38,0,0,0-50.09,53.83-50.47,0,0,43-.37,44.48,54.21,0,0,2.62,53.83-49.16,57.56,0,0-14.39,1.33-24.48-9.23,0,0-2-2.46,1.83-1.23a63.6,63.6,0,0,0,13.12,0s4.48.37,2.62-3c0,0-9.35-9-4.11-24.3"/>
<path class="cls-5" d="M667.13,287.1s3.74-2.61,10.85,0a100.34,100.34,0,0,1,22.8,12s3.66,2.61.14,7.84c0,0-2.91,5.15-9.49.15s-4.86-9.86-23.55-13.23c0,0-6.36-.75-.75-6.73"/>
<path class="cls-6" d="M428.26,620.93s-7.1,6.09-12.71,0c0,0-20.93-17.71-23.18-87,0,0-1.12-81.23,23.93-116,0,0,2-2.62,7.08-2.62s7.12-1.49,10.86-4.86,40.38-29.86,71-27.66c0,0,23.55-.48,48.22,33.27s74,92.34,142.43,67.29c0,0,4.11-2.24,4.11,1.5,0,0,1.87,14.57-4.48,23.92s-28,47.12-151.77,81.12c0,0-55,16.45-94.58,44.86,0,0-3.74,4.11-6.73,1.12,0,0-4.49-6.73-1.12-10.09s26-22.06,84.85-39.25S638,554.39,691.43,495c0,0,.89-.28.64-1.63,0,0-.64-1.74-2.51.13,0,0-42.61,43-128.22,68.79S472,586.51,428.26,620.93"/>
<path class="cls-5" d="M426.39,567.47h-7.1s-1.49.37-1.49-2.24c0,0-.38-110.28,47.47-160.74,0,0,0-1.13,2.62-1.13l6.72-.26s2.64.26,0,3.25c0,0-43.75,43.48-46.37,157.76,0,0,0,3.64-1.87,3.36"/>
<path class="cls-5" d="M426,580.18a2.32,2.32,0,0,1,2.24,1.87v23.17s0,2.25-1.87,2.25h-6.73s-1.49.37-1.49-2.25V582.05s-.47-2.13,2.28-2.13Z"/>
<path class="cls-7" d="M537,609.88s88.6-29.55,105.79-37.66a3.92,3.92,0,0,1,5.43,2.35s19.63,37,16.63,87.48c0,0-2.38,65.79-37.08,66.54,0,0-19.37.75-32.08-12,0,0-1.87-2.61-5.23.38,0,0-11.62,9.72-16.65,15.7S558.94,748.12,537,747.14c0,0-31-1.06-29.07-28.5,0,0,.37-11,12.33-40.52s15.33-44,14.58-63.29c0,0-.75-4.37,2.24-5"/>
<path class="cls-8" d="M531.89,324.56s-2.24-8.6-2.24-26.17c0,0-4.49-98.52,129-95.6,0,0,145.42-6.83,196.26,210.73,0,0,0,7.11,5.61,3.74a229.79,229.79,0,0,0,32.94-23.17s6.87-4.11,5.84-15.7c0,0,.1-9-7.38-21.31,0,0-6.73-12-23.92-28,0,0-5.61-5.89,0-15.28s34.62-45.28,35.88-71.82c0,0,3.74-29.15-19.81-29.15H842.16s-22,1.49-12.33-26.92S847,133.16,847,133.16s12.34-46.22-20.19-61.8c0,0-33.64-18.57-61.68,5,0,0-26.54,26.54-38.13,38.87,0,0-5.23,6.74-10.47,6.36,0,0-5.6.8-11.21-9.32,0,0-11.59-38.81-32.15-55.49s-38.13-30.14-38.13-30.14S613,7.93,582.35,25.13c0,0-28.08,17.56-13.1,47.1l28.06,46.35s10.47,14.58,1.49,23.93c0,0-3.83,5.23-20.79-1.5s-58.09-28.76-94.35-28.76c0,0-61.82,2.22-60.44,47.08,0,0,1,37.61,37.64,37.61,0,0,12,.14,35.51-6.59,0,0,5.24-2.24,3,3.37,0,0-6.72,12.71-22.05,30.28,0,0-12.71,13.08-10.28,37.19,0,0,2.05,25.61,23.74,42.06,0,0,11.58,8.22,41.12,21.31"/>
</g>
</g>
</svg>
