<?xml version="1.0" encoding="UTF-8"?>
<svg width="400" height="400" version="1.1" viewBox="0 0 105.83333 105.83333" xmlns="http://www.w3.org/2000/svg">
<g transform="translate(4.8168 -20.471)">
<ellipse cx="45.033" cy="73.304" rx="44.542" ry="45.39" fill="#fff" style="paint-order:stroke fill markers"/>
<path d="m48.968 20.984c-0.1435 0.0021-0.29346 0.04234-0.4474 0.1326-1.9923 1.1682-0.76408 4.7038-4.0023 4.8241-2.4811 0.09211-3.4984-4.7351-5.3068-4.0506-2.268 0.85862-0.04039 5.2405-3.728 5.6642-2.3934 0.27497-3.5435-3.9192-5.4636-3.1843-1.1766 0.45035-0.66562 2.3126-0.58108 3.2154 0.12463 1.3318-0.81368 2.6022-2.0214 3.0635-2.5106 0.95927-4.151-3.1173-6.1067-2.0134-0.92409 0.52167-0.43543 2.0674-0.18542 2.8452 0.44578 1.3858 0.28066 2.7063-0.97079 3.6295-2.4417 1.801-4.5898-1.9855-6.4269-0.42795-1.7038 1.4445 1.8124 4.2463-0.2016 6.3677-2.0366 2.1448-5.1811-1.1721-6.5918 0.54575-1.385 1.6867 2.6792 3.9398 1.36 6.2784-1.679 2.976-4.5555 0.02675-6.1029 1.8222-1.6722 1.9404 3.0027 3.6402 1.9702 6.2932-1.1566 2.9719-4.4035 0.73802-5.5736 2.6341-1.375 2.228 3.3979 3.0713 3.1453 5.6439-0.13582 1.3818-1.2327 2.4979-2.5486 2.7884-0.87198 0.19285-2.3714 0.12678-2.5577 1.2759-0.45738 2.8201 5.2153 2.173 4.0411 5.9989-0.61661 2.0092-4.6181 2.1243-4.3608 4.2029 0.13837 1.1182 1.8871 1.2117 2.7156 1.3494 1.3281 0.22053 2.4621 1.3671 2.5663 2.7254 0.20271 2.6416-4.0834 3.2658-3.5571 5.3491 0.29062 1.15 1.8655 0.97619 2.7658 0.98107 1.5657 7e-3 3.1047 0.90735 3.3533 2.5972 0.31397 2.1341-3.6708 3.9617-2.5426 5.6568 1.2718 1.9109 4.7607-1.0579 6.3897 1.8098 1.2835 2.2597-2.8246 5.0553-1.139 6.5565 1.6726 1.4895 4.1736-1.9987 6.2851 0.29037 1.1266 1.2214 0.98146 2.482 0.28676 3.8652-0.38637 0.76918-1.0745 2.1573-0.18705 2.8234 1.7947 1.347 4.0319-2.48 6.4269-0.74592 1.415 1.0248 1.3792 2.4136 0.9557 3.9278-0.21746 0.7783-0.61272 2.1725 0.36061 2.6198 2.0315 0.93376 3.4159-3.1482 5.9461-2.046 1.1238 0.48971 2.031 1.5618 2.0003 2.8348-0.02543 0.98605-0.69918 3.1403 0.74926 3.4693 2.1483 0.48772 2.8303-3.7394 5.6394-3.0582 1.3829 0.33546 2.2436 1.6313 2.3917 2.9975 0.09512 0.87598-0.0593 2.4423 1.1643 2.5952 2.0942 0.262 2.2906-4.3081 5.1558-4.0234 2.8484 0.28306 2.3151 4.8176 4.3559 4.8176 1.2303 0 1.4361-1.6901 1.7341-2.5779 0.49384-1.471 1.8498-2.5071 3.4288-2.255 1.9024 0.30369 2.8323 4.412 4.4998 3.8642 2.0068-0.65932 0.45901-4.6582 3.2439-5.5364 1.7151-0.54099 2.8482 0.57081 3.8309 1.8147 0.47784 0.60496 1.3993 1.4976 2.2321 0.94709 0.96072-0.63517 0.42886-2.3045 0.41129-3.2169-0.02544-1.2408 0.82502-2.3458 1.9146-2.8545 2.4204-1.1299 4.3368 3.0006 6.0792 1.8286 0.87989-0.5918 0.20727-2.4135 0.01297-3.1942-0.31313-1.2576 0.17372-2.3842 1.1702-3.1823 2.3028-1.8447 4.5442 1.9232 6.2506 0.31158 1.4794-1.3973-1.6839-4.0171 0.07384-6.0541 0.8323-0.96441 1.9526-1.4416 3.1916-1.0412 0.88071 0.28455 2.4363 1.2822 3.2439 0.31947 1.4205-1.6932-2.6542-3.8974-1.1514-6.2597 0.66277-1.0417 1.6584-1.723 2.9092-1.5949 0.92492 0.09445 2.3332 0.75431 3.0056-0.22774 1.3591-1.9854-3.0978-3.5217-1.9788-6.1305 1.1663-2.7189 4.545-0.83682 5.4496-2.7771 1.002-2.149-3.6944-2.9586-3.0029-5.8254 0.64417-2.6705 4.3531-1.5372 4.8642-3.5733 0.54526-2.1717-4.0053-2.218-4.0481-4.867-0.04914-3.0492 4.221-2.5213 4.3888-4.863 0.11115-1.5495-4.1016-1.6232-4.8755-3.2524-1.6275-3.4259 3.8737-3.8228 3.2223-6.313-0.40208-1.5367-4.4182-0.52805-5.5143-2.4522-1.7461-3.0657 3.1495-4.141 2.1917-6.4687-0.44009-1.0691-2.0808-0.57848-2.8962-0.41906-1.3388 0.26164-2.5524-0.21449-3.2973-1.3922-1.637-2.5885 2.4354-4.2301 1.326-6.3036-0.83811-1.5665-4.2455 0.93038-5.7725-0.12957-1.5675-1.0881-1.7897-2.6718-0.94546-4.2768 0.38847-0.73851 1.1576-2.5082 0.11481-3.0729-1.4784-0.8005-3.272 1.7577-4.9774 1.3868-1.992-0.43339-2.7077-2.3776-2.2117-4.1571 0.23629-0.84677 0.6939-2.563-0.37894-3.0379-1.8748-0.83007-3.3008 3.1616-5.7984 1.9972-1.8561-0.86543-1.9019-2.3791-1.7896-4.1531 0.04729-0.74946 0.02544-2.1003-0.96056-2.1988-2.1584-0.21611-2.6047 3.7228-5.3165 3.0862-1.8556-0.43562-2.3188-1.989-2.5361-3.6468-0.10175-0.77494-0.26552-2.191-1.3379-2.1673-2.1238 0.04699-1.9434 4.1451-4.6766 4.0717-2.3524-0.06304-2.6408-2.1584-3.3824-3.8519-0.23581-0.53844-0.74187-1.2542-1.3638-1.2453zm-0.18542 7.2586c4.8233-0.03396 9.8542 0.99375 14.289 2.4808 1.7464 0.58579 3.5278 1.2395 5.1618 2.1002 0.47917 0.25231 1.3964 1.0983 0.44793 1.4741-1.1293 0.44746-3.867-1.3763-4.9645-1.8098-3.6819-1.4543-7.69-2.2268-11.616-2.6026-5.6642-0.54245-11.531 0.25522-16.94 2.0287-1.1716 0.38419-5.3974 2.7885-6.3827 2.1323-1.3973-0.93101 2.9202-2.4222 3.4789-2.6341 4.3276-1.6418 8.66-2.4266 13.229-2.9689 1.0811-0.12841 2.1831-0.19285 3.2962-0.20076zm-0.60587 3.9805c2.1884-0.02327 4.3747 0.1305 6.505 0.46293 1.7346 0.27074 3.933 0.43216 5.2238 1.7694 0.88991 0.92175 1.2446 2.2701 0.9584 3.5181-0.25028 1.0925-1.4945 2.3393-0.0442 3.0971 3.1858 1.6648 6.328 2.8906 9.1889 5.181 1.4563 1.1659 3.277 3.9004 5.0011 4.4676 0.9259 0.30449 1.6116-0.9639 2.2586-1.4159 1.3266-0.92717 3.2399-0.79485 4.5112 0.15982 2.2973 1.7253 3.7698 5.7096 4.8136 8.3121 2.751 6.8583 3.6537 14.571 2.5415 21.926 0.13981 0.36665 0.21652 0.74518 0.17303 1.1433-0.02364 0.87355 0.0184 1.7452 0.04184 2.6184-0.03514 0.22775-0.07071 0.47142-0.16712 0.68577-0.01579 0.03513-0.06768 0.05653-0.0706 0.09468-0.0864 1.1273 0.38417-0.27757-0.43554 1.4751-0.06745 0.05303-0.1245 0.09887-0.18166 0.144-0.01829 0.06537-0.03003 0.09048-0.02588 0.03443-0.21671 0.11841 0.05842-0.03047-0.11321 0.54231-0.0707 0.2361-0.17929 0.46179-0.29431 0.68282-0.09632 0.18517-0.15767 0.2467-0.19943 0.23077-0.04843 0.58393-0.4842 1.099-0.78914 1.5845-0.14028 0.1889-0.19468 0.28732-0.22586 0.26573-0.04519 0.38577-0.1624 0.53226-0.36492 0.81542-0.25254 0.35574-0.33258 0.44439-0.49268 0.57287-0.30307 0.55601-0.5965 1.0686-0.80855 1.4342l-0.19187-0.20472c-0.25064 0.38838-0.15764 0.20658-0.60911-0.64881l-0.0318-0.03397c-0.04345 0.03513-0.07702 0.08165-0.11804 0.1198 0.30872 0.31108 0.53604 0.65872 0.57137 1.0915 0.06893 0.84663-0.69605 1.7511-1.1082 2.434-1.2405 2.0547-2.9285 5.119-5.7752 4.6545-1.3332-0.21751-2.8647-2.6414-4.033-2.187-2.6164 1.0178-4.2853 4.3408-7.0371 5.5364-0.0011 4e-3 -0.0016 8e-3 -0.0029 0.0116-0.03831 0.097-0.03729 0.22077-0.11374 0.3037-0.0921 0.10001-0.15248 0.13981-0.23395 0.14353h-5.51e-4c-0.14902 0.0587-0.21106 0.0835-0.2679 0.0793-0.2862 0.12074-0.60958 0.2535-1.0166 0.42844-0.23029 0.42042-0.47276 0.64108-0.65439 0.30614-1.2169 0.56564-2.488 1.2887-2.6359 2.0894-0.41385 2.2404 2.0867 3.6501-0.16817 5.9732-1.3381 1.3785-3.8099 1.6986-5.6124 2.0406-5.1771 0.98229-10.989 1.2769-16.133-0.0883-2.0905-0.55474-3.9177-2.1336-3.4741-4.5194 0.16507-0.88879 1.2804-2.15 0.59294-3.0029-0.74145-0.92001-2.9885-1.3694-4.0562-1.9065-2.6797-1.348-5.1308-2.9798-7.4214-4.9251-0.94427-0.80199-2.298-2.9224-3.549-3.1118-1.0478-0.15865-2.0518 1.5712-3.0655 1.9094 0.43954-0.69997 0.8584-1.4709 1.3196-2.1825-0.02243-0.0048-0.04516-0.0067-0.06687-0.01393-0.01169-0.0048-0.02013-0.01164-0.02638-0.02099-0.35042 0.60225-0.79677 1.2591-1.049 1.1477-0.0052 0.01631-0.01046 0.03186-0.01554 0.04789v0.37175h-0.27167c-0.0073 0.0048-0.01293 0.0095-0.01981 0.01393-0.2383 0.14213-0.43043 0.23719-0.60803 0.29876-0.16589 0.29841-0.43579 0.53336-0.87485 0.66115v-0.61627c-0.04695-0.0067-0.08845-0.01164-0.13908-0.02099-0.01046 0.15796-0.02211 0.33611-0.02211 0.47427l-5.44e-4 5.15e-4 -0.8064-0.16261 0.03504-0.56403c-0.07917-0.02881-0.15693-0.06115-0.23285-0.09653l0.03662 0.66065c-0.27796-0.2017-0.41535-0.52322-0.47219-0.88547-0.05466-0.0186-0.10044-0.03072-0.16171-0.05724-0.0094 0.20635-0.01199 0.4224-0.01199 0.61775-0.28659-0.2217-0.48917-0.54912-0.61558-0.92193-0.03421-0.01164-0.06937-0.02328-0.10295-0.03702-0.09356-0.03883-0.18069-0.09073-0.26467-0.14748l0.0073 0.13073c-0.84008-0.70013-1.1012-1.5298-1.1291-2.5965h-0.16171v0.81148h-0.16165c-2.229-5.2042-4.6054-9.7197-5.5245-15.42-0.25468-1.5793-0.61883-3.3676-0.028585-4.7462-0.00418-0.22891-0.0073-0.45791 0.012415-0.68626-0.060196-0.18983-0.081465-0.37393-0.077602-0.55759-0.11365 0.10468-0.22393 0.21123-0.3493 0.3086 0-7.2292 1.5715-14.45 5.1629-20.776 1.12-1.9727 2.3861-4.7471 4.5171-5.7776 1.244-0.6017 2.7523-0.4476 3.8713 0.36286 0.75857 0.54938 1.5637 2.1414 2.6747 1.4351 2.3762-1.5106 4.2417-3.8365 6.6829-5.3654 0.22078-0.13818 0.50781-0.26862 0.77782-0.4008 0.49218-0.53135 0.9842-0.78836 1.6451-0.76121 1.0411-0.46284 2.0642-0.9622 2.6423-1.6092 0.77874-0.8716-0.69164-2.738-0.70613-3.7902-0.0435-3.1429 2.8183-3.9199 5.3208-4.476 2.7065-0.6014 5.5235-0.9205 8.3372-0.94955zm-28.964 65.226c0.0083-0.02814 0.01554-0.05629 0.02263-0.08491-0.01271 0.01164-0.02547 0.02099-0.03829 0.03205v0.04236c0.0052 0.0019 0.01046 0.0067 0.01554 0.0095zm0.02263-0.08491c0.06415-0.05562 0.12254-0.10817 0.15955-0.14492 0.25088-0.24938 0.32671-0.37254 0.36816-0.54673-0.05341 0.08748-0.08387 0.09349-0.17196 0.0977l-0.07113 0.28693h-0.16172l0.02858-0.23077c-0.01096 0.0019-0.02137 0.0019-0.02963 0.0048-0.01607 0.2882-2.8e-4 0.26098-0.07552 0.31158-0.01326 0.07441-0.02784 0.14866-0.04642 0.22193zm0.04631-0.22192c0.01835-0.10236 0.03474-0.20495 0.05122-0.30763-0.04204 0.0067-0.08961 0.01393-0.13585 0.0186v0.35989c0.03537-0.03396 0.06467-0.05858 0.0846-0.07184zm0.48136-0.46982c0.01502-0.02442 0.04059-0.06745 0.06362-0.10654-0.01574 0.0067-0.02952 0.01631-0.04642 0.02328-0.0052 0.02976-0.01096 0.05657-0.01731 0.08329zm0.06362-0.10654c0.05612-0.02767 0.10652-0.05629 0.13692-0.08376 0.11407-0.10305 0.18834-0.23444 0.26359-0.3653-0.0052-0.01631-0.0094-0.03539-0.01065-0.05419-0.05758 0.05743-0.11478 0.11539-0.17679 0.16773-0.1059 0.15702-0.16701 0.25783-0.21291 0.33573zm5.9428-60.18c4.5056 0.05374 4.8118 7.2246 0.03453 7.6446-4.933 0.43372-5.3928-7.1957-0.48351-7.6273 0.15405-0.01396 0.30368-0.0186 0.44901-0.01628zm46.025 0.27904c4.2837-0.07536 5.1923 6.7032 0.63444 7.5623-4.788 0.9026-6.137-6.6795-1.2904-7.4996 0.22675-0.03838 0.44533-0.05885 0.656-0.06257zm-53.717 3.8893c0.13071 7e-3 0.25522 0.05234 0.3687 0.15144 0.63404 0.55282-0.3509 1.4448-0.70938 1.8123-1.6006 1.6413-3.0876 3.35-4.4562 5.1938-4.6983 6.3302-7.5739 14.055-8.3 21.912-0.16481 1.782 0.74611 7.4504-1.4397 7.791-1.7817-9.6554 2.2545-21.135 7.5039-29.054 1.4926-2.2516 3.2278-4.3761 5.0858-6.3302 0.35149-0.36962 1.2412-1.5097 1.947-1.4766zm61.226 0.39982c0.89644-0.01396 2.0178 1.5612 2.4553 2.0509 2.3153 2.5918 4.2888 5.4145 5.9967 8.4398 4.9013 8.6819 6.6088 19.068 5.0939 28.892-0.53095 3.4426-1.771 6.5719-2.6741 9.9006-1.345-1.5575-0.51389-2.791-0.05973-4.5445 0.75488-2.9166 1.5349-5.898 1.6667-8.9269 0.40497-9.3037-1.4377-18.486-6.4555-26.457-1.5949-2.5334-3.438-4.7896-5.462-6.9795-0.37109-0.40154-1.7665-1.7281-0.92875-2.2649 0.11624-0.07445 0.23955-0.10864 0.36762-0.1105zm-47.298 4.0254c0.0047 0.0186 0.01171 0.03605 0.0173 0.05421 0.01221-0.0047 0.02467-7e-3 0.03666-0.01162-0.0196-0.01629-0.03401-0.02675-0.05389-0.04234zm-19.159 19.317c-0.07104 0.05258-0.13847 0.11818-0.20752 0.17749 0.0041 0.26695-0.15149 0.77652-0.05392 0.59163 0.24674-0.46745 0.29035-0.67691 0.26143-0.7691zm-3.432 6.8868c-0.030249 0.07375-0.064779 0.14493-0.095446 0.21844 0.00418-1.17e-4 0.01116-0.0024 0.015023-0.0024 0.018039-0.03861 0.032438-0.07328 0.052257-0.11376 0.00632-0.03466 0.020131-0.06724 0.02806-0.1012zm-0.02806 0.1012c-0.00632 0.03373-0.0073 0.06932-0.010644 0.10399 0.015227-0.0024 0.02337-7.68e-4 0.046945-0.01163 9.6e-6 -0.05397 0-0.10817 0-0.16214-0.01116 0.02326-0.025462 0.04769-0.036086 0.06957zm0.06365 1.0038c-0.027632 0.05349-0.048813 0.09165-0.074372 0.14004 0.068214-0.03419 0.097734-0.04095 0.1741-0.08142 0.056431-0.02978-0.00836-0.04978-0.099722-0.05863zm-0.28352 0.01629c-0.024197 7e-3 -0.04496 0.01628-0.059875 0.02652-0.00526 0.0046-0.00934 0.0093-0.015023 0.01396 0.00214 0.0391 0.00526 0.0784 0.00934 0.11887 0.026289-7e-3 0.044542-7e-3 0.080307-0.02326 5.526e-4 -3.97e-4 0.00108-6.05e-4 0.00214-9.16e-4 -0.00836-0.05328-0.00934-0.08584-0.016803-0.134zm0.016803 0.13399v5.13e-4c-5.517e-4 2.79e-4 -0.00108 9.2e-5 -0.00214 5.11e-4 -0.022845 0.01396-0.053717 0.03187-0.078138 0.04676 0.00204 0.02094 0.00312 0.04259 0.00622 0.06466 0.056539-0.02583 0.10972-0.04978 0.17356-0.08096 0.00632-0.03909 0.016267-0.07747 0.025462-0.11585-0.041408 0.02791-0.07803 0.05443-0.12507 0.0842zm-0.16818-0.03048c-0.018253 0.01628-0.038382 0.03048-0.056013 0.04745 0.0073 0.01629 0.028906 0.02094 0.052257 0.02326-8.24e-4 -0.02094 0.00312-0.04723 0.00418-0.07048zm0.00418 0.12864c-0.05143 0.03073-0.096176 0.05932-0.15416 0.09211-0.039112 0.02326-0.053619 0.01163-0.053921-0.01628-0.034422 0.03978-0.066871 0.08142-0.099722 0.12283 0.075627-0.02838 0.21904-0.10399 0.31587-0.14702-0.00418-0.01628-0.00632-0.03466-0.00827-0.0528zm-1.3551 3.4047-0.084073 0.33771 0.083547-0.12632c0-0.07049 5.536e-4 -0.14097 5.536e-4 -0.21146zm-2.6644 1.6368v1.6235h-0.16173zm-0.48406 0.48757 0.16118 2.5967h-0.16118zm-0.64521 0.32489h0.32288v3.246h-0.16175zm7.4209 0.55662v0.02419c0.01199 0.02326 0.02212 0.04536 0.03285 0.06793h0.12882l-0.01502-0.09212c-0.0483 0.0022-0.10086-0.0046-0.14664 0zm0.80694 0.05422v0.20006h0.10295c-0.03548-0.06724-0.06717-0.13213-0.10295-0.20006zm-6.9368 0.84994c1.1593 3.6882 1.686 7.4023 3.1625 11.037 0.82392 2.028 2.6257 4.101 2.6456 6.3302h0.16118v-0.64928h0.16172c0.99702 1.6328 2.3747 2.989 1.7745 5.0316l-0.32235-1.9479h-0.16171v1.2986c-1.337-1.1116-3.0495-3.5877-3.0655-5.356h-0.16118v0.48707h-0.16173c-2.2948-4.3877-6.3812-11.357-4.0331-16.231zm6.9374 6.6551v0.0093c5.44e-4 1.86e-4 0.0011 2.32e-4 0.0021 5.12e-4zm76.793 3.0843c1.3979 1.8896-0.3346 4.9453-1.7745 6.4924l-0.80642-0.9737zm-11.615 3.0147c-0.08673 0.03072-0.17466 0.05863-0.26305 0.08537 0.02792 0.0349 0.0553 0.06956 0.08463 0.10492 0.05234 0.03211 0.10291 0.06724 0.15902 0.09259 0.03676-0.08955 0.05807-0.1533 0.08408-0.22472zm-18.147 1.2222c0.08442 0.07304 0.14966 0.154 0.21561 0.23416 0.0069-0.04978 0.0127-0.09979 0.01831-0.14981-0.07948-0.02559-0.15388-0.05979-0.23395-0.08421zm-35.948 0.37172-0.05769 0.0577c0.0073 0.01628 0.01199 0.02326 0.02065 0.05188 0.0145-7.7e-4 0.02963 9.3e-5 0.04422-5.13e-4 -0.0032-0.03954-0.0032-0.06442-0.0073-0.10887zm62.805 1.2335h0.32234c1.4423 2.4197-3.2702 6.8555-4.8481 8.6-0.48995 0.54178-1.9589 2.5222-2.8224 1.9429-0.92588-0.62119 1.1165-2.1978 1.499-2.6361 2.1781-2.4955 4.1199-5.0747 5.849-7.9068zm-75.826 0.1626v1.7852h0.16172zm70.781 0.3032c-0.01527 0.0048-0.03046 0.0095-0.04582 0.01393 0.0685 0.04303 0.1947 0.13794 0.2501 0.16958zm-61.06 0.10352c-0.0011 2.58e-4 -0.0032 7.73e-4 -0.0041 9.16e-4 -1.04e-4 5.15e-4 -5.5e-4 9.54e-4 -5.5e-4 0.0019 0.0011-5.15e-4 0.0032-5.15e-4 0.0041-9.54e-4 4.2e-5 -5.06e-4 5.53e-4 -9.16e-4 5.53e-4 -0.0019zm-5.7434 0.01631c2.51e-4 0.0019 2.61e-4 0.0048 5.53e-4 0.0067 0.02681 0.04465 0.09158 0.10539 0.06843 0.07632-0.02712-0.03396-0.04705-0.05743-0.06894-0.08376zm5.7402 0.02099c-0.0022 9.54e-4 -0.0063 0.0019-0.0084 0.0048-0.0041 0.02099-0.0084 0.04284-0.01243 0.06354 0.0063-0.0048 0.01115-0.0095 0.01681-0.01393 0.0011-0.0186 0.0032-0.03578 0.0041-0.05467zm-2.7243 0.33573c-0.01199 2.29e-4 -0.02368 1.82e-4 -0.03557 5.06e-4 0.02754 0.05094 0.03264 0.11702 0.05341 0.17262 5.52e-4 -0.04865-0.0062-0.10981-0.01783-0.17308zm2.6822 0.0048c-0.0094 0.0067-0.01856 0.01164-0.02805 0.0186-0.0073 0.05257-0.01471 0.0991-0.02159 0.1419 0.02263-0.05028 0.03723-0.10468 0.04965-0.15982zm-0.64145 0.0095v0.43534c0.04756-0.0095 0.10517-0.02328 0.14284-0.0291 0.0052-0.02929 0.01045-0.05867 0.01553-0.08767-0.04923-7.64e-4 -0.0699-0.0186-0.03234-0.06029 0.0362-0.04112 0.06687-0.07327 0.0992-0.10794l0.01116-0.09168c-0.07875-0.0186-0.15769-0.03883-0.23664-0.05867zm0.15849 0.31849c0.0032 4.8e-5 0.0073-9.54e-4 0.01046-9.54e-4 0.0022-0.03253 0.0032-0.05276 0.0063-0.0912-0.0063 0.03053-0.01063 0.06144-0.01627 0.09216zm0.01046-9.54e-4c-0.0022 0.03072-0.0041 0.06048-0.0063 0.08634 0.01523-0.0019 0.01826-9.54e-4 0.03182-0.0019l0.01064-0.09025c-0.01064 9.54e-4 -0.02753 0.0067-0.03661 0.0067zm0.39296-0.10887c-0.04475 0.0186-0.09096 0.03301-0.13692 0.04837l-0.02806 0.1133c0.07113-0.04074 0.12601-0.0954 0.16495-0.16168zm-4.834 0.57989c0.0063 0.0019 0.05424 0.02099 0.09429 0.03787-0.0021-0.0048-0.0021-0.01164-0.0041-0.01631-0.05925-0.01393-0.10336-0.02748-0.09054-0.02089zm0.73848 0.20564c-0.0022 0.04303-1.13e-4 0.08491-0.0022 0.12772 0.03306 0.01393 0.08835 0.03492 0.14338 0.05629-0.0041-0.03301 0.0011-0.06936-0.0022-0.10305-0.04663-0.02719-0.09263-0.05075-0.13962-0.081zm0.58431 0.3101 0.0022 0.03749c0.0041 0.0019 0.0032 0.0019 5.54e-4 0.0048l0.0041 0.08424c0.01242 0.0095 0.02389 0.02089 0.03776 0.02767 0.06123 0.03139 0.13038 0.04465 0.20052 0.05581l0.0073-0.11282c-0.08292-0.03072-0.15103-0.05276-0.25226-0.09723zm-2.6968 2.2875 0.16171 2.2698h0.16119l0.16171-1.4608h0.1617l0.16118 2.1101h0.16172v-1.4608l0.32288 1.1359 0.80639-0.16216c0.46447 0.66337 1.0451 1.2109 1.6133 1.7857 0.29378 0.2972 2.1463 2.3121 0.63607 2.3319-0.78134 0.01-1.4882-1.0098-1.954-1.5214-1.2656-1.3906-3.2841-2.8886-2.3938-5.0282zm52.919 2.6928c-0.01348 0.0139-0.02599 0.0298-0.03829 0.0453-0.0076 0.01 0.0088 0.0277 0.02213 0.0301 0.01984-2e-3 0.04067-8e-3 0.06252-0.0116-0.01348-0.0233-0.02913-0.0425-0.04314-0.0647-9.11e-4 -7e-5 -0.0018 4e-5 -0.0029 0zm-0.1229 0.0789c-0.05383 0.01-0.0666 0.0115-0.08841 0.0233 0.03051-2e-3 0.06579-8e-3 0.10726-0.0139-0.0061-5e-3 -0.01221-8e-3 -0.01882-0.01zm5.4561 8e-3c0.17186-2e-3 0.33164 8e-3 0.47327 0.0316 6.5834 1.1508 1.0175 11.23-3.4962 6.4091-0.45513-0.48614-0.7627-1.1078-0.91096-1.7556-0.19381-0.84661-0.01527-1.6177 0.21292-2.4345l1.2904 0.48658c-2.001-1.4222 0.76912-2.7055 2.4305-2.7372zm-5.3429 0.10258c-0.02551 5e-3 -0.04825 0.01-0.06415 0.0139-0.03123 0.01-0.06011 0.0254-0.08947 0.0396 0.03237 0.0589 0.06429 0.11865 0.09377 0.181 9.11e-4 -1.1e-4 0.0018-2.4e-4 0.0029-5e-4 0.01527-0.0186 0.0318-0.0444 0.05013-0.0783 0.02916-0.054 0.02912-0.10818 0.0071-0.15587zm0.2237 0.0463c-1.66e-4 5.2e-4 -9.12e-4 5e-3 -0.0023 0.01-0.0014 8e-3 -0.0029 0.0139-0.0042 0.0246 0.0038-0.0187 0.0069-0.0354 0.0064-0.034zm-41.182 0.15425c4.2914 0.0139 5.292 6.7531 0.63391 7.5746-4.9816 0.87859-6.2619-6.7952-1.2905-7.5263 0.22671-0.0332 0.4455-0.0491 0.65654-0.0484zm42.619 9.6106c0.9937 0.0263 0.36259 1.2234-0.36169 1.6176-8.9344 4.8602-20.294 5.3137-30.007 3.2169-2.5487-0.55029-5.0295-1.4257-7.4214-2.4591-0.53726-0.23217-2.4284-0.80824-1.9222-1.7097 0.43593-0.77619 1.7174-0.0186 2.2451 0.23169 2.2659 1.0829 4.6818 1.7904 7.0985 2.4335 7.3355 1.9518 15.144 1.6386 22.425-0.40282 2.5231-0.70748 5.0522-2.4509 7.582-2.8964 0.13928-0.0244 0.25943-0.0341 0.36223-0.0317z" fill="#fff" style="paint-order:markers fill stroke"/>
<path d="m48.521 23.514c-1.91 1.1132-0.73264 4.4821-3.8371 4.5967-2.3786 0.08778-3.3541-4.5119-5.0878-3.8596-2.1743 0.81813-0.03828 4.9938-3.5735 5.3976-2.2945 0.26203-3.3973-3.7346-5.2381-3.0344-1.128 0.42914-0.63801 2.2033-0.55696 3.0636 0.11948 1.269-0.78046 2.4801-1.9383 2.9196-2.4069 0.91408-3.9796-2.9707-5.8544-1.9188-0.88592 0.49712-0.41743 1.97-0.17776 2.7111 0.42735 1.3205 0.26944 2.5789-0.9303 3.4587-2.3409 1.7161-4.4002-1.8922-6.1614-0.40802-1.6334 1.3765 1.7372 4.0465-0.19361 6.068-1.9525 2.0438-4.9671-1.1171-6.3195 0.51984-1.3278 1.6073 2.5687 3.7544 1.304 5.9828-1.6096 2.8358-4.3673 0.02585-5.8509 1.7366-1.6031 1.849 2.8789 3.4687 1.8891 5.9967-1.1088 2.8319-4.2218 0.70311-5.3435 2.5099-1.3182 2.1231 3.2577 2.9266 3.0155 5.378-0.13021 1.3167-1.1823 2.3805-2.4437 2.6573-0.83596 0.18361-2.2731 0.12094-2.4517 1.216-0.43847 2.6873 4.9998 2.0704 3.8742 5.716-0.59114 1.9146-4.4272 2.0244-4.1806 4.0051 0.13265 1.0655 1.8091 1.1548 2.6034 1.2859 1.2732 0.21019 2.3602 1.3028 2.4601 2.597 0.19434 2.5172-3.9145 3.112-3.41 5.0972 0.27861 1.0958 1.7881 0.93032 2.6512 0.93496 1.501 0.0073 2.9765 0.86429 3.2149 2.4745 0.301 2.0336-3.5193 3.7752-2.4377 5.3904 1.2192 1.8209 4.5644-1.0083 6.126 1.7244 1.2305 2.1532-2.7079 4.8174-1.0919 6.2479 1.6035 1.4194 4.0013-1.9047 6.0256 0.27654 1.08 1.1638 0.94083 2.3653 0.27483 3.6834-0.37042 0.73293-1.0302 2.0558-0.17947 2.6906 1.7205 1.2836 3.8653-2.3633 6.1613-0.71085 1.3566 0.97656 1.3222 2.3 0.91626 3.7429-0.20848 0.74162-0.58744 2.0697 0.34569 2.496 1.9475 0.88978 3.2747-2.9999 5.7004-1.9496 1.0774 0.46664 1.9475 1.4885 1.9181 2.7016-0.02438 0.9396-0.67063 2.9922 0.71796 3.3057 2.0596 0.46476 2.7135-3.563 5.4065-2.9139 1.3258 0.31968 2.1511 1.5544 2.2931 2.8562 0.0912 0.83474-0.0573 2.3273 1.1158 2.473 2.0077 0.24964 2.1962-4.1053 4.9431-3.834 2.7308 0.26974 2.2195 4.591 4.176 4.591 1.1795 0 1.3768-1.6105 1.6625-2.4566 0.47344-1.4017 1.7731-2.3888 3.2868-2.1486 1.8238 0.28936 2.7158 4.2038 4.3144 3.6818 1.9239-0.62826 0.43972-4.4386 3.1096-5.2755 1.6442-0.51551 2.7305 0.54395 3.6726 1.7293 0.4581 0.57646 1.3416 1.4271 2.1399 0.90248 0.92103-0.60521 0.41109-2.1961 0.39424-3.0655-0.02438-1.1824 0.79129-2.2352 1.8359-2.72 2.3204-1.0766 4.1577 2.859 5.8281 1.7421 0.84354-0.56393 0.19849-2.2996 0.01219-3.0435-0.30019-1.1984 0.16679-2.2719 1.1221-3.0324 2.2077-1.7578 4.3562 1.8323 5.9921 0.29663 1.4183-1.3315-1.6144-3.8275 0.07071-5.7686 0.79792-0.91901 1.8724-1.3739 3.0602-0.99234 0.84432 0.27116 2.3355 1.2216 3.1097 0.30424 1.3618-1.6135-2.5444-3.7138-1.1037-5.9648 0.63538-0.99263 1.5895-1.6418 2.7886-1.5197 0.8867 0.09022 2.2371 0.71904 2.8817-0.21677 1.3029-1.8919-2.9697-3.3561-1.897-5.842 1.1181-2.5908 4.3571-0.79714 5.2243-2.646 0.9606-2.0478-3.5416-2.8196-2.8787-5.5513 0.61757-2.5447 4.1729-1.4647 4.6629-3.405 0.52275-2.0694-3.8398-2.1135-3.8807-4.6377-0.0471-2.9056 4.0465-2.4024 4.2074-4.6338 0.10656-1.4766-3.9321-1.5471-4.674-3.0995-1.5603-3.2645 3.714-3.6424 3.0894-6.0153-0.38546-1.4644-4.2358-0.50329-5.2866-2.3368-1.6739-2.9213 3.0192-3.9461 2.101-6.1642-0.42192-1.0188-1.9947-0.5514-2.7764-0.39951-1.2835 0.24933-2.4468-0.20409-3.1609-1.3264-1.5694-2.4666 2.3347-4.0309 1.2712-6.0068-0.80348-1.4927-4.0702 0.88641-5.5341-0.12387-1.5027-1.0369-1.716-2.5455-0.90662-4.075 0.37242-0.70372 1.1099-2.3902 0.11022-2.9283-1.4173-0.76281-3.1368 1.6747-4.7718 1.3213-1.9097-0.41297-2.596-2.2654-2.1205-3.961 0.22653-0.80687 0.6652-2.4422-0.36332-2.8947-1.7973-0.79097-3.1645 3.0123-5.5588 1.9027-1.7794-0.82467-1.8229-2.2669-1.7152-3.9573 0.04535-0.71418 0.02438-2.0014-0.92089-2.0953-2.0693-0.20605-2.4974 3.5474-5.0972 2.9408-1.779-0.41511-2.2227-1.8952-2.431-3.4748-0.09754-0.73845-0.25474-2.0879-1.2828-2.0652-2.036 0.04487-1.8631 3.9498-4.4835 3.8799-2.2552-0.06023-2.5317-2.0569-3.2427-3.6706-0.27825-0.63152-0.94905-1.5188-1.7361-1.06m-2.9091 6.9814c5.5274-0.65227 11.626 0.42857 16.859 2.1726 1.6743 0.55818 3.3821 1.1813 4.9485 2.0015 0.45937 0.24043 1.3386 1.0466 0.42935 1.4047-1.0827 0.4264-3.707-1.3119-4.7592-1.725-3.5298-1.3858-7.3725-2.1217-11.136-2.4798-5.4302-0.51689-11.055 0.24335-16.24 1.9333-1.1232 0.36608-5.1744 2.657-6.1189 2.0317-1.3396-0.88716 2.7993-2.3082 3.3349-2.5102 4.1488-1.5645 8.3025-2.3121 12.683-2.8288m40.522 54.553h-0.15484c-1.4805-2.2988-3.8321-2.7489-6.1866-3.6911-1.0229-0.40941-2.4719-0.74518-2.7085-2.0292-0.69446-3.7661 6.2525-2.2507 6.9856-5.725 0.21556-1.0217-0.3047-1.9816-0.53823-2.9387-0.47512-1.9466 0.12314-5.0653-1.3168-6.6058-1.0092-1.0797-3.3371-1.297-4.1101-2.4745-0.3743-0.57039 1.0599-1.5913 1.3142-2.0563 0.67373-1.2312 0.59792-2.6418-0.04145-3.8659-1.9117-3.6602-5.4828-1.209-8.2461-0.69121-1.9654 0.36827-4.5313 0.28149-6.1866 1.4446-1.4554 1.0225-2.7951 2.9215-4.4853 3.4224l-2.4747-4.9493h-0.30931c-1.1781 2.2521-3.9347 4.8696-6.3413 5.6216-0.71533 0.2236-1.7449 0.78324-2.5027 0.45364-0.63984-0.27839-0.91808-1.2457-1.3802-1.7423-1.0228-1.0989-2.3865-1.5188-3.8504-1.549-0.402-3.4764-3.1485-5.0966-5.3476-7.4384-1.7923-1.9089-2.9501-4.0724-5.1697-5.5536-1.7168 4.1845-4.3033 9.7262-7.9322 12.62-1.652 1.3174-3.7941 1.89-5.5237 3.1014-1.0629 0.74425-1.3399 2.1101-2.3362 2.7962-1.0879 0.74903-2.3604 0.80504-3.3573 1.7898-2.5998 2.5679-2.0437 6.9686-4.9784 9.2336 0-6.8887 1.5064-13.769 4.9494-19.797 1.0737-1.8798 2.2875-4.5237 4.3305-5.5056 1.1926-0.57334 2.6386-0.42657 3.7114 0.34569 0.72723 0.52352 1.4993 2.0408 2.5644 1.3678 2.2781-1.4395 4.0665-3.6558 6.4069-5.1128 1.3394-0.83381 3.8312-1.5009 4.8561-2.6408 0.74657-0.83054-0.66322-2.6089-0.67712-3.6116-0.0417-2.9948 2.7019-3.7352 5.101-4.2651 4.6128-1.0188 9.5612-1.188 14.229-0.464 1.663 0.25798 3.7706 0.41187 5.0081 1.6862 0.85315 0.87834 1.1929 2.163 0.91857 3.3522-0.23994 1.0411-1.4328 2.2295-0.04243 2.9516 3.0542 1.5864 6.0665 2.7544 8.8092 4.9369 1.3962 1.111 3.1416 3.7166 4.7945 4.2572 0.88765 0.29017 1.5454-0.91884 2.1657-1.3496 1.2718-0.88348 3.1057-0.7571 4.3244 0.15264 2.2024 1.6441 3.6143 5.4407 4.6149 7.9206 3.3662 8.3411 3.8611 18.011 1.1138 26.603m-59.856-46.968c4.726-0.41311 5.1917 6.8548 0.46398 7.2679-4.7292 0.41326-5.1705-6.8567-0.46398-7.2679m43.925 0.30887c4.6375-0.78012 5.8218 6.2876 1.2373 7.1465-4.5902 0.8601-5.8836-6.365-1.2373-7.1465m-64.805 38.771c-1.7081-9.2006 2.1618-20.139 7.1943-27.685 1.431-2.1455 3.0944-4.1699 4.8757-6.032 0.39936-0.41743 1.5236-1.866 2.2199-1.2627 0.60784 0.52679-0.3364 1.3765-0.68007 1.7267-1.5345 1.564-2.96 3.1923-4.272 4.9493-4.5042 6.032-7.2612 13.393-7.9574 20.88-0.15801 1.6981 0.71518 7.0995-1.3804 7.424m83.056 12.219c-1.2894-1.4842-0.4926-2.6596-0.0573-4.3307 0.72369-2.7792 1.4717-5.6204 1.598-8.5066 0.38822-8.8655-1.3784-17.615-6.1888-25.211-1.529-2.414-3.2962-4.5639-5.2366-6.6506-0.35576-0.38263-1.6934-1.6466-0.89026-2.1581 0.89148-0.56764 2.227 1.3154 2.7063 1.8487 2.2196 2.4697 4.1114 5.1598 5.7488 8.0426 4.6988 8.2729 6.3361 18.17 4.8838 27.531-0.50902 3.2805-1.6979 6.2627-2.5638 9.4346m-54.906-43.461-0.15484 0.1546 0.15484-0.1546m-0.30934 0.1546-0.15484 9.4346h-0.15484c0-2.5821-1.1755-7.2241 0.30934-9.4346m0.61867 0.1546c1.6633 0.87002 2.5962 2.9381 3.8011 4.3163 0.81123 0.92767 2.0697 1.3623 2.9241 2.2516 1.2548 1.3059 1.9049 3.2269 2.5548 4.8774h-0.15484l-0.30934-0.30934 0.13143 2.7577 1.5699 4.0476h0.15484l-1.392-6.032 0.30929 0.30934c2.2099-0.36147 5.3372 1.6755 5.4133 4.0213h0.30934v-0.61865h0.30934v1.0827h0.30934c0.01707-1.4214 2.4585-1.9527 3.712-2.4747 0 1.1371 0.30453 3.3601-0.77332 4.0213v-3.4026h-0.15484c0.16971 0.9133 0.46044 2.8854-0.30934 3.5573l0.15484-3.0933h-0.30931v3.4026h-0.15484l-0.1546-3.248h-0.30934c0.0018 2.818 0.25737 3.3909-2.32 4.9338-0.53886 0.32262-1.327 1.0197-2.0021 0.78168-0.82933-0.29249-0.96405-1.5728-1.5552-2.1582l0.30934 1.2373c-5.2107-2.6658-8.2604 3.4-12.992 4.4853 0.1246-1.5801 0.02707-3.7848 0.43074-5.2587 0.47729-1.7421 2.2504-3.4783 0.49724-5.104 0.666 1.2772 0.30731 3.463-0.92798 4.3307v-6.496h0.15459c0.0812 0.78848 0.37071 1.4654 1.0827 1.856l-0.85703-3.4027 0.96144-5.104-0.41375-5.568m-1.392 1.5467c5.85e-4 7.2939 1.074 15.035 0.15484 22.272h-0.15484c0-5.4144-0.33377-10.832-0.46632-16.24-0.04267-1.748-0.71996-4.5933 0.46632-6.032m-0.77334 1.392c0 5.6326 0.464 11.225 0.464 16.859 0 1.5443 0.89304 4.7648-0.77332 5.568 0-5.4189-0.30934-10.816-0.30934-16.24 0-1.7837-0.57722-4.7362 0.61865-6.1866m2.0107 0.30934 0.15484 3.5573h-0.15484v-3.5573m-2.784 1.392c-0.87536 6.9267 0.30936 14.223 0.30936 21.189l-0.92798 0.15484c0.3404-5.0183-0.31736-10.257-0.30934-15.312 0.0024-1.7624-0.32262-4.7057 0.92798-6.032m-1.0826 1.7013c0.41509 1.5347 0 3.5038 0 5.104 0 3.4054 0.15484 6.8136 0.15484 10.208 0 1.2274 0.79251 4.1018-0.46398 4.7946-0.0024-4.8964-0.61867-9.7821-0.61867-14.693 0-1.6054-0.34894-4.2629 0.92798-5.4133m-0.77334 0.1546-0.15484 0.1546 0.15484-0.1546m-0.15484 1.2373c-0.61033 4.8296-0.16264 10.012 0.16874 14.848 0.08803 1.2882 1.0234 4.3877-0.63257 4.7946l-0.15484-5.7226h-0.1546c0 2.3404 0.44064 4.9134-0.61865 6.96h-0.15484l-0.45006-11.909-0.32326-5.8773h-0.15484c0.55169 4.3652 0.51319 8.9044 0.62096 13.301 0.05218 2.1288 0.50114 4.415-0.15703 6.496h-0.15484v-2.6293h-0.15484c0 0.97068 0.3514 2.5583-0.61867 3.0933l-0.15484-2.6293h-0.15484c0 1.1209 0.44096 2.9116-0.92801 3.248v-2.1653h-0.15459c0 1.0434 0.3067 2.4258-0.92801 2.784v-1.0827h-0.15484c-5.61e-4 0.73374 0.05535 1.2879-0.61867 1.7013v-0.61867h-0.30931l-2.32 2.784h-0.15484v-0.464h-0.15484l-0.15484 2.9387h0.15484v-0.30934h0.15484c-0.08315 2.8123-3.2539 3.4235-4.4219 5.568-1.0279 1.8871-0.0634 4.2901-0.0634 6.3413h0.15484v-2.1653h0.15484l0.15484 2.784c-0.8055-0.66737-1.0559-1.4582-1.0827-2.4746h-0.15484v0.77332h-0.15484c-2.1369-4.9591-4.4155-9.2617-5.2967-14.693-0.3565-2.1973-0.9866-4.8401 1.4301-6.032v1.7013c0.76498-0.87973 0.29666-2.0417 0.464-3.0933h0.15484l0.30934 2.1653h0.15484l-0.15484-3.4026h0.15484l0.464 2.4746-0.15484-4.3306h0.15484l0.46398 3.0933h0.15484c0.04487-1.0166-0.05096-2.4867-0.77334-3.248l0.30934-1.5467 1.0827-1.0827h0.15484l0.46398 5.104c0.04706-1.4803-0.95739-4.7881 0.15484-5.8773l0.1546 4.7946h0.30934c0-2.5582-1.0375-5.1337 1.856-6.1866l0.15484 5.4133h0.15484c-0.16557-1.3093-0.80026-5.1018 0.46398-5.8773l0.15484 5.4133h0.15484l-0.15484-5.4133 0.77332-0.46398 0.15484 5.4133h0.1546c0-2.3942-0.98877-6.9794 1.856-7.8879v7.5786h0.15484c-0.08364-1.9489-0.76995-8.0029 1.5467-8.3519l-0.30934 6.6506h0.15484l0.30934-6.96h0.30934c0 2.0291 1.1468 6.8633-0.464 8.3519l-0.15484-0.77334h-0.15484l-0.464 1.392 0.15484-8.1973h-0.30931v10.672h0.30931v-2.32h0.30934l0.15484 2.32h0.15484c-0.01951-0.98458-0.30375-2.187 0.464-2.9386l0.15484 2.32h0.15484c0-2.7856 0.23555-5.5862 0.01463-8.352-0.08437-1.0492-0.5831-2.4343 0.60536-2.9386l0.61867 11.291h0.15484l-0.32372-8.816-0.04706-2.5828 3.6187-3.7586h0.15484l0.15484 12.528h0.15484c0-3.2545-0.15484-6.4868-0.15484-9.7439 0-1.5062-0.28461-3.0636 0.92798-4.176m46.414 1.5184c1.9058-0.43974 2.4768 3.9268 0.60041 4.3379-1.8599 0.40755-2.4159-3.9189-0.60041-4.3379m-32.649 0.02829-0.15484 0.1546 0.15484-0.1546m14.848 0.464-0.30934 1.7013h-0.15484c0-0.66183-0.11387-1.2847 0.46398-1.7013m0.464 0.15484 2.0106 4.176-3.5573 2.0107 1.5467-6.1866m-1.0827 0.61865c0 1.7344 0.02536 3.5134-0.77332 5.104h-0.15484c0-1.5957-0.27981-3.9689 0.92798-5.104m-16.704 0.77334 0.15484 0.61867h0.15484l-0.30934-0.61867m-14.693 0.61867 0.61865 11.909h0.15484l-0.41992-8.9706-0.3534-2.9386m30.315 0c0 1.5876 0.33316 3.5264-0.46398 4.9493h-0.1546c0-1.4014-0.51177-3.9517 0.61865-4.9493m16.24 1.392c3.0223 0.48412 0.3571 4.1918-0.9877 3.2381-0.31507-0.22336-0.37939-1.1715-0.54488-1.5391-0.20995-0.46664-0.2999-0.88143-0.32341-1.3897h-0.1546l-0.61867 0.46398c0.30519 0.96251 1.2084 3.0943 0.15484 3.712l-0.30934-2.0107c-0.96605 0.69443-0.86059 1.2415-0.77334 2.32-1.899-0.56347-1.9069-5.1128 0.92798-4.0213 0.52526-1.3516 2.6199-3.4449 2.6293-0.77332m-48.256-0.92798-0.15484 0.1546 0.15484-0.1546m0.77332 0.1546c0.15606 3.6391 1.0341 8.0184 0.464 11.6 0.67588-0.59082 0.06827-1.9946 0.01463-2.784-0.15435-2.2382 0.90262-6.9938-0.47793-8.816m45.626 1.0827c0.80889-0.02658 1.1445-0.25893 1.2373-1.0827-0.668 0.14118-0.94378 0.48054-1.2373 1.0827m-15.157-0.61867c0 1.1249 0.46478 3.5133-0.61867 4.176 0-1.2579-0.42962-3.3029 0.61867-4.176m-0.77332 0.92801-0.15484 3.712-0.61867 0.15484c0.07803-0.98802-0.12606-3.3442 0.77334-3.8666m17.323 1.856c2.4594-0.3888-0.10095-2.7155-0.16801-1.2282-0.01951 0.40275 0.16654 0.81401 0.16801 1.2282m-3.4438-1.224c-0.52462 0.35572-0.27515 1.6169 0.45674 1.0768 0.51889-0.38295 0.15289-1.4901-0.45674-1.0768m-48.833 0.76003 0.30934 6.496h0.15484c-0.07047-1.9568 0.40058-4.6967-0.46403-6.496m30.779 0.30934 0.15484 1.5467h0.1546v-1.5467h-0.30934m0.77332 0.1546 0.464 2.1653-0.464-2.1653m13.147 4.0213c0.70141-0.3027 1.2424-0.73715 1.856-1.1827 0.70155-0.50931 3.1374-0.72647 2.2499 0.80628-0.3166 0.54689-1.265 0.34072-1.7859 0.52631-0.99931 0.35606-1.4901 1.0109-2.0824 1.8254-0.19605 0.26974-0.47763 0.49448-0.8233 0.32355-0.59687-0.29495-1.2843-5.1395-1.0163-5.8324 0.38173-0.98709 1.12 0.25735 1.1634 0.74966 0.03267 0.36639 0.03219 0.71796 0.09924 1.0827 0.10436 0.56871 0.22945 1.1337 0.3395 1.7013m-48.101-1.2374 0.15484 5.104h0.30934c0-1.2943 0.30948-4.0829-0.464-5.104m-0.61867 0.46403v4.7946h0.30934l-0.30934-4.7946m42.842 1.0827c0.70124 1.074-0.66337 2.5557-1.0827 3.5573l2.4747-1.2373h0.1546l0.30934 0.77332-3.0933 1.2373 0.30934 0.77334-1.2373-0.30934c-0.24165 0.5673-0.6145 0.96263-1.0835 1.3651-0.45718 0.39268-1.0056 0.76544-1.5459 1.0356-2.4143 1.208-3.0435-4.9872-0.0024-4.8194 1.1312 0.06242 0.84649 1.5335 0.0024 1.8l0.15484-1.0827c-1.2285 0.35235-2.156 2.9045-0.30916 3.0774 0.93062 0.0873 1.8563-1.2843 2.6292-1.6854-0.42809-1.0491-0.90648-2.2635-0.61865-3.4027 0.72818 0.27144 1.0242 0.82269 1.2373 1.5467l1.7013-2.6293m-45.162 1.2373 0.46398 4.176h0.15484l-0.61865-4.176m7.7333 1.392v2.1654h0.15484l-0.15484-2.1654m47.328 0c0.4385 0.7698 1.3014 1.5532 1.3575 2.4747 0.10192 1.6726-1.3555 3.4252-2.9042 2.0107 0.23409 2.0422-3.7828 4.0343-5.568 4.4853-0.53065-1.3083-1.9201-0.69307-2.1653-2.32h-0.15484c0.01463 1.2184 2.2198 2.0543 1.9834 2.5894-0.69475 1.5733-4.4966 2.412-5.8478 3.4312-2.4935 1.8814 0.30251 6.5572 1.9194 8.1622 0.68782 0.68268 1.9702 1.7923 3.0276 1.6204 1.4441-0.23458 2.9538-1.7896 4.176-2.5509 3.1657-1.9715 10.941-4.2603 10.208-8.6124l2.4747-0.77334c0.57024 1.9749 2.5303 3.4099 3.4005 5.2587 0.52045 1.1058-0.38202 2.3955 0.31287 3.5571 0.6878 1.15 2.9224 1.6573 3.0404 3.0941 0.06608 0.80675-0.66739 1.6687-1.0626 2.3194-1.1892 1.9579-2.8075 4.8775-5.5366 4.4349-1.2781-0.20751-2.7465-2.5167-3.8666-2.0837-2.578 0.99682-4.1873 4.3311-6.96 5.382-0.62455-1.173-1.7596-1.7596-2.3924-2.8126-0.89999-1.4979-1.3099-3.7361-2.7139-4.8597-1.4749-1.1804-3.6554-1.1278-5.2557-2.1581-1.0281-0.66166-0.9195-1.4198-1.4412-2.3721-0.93725-1.7108-2.3679-3.5227-2.7354-5.5841 1.3982-0.69785 2.2416-1.9486 2.2111-3.5573-0.01463-0.68997-0.54011-2.1324-0.10095-2.6896 0.69275-0.87943 2.3285-1.4622 3.2893-2.0215 2.5225-1.4681 5.2523-3.744 8.0565-4.5688l0.30934 0.92798c0.4405-1.5818 1.173-2.38 2.9387-2.784m-48.256 0.464 0.15484 2.0107h0.15484l-0.30934-2.0107m-0.77334 0.92801 0.15484 1.7013h0.15484l-0.30931-1.7013m-0.30934 0.30934v1.392h0.15484l-0.15484-1.392m-0.77334 0.1546v1.5467h0.15484l-0.15484-1.5467m31.552 0.52231c3.0379-0.1502 1.7738 4.6607-0.77334 4.7105-2.9391 0.0573-1.9859-4.5741 0.77334-4.7105m15.827 0.50885 0.05169 0.1029-0.05169-0.1029m-47.998 0.05145 0.15484 1.5467h0.15484l-0.30934-1.5467m31.397 1.392-0.92801-0.464c-0.45642 2.4672 1.8911 3.1459 2.5215 0.6187 0.34598-1.3869-1.4777-1.9433-1.5935-0.15484m-37.893-0.92798-0.15484 0.1546 0.15484-0.1546m0.15484 0.61865 0.15484 1.392h-0.15484v-1.392m34.954 0c0.47159 0.96341 1.0822 2.9315 0.86505 4.0116-0.19995 0.99343-0.82545 0.06462-0.86505-0.45425-1.8939 0.45515-0.71518 1.9299-2.1653 2.6293l-0.30936-2.0107-0.30931 0.15484-0.15484-0.15484 0.30934-2.784c0.87183 0.15142 0.78973 0.95922 0.92798 1.7013 1.6862-0.74379 1.0058-1.6886 1.392-3.0933h0.30931m-29.077 0.46403 0.15484 1.7013h0.15484l-0.30934-1.7013m-6.496 0.61865v0.77332h-0.15484v-0.46398h-0.15484l0.15484 1.5467h0.15484v-0.77334h0.15484v0.61867h0.15484l-0.30934-1.7013m-0.77334 0.77334-0.30934 1.2373 0.30934-0.46398h0.1546v0.77332h0.15484l-0.30934-1.5467m6.496 0.15484v1.2373h0.30934l-0.30934-1.2373m25.365 1.7013c-1.349-0.41541-2.0427 0.36905-2.6293 1.5467l0.15484 0.15484c0.49278-0.1602 1.0206-0.40877 1.5467-0.40677 3.9772 0.01463 0.975 5.0443-1.8492 4.6697-0.77502-0.10266-0.92242-1.0203-0.48036-1.5821 0.58432-0.74254 3.1592 0.34043 3.1592-1.435 0-1.5592-4.2231 1.062-3.5243-1.5552 0.46122-1.727 4.7594-4.517 3.6227-1.392m-25.829-0.61867v1.5467h0.15484l-0.15484-1.5467m-0.61867 0.92801 0.15484 1.0827h0.15484l-0.30934-1.0827m-8.1973 0.30931v1.5467h-0.1546l0.1546-1.5467m7.5786 0.30934v1.0827h0.30934v-1.0827h-0.30934m-8.0426 0.15484 0.15484 2.4746h-0.15484v-2.4746m6.496 0v0.92798h0.15484l-0.15484-0.92798m0.77334 0v1.0827h0.15484l0.15484-1.0827h-0.30931m-1.7013 0.1546v0.92798h0.15484l-0.15484-0.92798m-5.8773 0.15484v3.0933h-0.15484l-0.1546-3.0933h0.30931m4.9493 0.92801v0.92798h0.15484l0.15484-0.92798h-0.30934m-4.0213 0.464c1.1114 3.5145 1.6164 7.0538 3.0319 10.517 0.78987 1.9325 2.517 3.9078 2.5361 6.032h0.15484v-0.61865h0.15484c0.95583 1.5559 2.2767 2.8482 1.7013 4.7946l-0.30934-1.856h-0.15484v1.2373c-1.2817-1.0593-2.9233-3.4189-2.9387-5.104h-0.15484v0.464h-0.15484c-2.2-4.1811-6.1178-10.822-3.8666-15.467m24.437 4.0213 2.0106-0.92798-1.271 1.8026 3.127-0.71996c-1.0974 2.3515-5.0171 2.6442-4.8219-0.61262 0.06462-1.0818 3.1116-2.8505 2.8496-1.8727-0.27069 1.0101-1.8408 1.1269-1.8943 2.3307m-12.219-2.4746v2.784h0.15484c0.25445-0.86085 0.27437-1.9771-0.15484-2.784m-0.61867 0.61865v2.0107h0.15484l-0.15484-2.0107m60.01 0c2.1469 0.33345 6.7258 1.7335 7.1316 4.3306 0.21556 1.3799-1.3489 3.9408-2.0277 5.104l-3.212-3.4028-0.22775-3.0931-1.6644-2.9387m-48.72 0.77332c0.46559 1.0822 0.90109 2.6745 0.8609 3.8636-0.04072 1.1977-0.8513 0.286-1.0155-0.30624l-2.0107 2.6293-0.30934-2.0107h-0.46398l0.30934-2.784h0.61865c0.61804 3.3153 1.3648-0.22043 1.7013-1.392h0.30931m-12.528 0.15484v1.7013h0.30934l-0.30934-1.7013m-0.61865 0.464v1.392h0.30934l-0.30934-1.392m67.28 0 0.15459 0.30931-0.15459-0.30931m-58 0.77332c-0.17166 1.2844-1.5979 1.8119-1.8452 2.9526-0.21482 0.99219 2.1647 3.5029 1.2855 4.2004-1.0231 0.81199-1.4876-2.8991-2.2374-3.0341-0.53947-0.09705-0.82776 1.1711-1.4336 0.80318-0.50577-0.30716 0.30978-1.3871 0.50173-1.6741 0.96944-1.4503 2.0747-2.6336 3.729-3.248m-10.053 0.30934 0.1546 1.2373h0.15484v-1.2373h-0.30934m35.109 0.30931c0.5503 1.0441 1.3708 4.2153 2.4746 4.4853 0.40275 0.9034 0.40197 1.8416 1.1156 2.6149 1.6045 1.7386 4.0843 1.2301 5.8114 2.5059 1.328 0.9809 1.7819 3.2913 2.679 4.6208 0.78246 1.1599 2.0376 1.7353 2.6126 3.0956-1.061 0.45718-4.1274 1.5527-4.3566 2.7863-0.39675 2.1349 2.0006 3.478-0.16118 5.6917-1.2828 1.3136-3.6528 1.6189-5.3808 1.9448-4.9632 0.93605-10.535 1.2166-15.467-0.0844-2.0042-0.52862-3.7556-2.0331-3.3302-4.3065 0.15825-0.84693 1.2271-2.0487 0.56808-2.8615-0.71082-0.87666-2.8649-1.3049-3.8884-1.8167-2.569-1.2845-4.9187-2.8394-7.1147-4.693-0.90526-0.76422-2.2033-2.7848-3.4026-2.9652-1.0045-0.15118-1.9669 1.4969-2.9386 1.8192 1.2613-1.9964 2.1562-4.8619 5.3692-3.7873 1.1127 0.37212 1.809 1.4149 3.1374 1.1917 2.1791-0.36639 4.1621-2.5936 6.1866-3.4552 0.90045-0.38324 1.9602 0.33426 2.9387 0.19775 1.4882-0.20726 4.2235-2.053 5.2586-3.1176l6.6506-3.5573c-0.74766 1.6033-2.4682 2.3544-3.8666 3.2828-1.0364 0.68809-1.4463 1.7406-2.3529 2.463-0.90633 0.72216-2.1434 0.82391-3.0603 1.5235 4.3574-0.43677 6.9787-5.5798 10.517-7.5786m-36.037 0.77334 0.15484 1.2373h0.15484l-0.30934-1.2373m-1.392 0.61865v1.0827h0.15484l-0.15484-1.0827m0.61867 0.15484v0.92798h0.15484l-0.15484-0.92798m5.4133 7.2693c-1.6865-0.62006-0.03682-2.9996-0.92798-4.176 0.22214 0.87926 0.21019 2.7968-0.30934 3.5573-0.34352-0.71396-0.77227-4.3655 0.91901-3.8193 1.2103 0.39085 0.63089 3.5802 0.31831 4.438m67.589-4.4853c1.3402 1.8006-0.32092 4.7123-1.7013 6.1866l-0.77334-0.92801 2.4747-5.2586m-66.816 0.92798-0.15484 2.9387h-0.15484v-2.9387h0.30934m-2.4747 0.77334v0.92798h-0.15484l0.15484-0.92798m47.637 0.15484 0.30934 0.92801h0.15484l0.30934-0.464-0.77332-0.464m9.8986 0.464c0.20507 1.0124 3.3525 3.3108 4.3307 3.8667l-4.3307-3.8666m-58.928 2.784c0.71811 0.81306 0.46398 2.0649 0.46398 3.0933-0.82716-0.63581-1.005-2.1887-0.46398-3.0933m68.208 0.46398c1.3827 2.3058-3.1351 6.5326-4.6477 8.195-0.46971 0.51629-1.8784 2.403-2.7062 1.851-0.88763-0.59192 1.0705-2.0939 1.4372-2.5116 2.0882-2.378 3.9497-4.8356 5.6074-7.5344h0.30934m-73.002 0.1546v1.7013h0.15484l-0.15484-1.7013m5.7226 0 0.15484 2.784c-0.7639-0.55093-0.48875-2.0094-0.15484-2.784m3.5573 0.15484-0.30934 1.2373h-0.15484l0.15484-1.2373h0.30934m-2.4747 2.784-0.77332-0.15484 0.15484-2.4747c0.94703 0.38063 0.61865 1.7664 0.61865 2.6293m1.856-2.6293v1.856h-0.464l0.15484-1.856h0.30934m-0.61867 0.15484c0 1.0568 0.1407 2.2754-1.0827 2.6293v-2.4747l1.0827-0.15484m-4.7947 3.712 0.15484 2.1653h0.15484l0.15484-1.392h0.15484l0.15484 2.0107h0.15484v-1.392l0.30936 1.0827 0.77332-0.1546c0.44528 0.63214 1.0017 1.1537 1.5465 1.7013 0.28164 0.28319 2.0575 2.2034 0.60967 2.2223-0.74905 0.01-1.4266-0.96205-1.8732-1.4496-1.2138-1.3256-3.1498-2.754-2.2937-4.794m52.277 4.7946 1.2373 0.46401c-2.1168-1.4954 1.3357-2.8301 2.784-2.5784 6.3114 1.0966 0.97546 10.701-3.3518 6.1072-0.43633-0.46322-0.73145-1.0554-0.87358-1.6727-0.18581-0.80675-0.01463-1.5417 0.2041-2.32m-41.45-1.8094c4.6363-0.67761 5.9226 6.3506 1.2373 7.1718-4.7758 0.83722-6.0034-6.4752-1.2373-7.1718m41.141 9.1421c1.4242-0.2493 0.76668 1.0966 4.87e-4 1.5109-8.5653 4.6313-19.455 5.0638-28.768 3.0656-2.4434-0.52435-4.8216-1.3584-7.1146-2.3432-0.51506-0.22141-2.3281-0.77041-1.8427-1.6294 0.41792-0.73964 1.6461-0.0195 2.152 0.22116 2.1723 1.0319 4.4884 1.7056 6.8053 2.3184 7.0325 1.8599 14.518 1.5617 21.499-0.38356 2.4188-0.67419 4.8434-2.3355 7.2687-2.76z" style="paint-order:markers fill stroke"/>
</g>
</svg>
