<svg id="Layer_1" data-name="Layer 1" xmlns="http://www.w3.org/2000/svg" xmlns:xlink="http://www.w3.org/1999/xlink" viewBox="0 0 149.225 124.882"><defs><style>.cls-1,.cls-10,.cls-3,.cls-5,.cls-6,.cls-7,.cls-9{fill:none;}.cls-2{clip-path:url(#clip-path);}.cls-3{stroke:#fff;stroke-width:5px;}.cls-10,.cls-3,.cls-5,.cls-6,.cls-7,.cls-9{stroke-miterlimit:10;}.cls-4{fill:#fd0;}.cls-5,.cls-6{stroke:#fd0;}.cls-10,.cls-5{stroke-width:0.25px;}.cls-10,.cls-7,.cls-9{stroke:#000;}.cls-7{stroke-width:2px;}.cls-8{fill:#fff;}</style><clipPath id="clip-path" transform="translate(-14.558 -9.065)"><rect class="cls-1" x="-51" y="-35" width="288" height="560"/></clipPath></defs><g class="cls-2"><path d="M89.7,12.065,155.926,25.8a6.177,6.177,0,0,1,4.857,6.234v56.13a6.4,6.4,0,0,1-3.194,5.647L89.7,130.947H88.639L20.751,93.815a6.4,6.4,0,0,1-3.194-5.647V32.038A6.177,6.177,0,0,1,22.413,25.8L88.639,12.065Z" transform="translate(-14.558 -9.065)"/><path class="cls-3" d="M89.7,12.065,155.926,25.8a6.177,6.177,0,0,1,4.857,6.234v56.13a6.4,6.4,0,0,1-3.194,5.647L89.7,130.947H88.639L20.751,93.815a6.4,6.4,0,0,1-3.194-5.647V32.038A6.177,6.177,0,0,1,22.413,25.8L88.639,12.065Z" transform="translate(-14.558 -9.065)"/><path class="cls-4" d="M114.6,67.218l-3.927-2.313c-.288-12.216-9.247-21.032-21.426-21.032S68.1,52.689,67.808,64.905l-3.919,2.313c0-14.073,11.375-26.609,25.358-26.609S114.6,53.145,114.6,67.218" transform="translate(-14.558 -9.065)"/><path class="cls-5" d="M114.6,67.218l-3.927-2.313c-.288-12.216-9.247-21.032-21.426-21.032S68.1,52.689,67.808,64.905l-3.919,2.313c0-14.073,11.375-26.609,25.358-26.609S114.6,53.145,114.6,67.218Z" transform="translate(-14.558 -9.065)"/><polygon class="cls-4" points="74.926 47.495 74.661 47.237 74.382 47.523 74.382 34.763 74.926 34.763 74.926 47.495"/><polygon class="cls-6" points="74.926 47.495 74.661 47.237 74.382 47.523 74.382 34.763 74.926 34.763 74.926 47.495"/><line class="cls-4" x1="64.876" y1="52.392" x2="54.652" y2="47.743"/><line class="cls-6" x1="64.876" y1="52.392" x2="54.652" y2="47.743"/><line class="cls-4" x1="69.998" y1="49.428" x2="62.044" y2="38.27"/><line class="cls-6" x1="69.998" y1="49.428" x2="62.044" y2="38.27"/><line class="cls-4" x1="68.435" y1="35.695" x2="72.758" y2="49.893"/><line class="cls-6" x1="68.435" y1="35.695" x2="72.758" y2="49.893"/><line class="cls-4" x1="57.211" y1="42.948" x2="67.307" y2="50.557"/><line class="cls-6" x1="57.211" y1="42.948" x2="67.307" y2="50.557"/><line class="cls-4" x1="53.265" y1="52.104" x2="63.39" y2="54.139"/><line class="cls-6" x1="53.265" y1="52.104" x2="63.39" y2="54.139"/><line class="cls-4" x1="84.881" y1="52.392" x2="95.105" y2="47.743"/><line class="cls-6" x1="84.881" y1="52.392" x2="95.105" y2="47.743"/><line class="cls-4" x1="79.76" y1="49.428" x2="87.713" y2="38.27"/><line class="cls-6" x1="79.76" y1="49.428" x2="87.713" y2="38.27"/><line class="cls-4" x1="81.322" y1="35.695" x2="77.418" y2="48.516"/><line class="cls-6" x1="81.322" y1="35.695" x2="77.418" y2="48.516"/><line class="cls-4" x1="92.547" y1="42.948" x2="82.223" y2="50.729"/><line class="cls-6" x1="92.547" y1="42.948" x2="82.223" y2="50.729"/><line class="cls-4" x1="96.492" y1="52.104" x2="86.367" y2="54.139"/><line class="cls-6" x1="96.492" y1="52.104" x2="86.367" y2="54.139"/><polygon class="cls-4" points="71.812 32.96 70.459 33.156 69.613 32.083 70.12 30.813 71.473 30.617 72.319 31.69 71.812 32.96"/><polygon class="cls-6" points="71.812 32.96 70.459 33.156 69.613 32.083 70.12 30.813 71.473 30.617 72.319 31.69 71.812 32.96"/><polygon class="cls-4" points="64.938 34.973 63.712 35.578 62.575 34.818 62.665 33.454 63.891 32.85 65.027 33.609 64.938 34.973"/><polygon class="cls-6" points="64.938 34.973 63.712 35.578 62.575 34.818 62.665 33.454 63.891 32.85 65.027 33.609 64.938 34.973"/><polygon class="cls-4" points="68.465 33.627 67.167 34.056 66.147 33.147 66.423 31.808 67.721 31.379 68.742 32.288 68.465 33.627"/><polygon class="cls-6" points="68.465 33.627 67.167 34.056 66.147 33.147 66.423 31.808 67.721 31.379 68.742 32.288 68.465 33.627"/><polygon class="cls-4" points="61.864 36.786 60.772 37.609 59.514 37.075 59.347 35.718 60.439 34.895 61.697 35.429 61.864 36.786"/><polygon class="cls-6" points="61.864 36.786 60.772 37.609 59.514 37.075 59.347 35.718 60.439 34.895 61.697 35.429 61.864 36.786"/><polygon class="cls-4" points="59.108 39.109 58.136 40.07 56.817 39.709 56.471 38.387 57.443 37.425 58.762 37.787 59.108 39.109"/><polygon class="cls-6" points="59.108 39.109 58.136 40.07 56.817 39.709 56.471 38.387 57.443 37.425 58.762 37.787 59.108 39.109"/><polygon class="cls-4" points="54.486 44.517 53.802 45.702 52.436 45.702 51.752 44.517 52.436 43.333 53.802 43.333 54.486 44.517"/><polygon class="cls-6" points="54.486 44.517 53.802 45.702 52.436 45.702 51.752 44.517 52.436 43.333 53.802 43.333 54.486 44.517"/><polygon class="cls-4" points="56.611 41.664 55.771 42.743 54.417 42.554 53.903 41.288 54.743 40.209 56.097 40.397 56.611 41.664"/><polygon class="cls-6" points="56.611 41.664 55.771 42.743 54.417 42.554 53.903 41.288 54.743 40.209 56.097 40.397 56.611 41.664"/><polygon class="cls-4" points="52.569 48.111 52.057 49.379 50.703 49.569 49.861 48.491 50.374 47.224 51.728 47.034 52.569 48.111"/><polygon class="cls-6" points="52.569 48.111 52.057 49.379 50.703 49.569 49.861 48.491 50.374 47.224 51.728 47.034 52.569 48.111"/><polygon class="cls-4" points="51.468 51.937 51.114 53.257 49.794 53.611 48.827 52.645 49.181 51.324 50.502 50.97 51.468 51.937"/><polygon class="cls-6" points="51.468 51.937 51.114 53.257 49.794 53.611 48.827 52.645 49.181 51.324 50.502 50.97 51.468 51.937"/><polygon class="cls-4" points="50.829 55.348 50.697 56.709 49.453 57.275 48.34 56.48 48.473 55.119 49.717 54.554 50.829 55.348"/><polygon class="cls-6" points="50.829 55.348 50.697 56.709 49.453 57.275 48.34 56.48 48.473 55.119 49.717 54.554 50.829 55.348"/><polygon class="cls-4" points="73.991 32.758 75.358 32.759 76.043 31.576 75.361 30.392 73.994 30.39 73.309 31.573 73.991 32.758"/><polygon class="cls-6" points="73.991 32.758 75.358 32.759 76.043 31.576 75.361 30.392 73.994 30.39 73.309 31.573 73.991 32.758"/><polygon class="cls-4" points="77.55 32.992 78.903 33.188 79.749 32.115 79.242 30.845 77.889 30.649 77.043 31.722 77.55 32.992"/><polygon class="cls-6" points="77.55 32.992 78.903 33.188 79.749 32.115 79.242 30.845 77.889 30.649 77.043 31.722 77.55 32.992"/><polygon class="cls-4" points="84.424 35.005 85.651 35.61 86.787 34.851 86.697 33.486 85.472 32.882 84.335 33.641 84.424 35.005"/><polygon class="cls-6" points="84.424 35.005 85.651 35.61 86.787 34.851 86.697 33.486 85.472 32.882 84.335 33.641 84.424 35.005"/><polygon class="cls-4" points="80.897 33.659 82.195 34.088 83.215 33.179 82.938 31.84 81.64 31.411 80.62 32.32 80.897 33.659"/><polygon class="cls-6" points="80.897 33.659 82.195 34.088 83.215 33.179 82.938 31.84 81.64 31.411 80.62 32.32 80.897 33.659"/><polygon class="cls-4" points="87.498 36.818 88.59 37.641 89.848 37.107 90.015 35.75 88.923 34.927 87.665 35.461 87.498 36.818"/><polygon class="cls-6" points="87.498 36.818 88.59 37.641 89.848 37.107 90.015 35.75 88.923 34.927 87.665 35.461 87.498 36.818"/><polygon class="cls-4" points="90.254 39.141 91.226 40.102 92.544 39.741 92.891 38.419 91.919 37.457 90.601 37.819 90.254 39.141"/><polygon class="cls-6" points="90.254 39.141 91.226 40.102 92.544 39.741 92.891 38.419 91.919 37.457 90.601 37.819 90.254 39.141"/><polygon class="cls-4" points="94.876 44.55 95.559 45.734 96.926 45.734 97.609 44.55 96.926 43.366 95.559 43.366 94.876 44.55"/><polygon class="cls-6" points="94.876 44.55 95.559 45.734 96.926 45.734 97.609 44.55 96.926 43.366 95.559 43.366 94.876 44.55"/><polygon class="cls-4" points="92.751 41.696 93.591 42.775 94.945 42.586 95.459 41.32 94.619 40.241 93.265 40.429 92.751 41.696"/><polygon class="cls-6" points="92.751 41.696 93.591 42.775 94.945 42.586 95.459 41.32 94.619 40.241 93.265 40.429 92.751 41.696"/><polygon class="cls-4" points="96.793 48.143 97.305 49.411 98.659 49.602 99.5 48.523 98.987 47.257 97.634 47.066 96.793 48.143"/><polygon class="cls-6" points="96.793 48.143 97.305 49.411 98.659 49.602 99.5 48.523 98.987 47.257 97.634 47.066 96.793 48.143"/><polygon class="cls-4" points="97.894 51.969 98.248 53.289 99.569 53.643 100.536 52.677 100.181 51.356 98.861 51.002 97.894 51.969"/><polygon class="cls-6" points="97.894 51.969 98.248 53.289 99.569 53.643 100.536 52.677 100.181 51.356 98.861 51.002 97.894 51.969"/><polygon class="cls-4" points="98.532 55.38 98.665 56.741 99.909 57.307 101.021 56.512 100.889 55.151 99.644 54.586 98.532 55.38"/><polygon class="cls-6" points="98.532 55.38 98.665 56.741 99.909 57.307 101.021 56.512 100.889 55.151 99.644 54.586 98.532 55.38"/><polygon points="133.581 68.567 89.56 68.567 44.041 68.557 44.031 68.567 34.321 68.567 34.321 68.557 17.121 68.557 29.691 61.907 37.831 66.007 74.681 39.337 103.921 59.467 110.791 55.247 133.581 68.567"/><polygon class="cls-7" points="133.581 68.567 89.56 68.567 44.041 68.557 44.031 68.567 34.321 68.567 34.321 68.557 17.121 68.557 29.691 61.907 37.831 66.007 74.681 39.337 103.921 59.467 110.791 55.247 133.581 68.567"/><polygon class="cls-8" points="34.327 68.973 34.297 68.973 34.317 68.963 34.327 68.973"/><polygon class="cls-8" points="37.831 66.416 74.681 39.746 44.031 68.977 34.331 68.977 34.321 68.966 29.691 62.316 37.831 66.416"/><polygon class="cls-8" points="17.121 68.967 29.691 62.317 20.151 68.967 17.121 68.967"/><polygon class="cls-8" points="110.791 55.657 104.811 60.497 117.141 68.977 89.571 68.977 89.461 68.757 74.681 39.747 103.921 59.877 110.791 55.657"/><polygon class="cls-8" points="118.781 68.976 110.791 55.656 133.581 68.976 118.781 68.976"/></g><path class="cls-8" d="M28.514,54.223h2.507v.45H29.007v.819l1.464,0v.438H29.007v1.042h2.016v.452H28.514Z" transform="translate(-14.558 -9.065)"/><path class="cls-8" d="M33.259,54.223h.5l0,2.751h1.8v.452h-2.3Z" transform="translate(-14.558 -9.065)"/><path class="cls-8" d="M40.439,54.223H41.9a1.032,1.032,0,0,1,1.164,1.032,1,1,0,0,1-1.137,1.028h-.994v1.143h-.5Zm1.467,1.619a.59.59,0,1,0,0-1.173h-.971v1.173Z" transform="translate(-14.558 -9.065)"/><path class="cls-8" d="M46.2,54.1,48,57.429h-.533l-.371-.7h-1.8l-.376.7h-.543Zm.674,2.216-.68-1.287-.683,1.287Z" transform="translate(-14.558 -9.065)"/><path class="cls-8" d="M49.7,57.084l.267-.385a2.353,2.353,0,0,0,1.187.318c.448,0,.75-.174.757-.466.007-.269-.174-.368-.644-.477l-.423-.1c-.686-.156-1-.442-1.005-.913,0-.52.521-.875,1.227-.879a2.413,2.413,0,0,1,1.25.343l-.252.384a1.8,1.8,0,0,0-.952-.28c-.441,0-.747.161-.745.446,0,.248.2.37.622.466l.451.1c.682.153.98.414.982.9,0,.544-.523.913-1.289.916A2.783,2.783,0,0,1,49.7,57.084Z" transform="translate(-14.558 -9.065)"/><path class="cls-8" d="M54.439,55.826a1.717,1.717,0,1,1,1.714,1.661A1.663,1.663,0,0,1,54.439,55.826Zm2.937,0a1.223,1.223,0,1,0-1.224,1.2A1.191,1.191,0,0,0,57.376,55.827Z" transform="translate(-14.558 -9.065)"/><path class="cls-8" d="M121.365,54.855h-1.12l0-.452h2.729v.452h-1.118v2.751h-.489Z" transform="translate(-14.558 -9.065)"/><path class="cls-8" d="M126.779,54.4h2.506v.45h-2.014v.819l1.464,0v.437h-1.464v1.042h2.017v.452h-2.509Z" transform="translate(-14.558 -9.065)"/><path class="cls-8" d="M134.184,55.911,132.993,54.4h.6l.882,1.154.88-1.154h.6l-1.191,1.508,1.345,1.693h-.606l-1.033-1.346L133.444,57.6h-.6Z" transform="translate(-14.558 -9.065)"/><path class="cls-8" d="M141.076,54.276l1.8,3.333h-.532l-.371-.7h-1.8l-.376.7h-.544Zm.674,2.216-.68-1.287-.682,1.287Z" transform="translate(-14.558 -9.065)"/><path class="cls-8" d="M146.31,57.265l.266-.386a2.354,2.354,0,0,0,1.188.318c.447,0,.75-.174.757-.466.005-.269-.174-.368-.645-.477l-.423-.1c-.685-.156-1-.442-1-.913,0-.52.521-.875,1.228-.879a2.413,2.413,0,0,1,1.25.343l-.252.384a1.8,1.8,0,0,0-.952-.28c-.442,0-.748.162-.745.446,0,.248.2.37.621.467l.452.1c.681.153.979.414.982.9,0,.544-.524.914-1.289.916A2.792,2.792,0,0,1,146.31,57.265Z" transform="translate(-14.558 -9.065)"/><g class="cls-2"><path class="cls-8" d="M90.339,133.447H88L19.55,96.008a8.862,8.862,0,0,1-4.492-7.84V32.038a8.645,8.645,0,0,1,6.919-8.7L88.382,9.565h1.574l66.478,13.791a8.629,8.629,0,0,1,6.849,8.682v56.13a8.86,8.86,0,0,1-4.495,7.84ZM88.9,14.565,22.921,28.252a3.722,3.722,0,0,0-2.863,3.786v56.13a3.922,3.922,0,0,0,1.892,3.454l67.219,36.766,67.22-36.766a3.924,3.924,0,0,0,1.894-3.454V32.038a3.712,3.712,0,0,0-2.793-3.773l-66.046-13.7Z" transform="translate(-14.558 -9.065)"/><path class="cls-9" d="M90.339,133.447H88L19.55,96.008a8.862,8.862,0,0,1-4.492-7.84V32.038a8.645,8.645,0,0,1,6.919-8.7L88.382,9.565h1.574l66.478,13.791a8.629,8.629,0,0,1,6.849,8.682v56.13a8.86,8.86,0,0,1-4.495,7.84ZM88.9,14.565,22.921,28.252a3.722,3.722,0,0,0-2.863,3.786v56.13a3.922,3.922,0,0,0,1.892,3.454l67.219,36.766,67.22-36.766a3.924,3.924,0,0,0,1.894-3.454V32.038a3.712,3.712,0,0,0-2.793-3.773l-66.046-13.7Z" transform="translate(-14.558 -9.065)"/></g><path class="cls-8" d="M72.319,31.58c-.057-.1-.284-.134-.322-.134v-.512l.246-.115v-.056c-.037,0-.056.019-.076.019a.262.262,0,0,1-.247-.285V25.918c.038,0,.323-.019.323-.152a.913.913,0,0,0-.018-.095h-.3V22.727a.733.733,0,0,1,.627-.779c3.287-.019,10.221-.114,10.126-.114.285,0,.608-.019.912-.019.57,0,1.025.076,1.025.532v1.292a.681.681,0,0,1-.664.627l-7.637.132c-1.121.019-1.33.115-1.406,1.254a.2.2,0,0,0-.114.077c.095.246.342.759.7.759h7.466c.171,0,.361.342.361.513v1.463c0,.4-1.026.456-1.5.456l-6.326.114c-.475.019-.494.76-.494,1.007,0,.209-.133.152-.133.285,0,.076.038.113.133.113.057.115.133.761.3.761H84.61c.134,0,.324.3.324.38v1.842c0,.228-.361.342-.533.4-4.274.114-8.909.114-11.967.114a.571.571,0,0,1-.437-.57V31.712A.907.907,0,0,0,72.319,31.58Zm-.247-8.549c0,.057,0,.076.019.076.057,0,.076-.019.076-.076,0-.019-.019-.038-.076-.038C72.072,22.993,72.072,23.012,72.072,23.031Zm1.007.531a2.547,2.547,0,0,0,.722.3c.133,0,.285-.038.285-.171,0-.3-.019-.76-.266-.76l-.494.247H72.187a.122.122,0,0,0-.1.095C72.091,23.582,72.946,23.506,73.079,23.562Zm.551,6.459c.152,0,.323,0,.323-.094H73.63Zm.19-3.856a.226.226,0,0,0,.209-.227c0-.19.038-.533-.209-.533-.038,0-.114.019-.114.095C73.725,25.52,73.725,26.165,73.82,26.165Zm1.121-3.951c0,.019.019.076.057.076.019,0,.038-.057.038-.076s-.019-.057-.038-.057A.061.061,0,0,0,74.941,22.214Z" transform="translate(-14.558 -9.065)"/><path class="cls-8" d="M94.416,33.821c-.151-.342-.7-.228-.74-.38-.058-1.6-.095-3.381-.095-5.034.266,0,.095.4.322.4.076,0,.153-.038.153-.114a2.864,2.864,0,0,0-.133-.836c-.076,0-.285.057-.323.057v-.3a1.471,1.471,0,0,1,.265.057c.076,0,.134-.038.134-.114a1.12,1.12,0,0,0-.323-.8V26.2c.056-.019.323-.019.323-.171,0-.094-.323-.057-.323-.266V24.285c.038,0,.076-.057.076-.077,0-.113-.076-.075-.076-.17,0-.133-.038-1.843.247-1.843,2.868-.209,5.471-.285,8.149-.285.418,0,2.394.019,2.812.019a.453.453,0,0,0,.114.209c.133-.1.057-.209.247-.209,1.729,0,2.812,1.767,2.812,3.343,0,.285-.058.323-.133.323-.038,0-.076-.019-.114-.019s-.095.019-.133.114a.2.2,0,0,0,.018.076h.362a3.928,3.928,0,0,1-2.85,3.8c-.076.019-.285.076-.323.076H102.49c0-.266-.227-.7-.551-.7-.152,0-.247.418-.247.627v.076c-.494,0-2.849.038-3.381.057-.076-.1-.057-.361-.209-.361,0,.076-.019.152-.019.228a.181.181,0,0,0,.038.133c-.513,0-1.387,0-1.387.361a.414.414,0,0,0,.019.114h.228a5.048,5.048,0,0,0-.019.683v.855c0,.969-.019,2.014-.285,2.014-.1,0-.171-.019-.284-.019-.134,0-.267.019-.286.133l.057.114h.647c0,.532-.476.57-.989.57-1.025,0-2.09.038-2.09-.7Zm-.228-1.957c.115,0,.191,0,.191-.152,0-.19-.267-.209-.418-.209C93.961,31.75,93.941,31.864,94.188,31.864Zm.228-1.709c.1,0,.152-.019.152-.1,0-.095-.094-.114-.171-.114-.038,0-.132,0-.152.075C94.3,30.136,94.341,30.155,94.416,30.155Zm.305,3.438a.224.224,0,0,0,.247-.152.8.8,0,0,0-.418-.057C94.55,33.536,94.588,33.593,94.721,33.593Zm.3-3.419V30c-.056,0-.132.018-.152.076A.171.171,0,0,0,95.024,30.174Zm.266,1.956a.172.172,0,0,0,.171-.19c0-.1-.019-.151-.133-.151a.165.165,0,0,0-.189.151C95.139,32.017,95.271,32.111,95.29,32.13Zm.817-9.5c.152,0,.513-.285.513-.437h-.665c-.076,0-.076.171-.076.171C95.879,22.518,95.937,22.632,96.107,22.632Zm.077,9.441a.534.534,0,0,0-.077-.284c-.038.038-.152.075-.152.094C95.955,31.979,96.088,32.073,96.184,32.073Zm.018-1.918c.076,0,.3-.038.3-.171,0-.076-.209-.1-.228-.1-.056.019-.247.057-.247.171C96.031,30.155,96.107,30.155,96.2,30.155Zm.076,1.139v-.038a3.056,3.056,0,0,0-.056-.3h-.115A.383.383,0,0,0,96.278,31.294Zm.133.4h.152a.269.269,0,0,0-.152-.209Zm1.007-5.053h6.174c.437,0,1.292-.418,1.292-.874a1.206,1.206,0,0,0-1.083-1.234H97.57c-.608,0-.779,1.063-.779,1.443C96.791,26.108,97.229,26.64,97.418,26.64Zm.114,2.109c.076,0,.152-.019.152-.095a.118.118,0,0,0-.057-.095C97.532,28.578,97.532,28.692,97.532,28.749Zm.361-.684c0,.019.019.038.057.038a.041.041,0,0,0,.038-.038c0-.038-.019-.1-.038-.1C97.912,27.97,97.893,28.027,97.893,28.065Zm.3.038c.019,0,.228.171.284.171.02,0,.039,0,.039-.019,0-.152-.209-.209-.323-.209Zm2.356.4c0,.057.589.057.683.057.133,0,.285,0,.285-.1,0-.038-.094-.114-.132-.114h-.836Zm1.881-1.406a.321.321,0,0,0,.17-.133c-.057-.114-.247-.152-.323-.152a.287.287,0,0,0-.209.076A.408.408,0,0,0,102.434,27.1Zm.8-3.419c.114,0,.133-.076.133-.209a.17.17,0,0,0-.171-.19c-.114,0-.114.133-.114.171C103.079,23.582,103.079,23.677,103.231,23.677Zm.95,4.578c0-.114-.038-.152-.152-.152A.15.15,0,0,0,104.181,28.255Zm.171-4.844c.247,0,.342,0,.342-.228C104.466,23.183,104.352,23.183,104.352,23.411Zm1.482-.418a2.426,2.426,0,0,0,.513-.038.249.249,0,0,0-.266-.266c-.1,0-.38.076-.38.247C105.7,22.993,105.739,22.993,105.834,22.993Zm.171,2.393c.152,0,.474-.152.474-.38l-.076-.094a4.737,4.737,0,0,1-.569.4C105.853,25.386,105.929,25.386,106.005,25.386Zm.456,1.653c.057,0,.057-.057.057-.133,0-.095,0-.266-.152-.266-.076,0-.076.095-.076.171S106.347,27.039,106.461,27.039Zm-.058-3.134.058-.057H106.4Z" transform="translate(-14.558 -9.065)"/><g class="cls-2"><path class="cls-8" d="M89.025,103.483a.225.225,0,1,1-.225-.225.224.224,0,0,1,.225.225" transform="translate(-14.558 -9.065)"/><path class="cls-8" d="M89.857,103.483a.225.225,0,1,1-.225-.225.224.224,0,0,1,.225.225" transform="translate(-14.558 -9.065)"/><path class="cls-8" d="M89.025,103.989a.225.225,0,1,1-.225-.225.225.225,0,0,1,.225.225" transform="translate(-14.558 -9.065)"/><path class="cls-8" d="M89.025,104.5a.225.225,0,1,1-.225-.225.225.225,0,0,1,.225.225" transform="translate(-14.558 -9.065)"/><path class="cls-8" d="M89.857,104.5a.225.225,0,1,1-.225-.225.225.225,0,0,1,.225.225" transform="translate(-14.558 -9.065)"/><path class="cls-8" d="M89.409,103.985a.222.222,0,0,1,.22-.22.225.225,0,1,1-.22.22" transform="translate(-14.558 -9.065)"/><path class="cls-8" d="M90.469,117.076l3.6-2.56-3.77,1.85,2.2-3.53-2.68,3.06.91-3.86-1.33,3.2-.04-12.01a.154.154,0,0,0-.15-.15.161.161,0,0,0-.15.15l.04,12.14-1.05-3.46.54,3.99-2.45-3.06,2,3.54-3.67-1.71,3.55,2.42-4.22.12,5.32.71h.27l5.28-.78Zm-1.72-.01-.01-.05.16.05Zm.54-.12-.03-.04.05.02Zm.08.12-.01-.01h.04Zm.19-.05.02-.1.03.09Z" transform="translate(-14.558 -9.065)"/><path class="cls-8" d="M35.767,92.8h.74a6.037,6.037,0,0,0-.74-.19l-.076-.057v-.665h.3a2,2,0,0,0,.019-.229c0-.3-.342-.018-.342-.341a.307.307,0,0,1,.228-.342h-.208V89.417h.266v-.152h-.266v-.513h.266v-.076l-.266-.133V87.08a.857.857,0,0,0,.322-.171h-.322V85.541a1.546,1.546,0,0,0,.322-.113c-.037-.133-.284-.152-.322-.152,0-1.995-.02-2.166-.02-2.774,0-.265.058-.722.476-.779l2.982-.322h8.929a.427.427,0,0,1,.361.4v1.5c0,.266-.38.551-.627.551H39.661c-.779,0-.874.532-.988,1.159l-.095.151c.418.134.095.874.874.874h7.257c.114,0,.323.133.323.267a4.151,4.151,0,0,1-.969.113v.1h1.064v1.5c0,.1-.133.19-.209.209l-1.976.209h-5.49c-.247,0-.836.38-.836.665,0,.019.057.038.057.076.038.475,0,1.216.4,1.558h4.255l-2.659.342c1.405,0,4.673-.3,4.711-.323h2.945c.19,0,.38.38.38.532v1.595a.59.59,0,0,1-.533.551h-.056c-.285.038-1.672.038-1.976.038a41.235,41.235,0,0,1-5.015-.266,1.464,1.464,0,0,0-.646-.114c-.228,0-.494.02-.817.02.779.189,1.634.133,2.394.322H36.279a.628.628,0,0,1-.588-.551s.038-.075.076-.075m.474-11.266c-.056,0-.19-.019-.228-.019a.654.654,0,0,1,.172-.113h1.5a10.6,10.6,0,0,1-1.444.132m.019,4.522h.19c.19,0,.361,0,.361-.285-.171,0-.551.076-.551.285m1.33,7.1V92.95c-.038,0-.228,0-.247.115.019.094.209.094.247.094m8.644-1.8c.038,0,.171,0,.171-.115,0-.17-.095-.247-.19-.247-.038,0-.152.02-.152.077,0,.228,0,.285.171.285m17.122,1.1h-.494l-2.128-2.3h.285a.191.191,0,0,0,.019-.057c0-.133-.513-.152-.627-.228a4.825,4.825,0,0,1-.361-.4v-.057h.228V89.3H60.2a.612.612,0,0,1-.551-.247.249.249,0,0,0,.266-.19h-.456a12.314,12.314,0,0,1-1.2-1.292c0-.19.209-.019.247-.228H58l-1.254-1.291A.607.607,0,0,0,56.479,86c-.114,0-.266,0-.323.058a7.367,7.367,0,0,0-.114,1.4c-.057.1-.3.153-.323.171a.574.574,0,0,1,.323.133V89.17l-.323.152h.323v.095c0,.076-.019.266-.323.266v.152h.323c0,.494,0,2.318-.076,3.477.019,0,.019,0,.019.018a1.01,1.01,0,0,1-.475.095l-.57.134h1.045c0,.151-.247.456-.4.456H53.477a.276.276,0,0,1-.247-.134l1.083-.189H52.926V90.12c.038-.019.19-.019.247-.133,0-.076-.247-.076-.361-.076,0-.114.114-.3.247-.3a.334.334,0,0,1,.114.019v-.171h-.247V88.011c.038-.019.266-.075.3-.228h-.3V86.377c0-.133.266-.056.3-.227h-.323c.019-.266,0-1.292.057-2.147.057-.114.266-.057.323-.19-.323,0-.323-.057-.323-.969,0-.607.076-1.443.627-1.443h2.242a1.075,1.075,0,0,1,.646.247L58,83.186c.019,0,.019.019.019.038,0,.114-.209.057-.266.152.17.038.512.038.569.133l2.242,2.279-.342.134a1.587,1.587,0,0,1,.608.133l.855.949-.323.133a1.232,1.232,0,0,0,.589.114l1.14,1.14.133.247H63.09c.133.038.4.1.4.228,0,.077-.057.095-.057.133a3.6,3.6,0,0,0,.721.247.446.446,0,0,0,.362-.341V87l.322-.133c-.057-.094-.285-.114-.322-.114v-.911c.037,0,.265,0,.322-.114-.151-.077-.36.038-.36-.342a1.9,1.9,0,0,1,.038-.229c0-.36.037-1.956.056-2.279.057-.209.324-.095.456-.247h-.475c.019-1.007.343-1.159,1.14-1.159.627,0,.969,0,1.691.038.323.114.38.494.38.76l-.532.152V82.5h.532l-.076,3.039c-.076.02-.228.058-.247.153h.247v.8l-.247.133V86.7h.247v1.52l-.247.152h.3v.019a.825.825,0,0,1-.361.209c.038.1.266.114.3.114v1.672c-.038,0-.266.019-.3.133a.7.7,0,0,0,.3.094v1.179c0,.133-.266.037-.3.228h.323a14.881,14.881,0,0,1-.076,1.614c-.114.456-.665.514-1.159.514h-1.12a1.422,1.422,0,0,1-1.045-.267l-1.216-1.2v-.038c0-.133.246-.038.266-.191M54.5,93.634a.156.156,0,0,0,.114.038.264.264,0,0,0,.133-.038Z" transform="translate(-14.558 -9.065)"/><path class="cls-8" d="M71.757,91.735l.076-.076-.076-.057c0-.227.019-.436.019-.7a5,5,0,0,0-.095-1.083V85.923L72,85.789v-.152c-.019,0-.209.039-.247.039-.038-.02-.076-.039-.076-.058v-.855H72c0-.019.019-.057.019-.076,0-.152-.266-.114-.342-.209,0-.741.076-1.539.076-2.488.19-.494.513-.532,1.007-.532,3.211,0,5.737-.057,9.062-.057A5.453,5.453,0,0,1,84.6,82.446a4.536,4.536,0,0,1,.722.569.1.1,0,0,1-.057.095H85.3a.6.6,0,0,1,.361.191,6.8,6.8,0,0,1,1.653,4.463,6.256,6.256,0,0,1-6.136,6.251c-.228,0-.437-.076-.684-.076-.095,0-.266.019-.266.019l-.133.133h-.779c.532-.152.494-.266.494-.248,0-.037-.266-.056-.342-.208-.038-.038-.095-.266-.171-.266-.038,0-.19.076-.209.076h-.019c.019,0,.076.19.076.19,0,.247-.38.152-.456.38,0,.019.019.114.076.133-1.329.057-2.583.152-3.343.152-.931,0-1.805-.039-2.774-.095-.8-.038-.931-.7-.931-1.425,0-.228.038-.475.038-.665Zm.076-4.559a.024.024,0,1,0,.038,0Zm.019,3.21c0,.039,0,.057.019.057.057,0,.076-.018.076-.057a.081.081,0,0,0-.076-.076c-.019,0-.019.058-.019.076m3.135.324c0,.569.969.645,1.975.645,2.85,0,6.973.076,6.973-3.723a3.5,3.5,0,0,0-1.273-2.792c-.228-.209-.76-.324-.893-.551l-.817-.153H79.185c-2.071,0-2.944,0-3.78.057-.19.02-.665.57-.665.647,0,.056,0,.113.076.132l-.19.228h.266v3.856a.592.592,0,0,1,.057.247c0,.095-.019.153-.133.171l.171.077ZM74.7,86.378c0,.038.019.038.057.038.019,0,.038,0,.038-.038,0-.019-.019-.057-.038-.057a.061.061,0,0,0-.057.057m.665,6.631c.152,0,.171-.172.171-.324v-.152a.384.384,0,0,0-.342.342c0,.095.057.134.171.134m.133-.97a.537.537,0,0,0,.342-.113.408.408,0,0,0-.323-.1c-.077,0-.114.019-.114.1,0,.094.019.113.095.113m1.234-.3c.077,0,.133-.018.209-.133a.144.144,0,0,0-.132-.076c-.077,0-.228-.018-.228.095,0,.1.075.114.151.114m.988,1.387c.095,0,.171-.038.171-.152a.168.168,0,0,0-.171.152m.38-1.387V91.6h-.095c0,.076.038.133.095.133m1.178,1.178h.038v-.095H79.28Zm3.021.1c.076,0,.683-.058.683-.172s-.209-.152-.3-.152a5.527,5.527,0,0,0-.608.057l-.038.076c.057.076.171.191.266.191m1.937-.647c.286,0,.361-.019.361-.323a.471.471,0,0,0-.474.247c.019.076.037.076.113.076m.1-6.516c-.019,0-.039,0-.039.019a.041.041,0,0,0,.039.038c.037,0,.037-.018.056-.038,0-.019-.019-.019-.056-.019m.493,2.318s.7.133.855.133c.133,0,.152-.057.152-.209h-.057c-.4,0-.532-.324-.95-.324Zm.323,3.3h.228c.076,0,.247,0,.247-.094,0-.02-.361-.134-.418-.172-.152,0-.19.019-.19.152,0,.095.038.114.133.114m-.076-8.263c0,.018.019.056.076.056.019,0,.038-.038.038-.056,0-.058-.019-.1-.038-.1-.057,0-.076.038-.076.1m.3,6.933c.19,0,.266-.114.266-.3-.19,0-.4.018-.494.151a.254.254,0,0,0,.228.152m.209-4.521c0,.038.133.058.209.058a.583.583,0,0,0-.209-.514Zm.247-1.12a.156.156,0,0,0,.133-.114.1.1,0,0,0-.095-.039h-.038Zm.627,3.533a.1.1,0,0,0,.076-.114c0-.076,0-.133-.076-.153-.038.02-.038.077-.038.153,0,.038,0,.094.038.114" transform="translate(-14.558 -9.065)"/><path class="cls-8" d="M91.422,90.6c-.417,0-.513-.8-.513-1.292,0-.247.286-.094.286-.247,0-.018-.058-.076-.058-.076h-.228v-.113c.038,0,.3-.02.323-.133a.788.788,0,0,1-.323-.114V86.435h.323c0-.171-.323-.1-.323-.228V83.244h.19l-.19-.115V82.046c0-.094.133-.189.228-.189.323,0,.646.095.969.095a6.287,6.287,0,0,1-.911-.209l.094-.058h2.375c.247,0,.343.476.343.494h-.286c.133.038.324.095.324.133v1.121h-.21a1.155,1.155,0,0,1,.21.153v3.077c0,.057-.191.057-.324.132.114.039.324.115.324.171v1.768c0,.075-.153.133-.248.133.076.209.248.189.3.322a2.831,2.831,0,0,0,1.216,1.482v.077H95.07a13.846,13.846,0,0,0,3,.512c.778,0,1.519-.285,2.336-.285l-.322-.114a5.234,5.234,0,0,0,.759-.456c.3-.228.646-.987.988-1.082-.019,0-.075-.058-.095-.058a.12.12,0,0,1,.133-.133l-.133-.076v-.969h.323c-.133-.114-.323-.17-.323-.209V84.326h.171c-.057-.019-.133-.171-.171-.171v-.722h.19c-.057-.056-.17-.1-.19-.151V82.2c0-.171.19-.514.4-.514h2.089c.456,0,.514.779.514,1.33,0,.285-.02.438-.02.571,0,.094.02.151.02.189l-.058.076.058.057v.627l-.058.076.058.058v3.647c0,.038-.038.057-.1.057h-.113c-.058,0-.076,0-.1.038l.3.209-.058.474h-.209s-.056.058-.056.076c.038,0,.265.153.265.266h-.4v.058c.038,0,.285.056.322.151l-.133.494c-.018.133-.171.76-.322.836a.784.784,0,0,0-.437.171H104c0,.02.018.02.018.038,0,.171-.322.57-.493.76a7.975,7.975,0,0,1-6.06,2.2,7.2,7.2,0,0,1-5.51-2.3,2.09,2.09,0,0,1-.684-1.159h.342Zm2-8.472c-.076,0-.152,0-.152.018s.095.038.152.038a.156.156,0,0,0,.114-.038c0-.018-.057-.018-.114-.018m7.049,10.638.132-.133h-.132Zm1.633-7.238c.038,0,.114-.095.152-.133,0-.038-.114-.095-.114-.095a.542.542,0,0,0-.152.133c0,.076.133.095.114.095m1.1,2.926a.175.175,0,0,0,.189-.171c0-.1-.113-.1-.189-.1s-.133,0-.191.134a.234.234,0,0,0,.191.133m.494-.342c.133,0,.456.019.456-.152,0-.153-.228-.171-.38-.171-.172,0-.247.018-.247.209,0,.114.095.114.171.114" transform="translate(-14.558 -9.065)"/><path class="cls-8" d="M116.654,90.5h.227v-.153h-.436l-.114-.227a.233.233,0,0,0,.227-.134c-.018,0-.1-.057-.113-.057-.38,0-.551-.265-.818-.474a2.425,2.425,0,0,0-1.462-.342c-2.185,0-1.539.266-2.127.816-.038.057-.191.153-.191.171,0,.115.191,0,.191.171,0,.647-.267.342-.3.589h.285a1.068,1.068,0,0,0-.038.323c0,.285.02.665.02,1.064,0,.741-.058,1.444-.457,1.444H109.3c-.189,0-.38-.361-.38-.494V91.166l.324-.153a2.091,2.091,0,0,0-.324-.114v-.645a.578.578,0,0,0,.324-.133c-.02-.076-.286-.1-.324-.134v-1.6l.153-.113-.153-.058v-.456a.764.764,0,0,1,.324-.132v-.057c-.171-.02-.324-.02-.324-.229,0-.17.191-.227.324-.341v-.057h-.286c0-.7-.018-1.539-.018-2.317a6.223,6.223,0,0,1,.266-2.6c.361-.019,2.241-.228,2.393-.228.418,0,.817.132,1.216.132,0,0,.076,0,.095-.038a1.6,1.6,0,0,1-.664-.171c.968,0,5.527-.056,6.477-.056,1.634,0,2.622-.038,3.571,1.083a1.507,1.507,0,0,1,.4.816h-.342c.475.133.551.285.551.476v.3a.331.331,0,0,0,.113.3,3.715,3.715,0,0,1-1.082,3.153h-.761c-.018,0-.075.077-.094.115a.431.431,0,0,0,.019.076h.513c-.229.627-1.862.494-1.862,1.159a1.185,1.185,0,0,0,.247.664l-.095.114c.019.095.19.153.228.171h-.114a1.246,1.246,0,0,1,.569.438l2.11,2.526a.68.68,0,0,1,.209.418.387.387,0,0,1-.418.342h-2.85a1.238,1.238,0,0,1-.95-.627l-2.032-2.621Zm-.267-4.123c.494,0,2.033-.133,2.09-.133.57-.038,1.216-.4,1.216-.987,0-1.1-1.083-1.178-2.014-1.178h-4.92c-.494.113-.646.455-.646.93,0,.779.171,1.216.969,1.311.475.019,2.793.057,3.305.057M113.2,81.97c-.038,0-.076,0-.076.02s.038.038.076.038a.1.1,0,0,0,.076-.038c0-.02-.038-.02-.076-.02m2.7,4.522c0,.019,0,.057.037.057a.085.085,0,0,0,.076-.057c0-.019-.038-.076-.076-.076s-.037.057-.037.076m.209-.076a.06.06,0,0,0,.057.057c.018,0,.018-.019.038-.057Zm6.668-1.843a.02.02,0,0,0-.02.02.069.069,0,0,0,.02.038.041.041,0,0,0,.037-.038c0-.02-.018-.02-.037-.02" transform="translate(-14.558 -9.065)"/><path class="cls-8" d="M127.864,92.038l-.133-.189-.589-.095c-.209-.057-.7-1.1-.816-1.406a6.984,6.984,0,0,1-.456-2.47c0-.247.018-1.425.189-1.481.02,0,.4,0,.4-.153a.8.8,0,0,0-.171-.36c-.076,0-.133.152-.153.171a.2.2,0,0,1-.018-.058c0-.588.569-.911.569-1.462a4.386,4.386,0,0,1,.78-1.044c1.633-1.843,4.426-2.452,6.82-2.452a9.975,9.975,0,0,1,4.9,1.1c.133.437.208.456.38.456.8,0,2.165,1.881,2.356,3.04-.038.019-.324.057-.324.151,0,.229.494-.094.494.913a.247.247,0,0,0-.17-.039c-.153,0-.38.133-.38.267,0,.019.038.095.056.095h.609v.854a4.028,4.028,0,0,1-.343,2.014c-.038-.076-.095-.19-.209-.19a.359.359,0,0,0-.246.133l.36.38-.494.95H141.1a.067.067,0,0,0-.018.037c0,.058.056.115.056.134a1.141,1.141,0,0,1-.3.456c-.115.152-.362.455-.362.455-.3.191-.8-.018-.987.418h.266c-.247.989-2.83,1.73-3.705,1.9a4.487,4.487,0,0,1-.855.056c-2.336,0-5.319-.265-7.275-2.051a3.3,3.3,0,0,1-.456-.456v-.077Zm-.4-5.2h.076V86.8h-.076Zm.361-1.9c.151,0,.209-.513.209-.741a.051.051,0,0,0-.058-.057.8.8,0,0,0-.323.589c0,.076.038.209.172.209m6.212,6.686c2.222,0,4.521-1.082,5.014-3.38.38,0,.7.076,1.1.076,0-.362-.589-.362-.589-.723s.228-.474.569-.569c0-.229-.227-.247-.379-.247-.228,0-.456.018-.456.3,0,.153.076.3.076.475a.2.2,0,0,1-.19.19c-.19-.588-.285-1.139-.475-1.709,0-.019.152,0,.228-.095,0-.171-.285-.171-.323-.191-.209-.075-.532-.949-.76-.949a5.891,5.891,0,0,0-3.533-1.216,5.539,5.539,0,0,0-4.826,2.356c-.075.114-.38.095-.38.265,0,.133.058.038.19.133,0,.438-.132.8-.132,1.216,0,2.66,2.393,4.065,4.863,4.065M129.878,83.7c0-.285,0-.361-.285-.361,0,.153.057.361.285.361m2.051.095a2.762,2.762,0,0,0,.78-.608c-.228,0-.362.171-.589.171-.323,0-.4-.531-.646-.722-.114.095-.057.229-.228.229-.456,0-.665-.476-1.14-.476-.114,0-.265,0-.265.114,0,.228.341.209.418.4.094.152.113.456.379.456.114,0,.209-.133.361-.133.7,0,.494.57.93.57m-1.614,9.974c-.019,0-.056,0-.056.018s.037.039.056.039a.1.1,0,0,0,.076-.039c0-.018-.038-.018-.076-.018m.247-9.4c.076,0,.285-.4.285-.475s-.076-.209-.17-.209a.948.948,0,0,0-.209.627c.037,0,.037.057.094.057m2.736-1.14c.114,0,.114-.151.114-.209,0-.133-.076-.323-.229-.323a.345.345,0,0,0-.36.343s0,.038.019.038a2.62,2.62,0,0,0,.456.151m-.247-.95c.19,0,.228-.037.228-.19,0-.056.019-.209-.076-.227a.8.8,0,0,0-.152.417m1.177.627h.209c0-.114-.038-.209-.151-.209a.19.19,0,0,0-.058.019Zm3.8,9.4c.4,0,1.254-.058,1.254-.19,0-.019-1.33-.115-1.558-.115a.865.865,0,0,0-.532.1c0,.19.741.209.836.209m.778.874H139c0-.171-.057-.305-.247-.305-.133,0-.153.038-.153.153,0,.133.115.152.209.152m.438-7.523a.126.126,0,0,0,.133-.115c0-.189-.362-.246-.475-.246a.386.386,0,0,0,.342.361m.057,6.136c.094,0,.094-.133.094-.19a.144.144,0,0,0-.151.133c0,.038.018.038.057.057m.588-2c0-.152-.056-.3-.227-.3,0,0-.095.018-.095.094v.019c0,.152.246.19.322.19m-.094-4.122c-.038,0-.038,0-.038.019s0,.038.038.038a.067.067,0,0,0,.018-.038.018.018,0,0,0-.018-.019m.589-1.064c.114,0,.341.019.341-.114s-.114-.133-.209-.133c-.076,0-.247.057-.247.152s.038.095.115.095M140.972,86c0-.209-.285-.36-.418-.36-.038,0-.114.076-.17.113a.574.574,0,0,0,.588.247m.153,3.1h.189c.133,0,.247-.018.247-.171,0-.133-.038-.189-.189-.189-.209,0-.247.209-.247.36m.342-.987c.132,0,.132-.038.132-.114,0-.115-.094-.342-.247-.342a.262.262,0,0,0-.209.209v.018c.02.02.229.229.324.229m.189-2.717c-.019-.076-.075-.095-.151-.095h-.095a.246.246,0,0,0,.246.095" transform="translate(-14.558 -9.065)"/><polygon class="cls-4" points="69.666 50.318 70.522 48.621 69.123 47.334 71.564 47.184 73.036 45.669 73.688 47.274 75.998 47.624 73.96 48.766 73.915 50.497 72.003 49.598 69.666 50.318"/><polygon class="cls-6" points="69.666 50.318 70.522 48.621 69.123 47.334 71.564 47.184 73.036 45.669 73.688 47.274 75.998 47.624 73.96 48.766 73.915 50.497 72.003 49.598 69.666 50.318"/><polygon class="cls-10" points="69.666 50.318 70.522 48.621 69.123 47.334 71.564 47.184 73.036 45.669 73.688 47.274 75.998 47.624 73.96 48.766 73.915 50.497 72.003 49.598 69.666 50.318"/></g></svg>